<?xml version="1.0" standalone="no"?>
<!DOCTYPE svg PUBLIC "-//W3C//DTD SVG 1.1//EN" "http://www.w3.org/Graphics/SVG/1.1/DTD/svg11.dtd" >
<svg xmlns="http://www.w3.org/2000/svg" xmlns:xlink="http://www.w3.org/1999/xlink" version="1.1">
<metadata>
Created by FontForge 20190801 at Wed Apr  8 15:10:56 2020
 By www-data
Copyright (c) 2020 by Sofia Mohr. All rights reserved.
</metadata>
<defs>
<font id="MangueiraRegular" horiz-adv-x="1020" >
  <font-face 
    font-family="MangueiraRegular"
    font-weight="400"
    font-stretch="normal"
    units-per-em="1000"
    panose-1="0 0 5 0 0 0 0 0 0 0"
    ascent="800"
    descent="-200"
    x-height="496"
    cap-height="689"
    bbox="-458 -492 2207 1014"
    underline-thickness="50"
    underline-position="-100"
    unicode-range="U+000D-FB02"
  />
<missing-glyph horiz-adv-x="530" 
d="M480 730v-730h-430v730h430zM265 408l150 287h-300zM90 657v-584l153 292zM440 73v584l-152 -292zM115 35h300l-150 287z" />
    <glyph glyph-name="fi" unicode="fi" horiz-adv-x="550" 
d="M471 0h-75v433h-220v-433h-74v433h-69v63h69v35q0 87 41.5 138t128.5 51q20 0 36 -2t39 -9v-59h-8q-16 8 -29.5 10t-30.5 2q-51 0 -77 -32t-26 -92v-42h295v-496zM434 718q23 0 40 -16.5t17 -40.5q0 -23 -17 -39.5t-40 -16.5t-40 16.5t-17 39.5q0 25 17 41t40 16z" />
    <glyph glyph-name="fl" unicode="fl" horiz-adv-x="548" 
d="M468 705v-705h-73v646q-23 10 -41.5 13t-41.5 3q-72 0 -104 -33t-32 -93v-40h118v-63h-118v-433h-74v433h-69v63h69v35q0 86 48 137.5t155 51.5q26 0 47.5 -3.5t48.5 -11.5h67z" />
    <glyph glyph-name="f_f" unicode="ff" horiz-adv-x="647" 
d="M582 720q20 0 36.5 -2t42.5 -9v-58h-8q-20 8 -33.5 9.5t-30.5 1.5q-64 0 -90 -33t-26 -93v-40h165v-63h-165v-433h-75v433h-222v-433h-74v433h-69v63h69v35q0 86 42.5 137.5t140.5 51.5q20 0 36.5 -2t42.5 -9v-58h-8q-19 8 -33 9.5t-31 1.5q-63 0 -89.5 -33t-26.5 -93
v-40h222v35q0 86 42.5 137.5t141.5 51.5z" />
    <glyph glyph-name="f_f_i" unicode="ffi" horiz-adv-x="849" 
d="M769 0h-75v433h-220v-433h-74v433h-224v-433h-74v433h-69v63h69v35q0 86 42.5 137.5t140.5 51.5q20 0 36.5 -2t42.5 -9v-58h-8q-19 8 -33 9.5t-31 1.5q-63 0 -89.5 -33t-26.5 -93v-40h224v35q0 87 42 138t128 51q20 0 36 -2t39 -9v-59h-8q-16 8 -29.5 10t-30.5 2
q-51 0 -77 -32t-26 -92v-42h295v-496zM732 718q23 0 40 -16.5t17 -40.5q0 -23 -17 -39.5t-40 -16.5t-40 16.5t-17 39.5q0 25 17 41t40 16z" />
    <glyph glyph-name="f_f_l" unicode="ffl" horiz-adv-x="844" 
d="M765 705v-705h-74v647q-22 9 -41 12t-41 3q-72 0 -104 -33t-32 -93v-40h117v-63h-117v-433h-75v433h-222v-433h-74v433h-69v63h69v35q0 86 42.5 137.5t140.5 51.5q20 0 36.5 -2t42.5 -9v-58h-8q-19 8 -33 9.5t-31 1.5q-63 0 -89.5 -33t-26.5 -93v-40h222v35
q0 86 48.5 137.5t155.5 51.5q26 0 47.5 -3.5t48.5 -11.5h67z" />
    <glyph glyph-name=".notdef" horiz-adv-x="530" 
d="M480 730v-730h-430v730h430zM265 408l150 287h-300zM90 657v-584l153 292zM440 73v584l-152 -292zM115 35h300l-150 287z" />
    <glyph glyph-name=".null" horiz-adv-x="0" 
 />
    <glyph glyph-name=".null" horiz-adv-x="0" 
 />
    <glyph glyph-name="nonmarkingreturn" unicode="&#xd;" horiz-adv-x="250" 
 />
    <glyph glyph-name="space" unicode=" " horiz-adv-x="247" 
 />
    <glyph glyph-name="exclam" unicode="!" horiz-adv-x="258" 
d="M91 689h77l-6 -456h-65zM129 -15q-24 0 -41.5 17.5t-17.5 41.5q0 26 18 42.5t41 16.5q24 0 42 -17t18 -42q0 -24 -17.5 -41.5t-42.5 -17.5z" />
    <glyph glyph-name="quotedbl" unicode="&#x22;" horiz-adv-x="374" 
d="M60 720h71l-8 -240h-56zM244 720h72l-9 -240h-55z" />
    <glyph glyph-name="numbersign" unicode="#" horiz-adv-x="797" 
d="M600 463l-51 -198h147l-18 -67h-146l-51 -198h-69l51 198h-226l-51 -198h-70l51 198h-135l18 67h134l51 198h-133l18 66h132l47 183h69l-47 -183h227l47 183h69l-47 -183h148l-17 -66h-148zM531 463h-227l-50 -198h226z" />
    <glyph glyph-name="dollar" unicode="$" horiz-adv-x="575" 
d="M532 181q0 -46 -15.5 -80t-43 -58t-66 -38t-84.5 -18v-114h-62v112q-56 2 -114.5 15.5t-105.5 38.5v73h8q45 -26 101 -41t111 -17v266q-3 0 -7 2q-37 13 -72 28t-62 36.5t-43.5 52.5t-16.5 76q0 44 15.5 77t42.5 56t63.5 36.5t79.5 17.5v118h62v-116q48 -2 94.5 -12.5
t84.5 -30.5v-72h-9q-32 17 -78.5 30.5t-91.5 16.5v-260q43 -12 81 -26.5t66.5 -36.5t45 -53.5t16.5 -78.5zM141 519q0 -28 10 -47.5t26.5 -34t38 -24.5t45.5 -18v239q-53 -7 -86.5 -34.5t-33.5 -80.5zM323 57q57 8 92.5 37t35.5 82q0 29 -9.5 48.5t-26.5 33.5t-40.5 23.5
t-51.5 18.5v-243z" />
    <glyph glyph-name="percent" unicode="%" horiz-adv-x="776" 
d="M192 419q-35 0 -65 12t-51.5 33t-34 49.5t-12.5 61.5t12.5 61.5t34.5 49.5t52 33t64 12t63.5 -12t51.5 -33t34.5 -49.5t12.5 -61.5t-12 -61.5t-33.5 -49.5t-51.5 -33t-65 -12zM519 720h68l-329 -720h-68zM192 471q47 0 77 29.5t30 74.5t-30.5 75t-76.5 30q-47 0 -77 -30
t-30 -75t30 -74.5t77 -29.5zM585 -15q-35 0 -65 12t-51.5 33t-34 49.5t-12.5 61.5t12.5 61.5t34.5 49.5t52 33t64 12t63.5 -12t51.5 -33t34.5 -49.5t12.5 -61.5t-12 -61.5t-33.5 -49.5t-51.5 -33t-65 -12zM585 37q47 0 77 29.5t30 74.5t-30.5 75t-76.5 30q-47 0 -77 -30
t-30 -75t30 -74.5t77 -29.5z" />
    <glyph glyph-name="ampersand" unicode="&#x26;" horiz-adv-x="628" 
d="M295 -15q-61 0 -107.5 16t-78 44.5t-47.5 67.5t-16 86q0 41 12.5 72.5t31.5 54t41.5 37t43.5 21.5v5q-17 8 -33.5 19.5t-29 29t-20.5 40.5t-8 53q0 81 59.5 127.5t161.5 46.5q44 0 84 -7.5t75 -27.5v-60h-8q-34 19 -69.5 27t-74.5 8q-69 0 -112.5 -29t-43.5 -89
q0 -56 32.5 -87t93.5 -31h35v-58h-36q-39 0 -68.5 -12t-50 -32t-30.5 -47.5t-10 -58.5q0 -72 45.5 -113t127.5 -41q91 0 135.5 51.5t44.5 147.5v164h135v-64h-71v-102q0 -122 -61.5 -190.5t-182.5 -68.5z" />
    <glyph glyph-name="quotesingle" unicode="'" horiz-adv-x="190" 
d="M60 720h71l-8 -240h-56z" />
    <glyph glyph-name="parenleft" unicode="(" horiz-adv-x="279" 
d="M201 -179q-80 99 -117 215.5t-37 249.5q0 132 37 250.5t117 218.5h70q-82 -106 -118.5 -220.5t-36.5 -248.5t36.5 -246.5t118.5 -218.5h-70z" />
    <glyph glyph-name="parenright" unicode=")" horiz-adv-x="279" 
d="M8 -179q82 106 118.5 218.5t36.5 246.5t-36.5 248.5t-118.5 220.5h70q80 -100 117 -218.5t37 -250.5q0 -133 -37 -249.5t-117 -215.5h-70z" />
    <glyph glyph-name="asterisk" unicode="*" horiz-adv-x="466" 
d="M280 529l120 -69l-23 -41l-119 69v-120h-49v120l-120 -69l-22 41l120 69l-120 69l22 41l120 -69v130h49v-130l119 68l23 -40z" />
    <glyph glyph-name="plus" unicode="+" horiz-adv-x="494" 
d="M213 312h-172v63h172v169h69v-169h172v-63h-172v-169h-69v169z" />
    <glyph glyph-name="comma" unicode="," horiz-adv-x="178" 
d="M64 47h72l-66 -222h-64z" />
    <glyph glyph-name="hyphen" unicode="-" horiz-adv-x="442" 
d="M49 281h345v-66h-345v66z" />
    <glyph glyph-name="period" unicode="." horiz-adv-x="226" 
d="M113 -16q-24 0 -41.5 17t-17.5 41q0 26 18 43t41 17q24 0 42 -17.5t18 -42.5q0 -23 -18 -40.5t-42 -17.5z" />
    <glyph glyph-name="slash" unicode="/" horiz-adv-x="462" 
d="M363 755h73l-338 -960h-73z" />
    <glyph glyph-name="zero" unicode="0" horiz-adv-x="708" 
d="M354 -15q-54 0 -108 20.5t-97 64t-70 111.5t-27 163t27 163.5t70 112t97 64t108 20.5t108 -20.5t97 -64.5t70 -112t27 -163q0 -94 -27 -162t-70 -112t-97 -64.5t-108 -20.5zM354 55q40 0 79.5 17t71 52t51 89.5t19.5 130.5q0 77 -20 131.5t-51.5 90t-71 52t-78.5 16.5
t-79 -16.5t-71.5 -51.5t-51.5 -90t-20 -132q0 -76 20 -131t51.5 -90t71 -51.5t79.5 -16.5z" />
    <glyph glyph-name="one" unicode="1" horiz-adv-x="352" 
d="M180 596l-156 -69v75l194 87h40v-689h-78v596z" />
    <glyph glyph-name="two" unicode="2" horiz-adv-x="560" 
d="M43 39l186 171q43 40 78 75.5t60 69.5t38.5 68t13.5 70q0 75 -42 108t-116 33q-54 0 -109 -20.5t-100 -59.5h-8v72q48 40 110 59t122 19q49 0 90 -12t71 -37t46.5 -63.5t16.5 -91.5q0 -44 -15.5 -83.5t-42.5 -78t-64.5 -76.5t-81.5 -79l-121 -109v-5h340v-69h-472v39z
" />
    <glyph glyph-name="three" unicode="3" horiz-adv-x="535" 
d="M238 -15q-48 0 -100 10t-96 32v70h8q37 -22 83 -32.5t90 -10.5q39 0 72 8t57 24.5t38 42t14 61.5q0 69 -48 101.5t-131 32.5h-66v59h60q30 0 59 7.5t51.5 24t36.5 41.5t14 59q0 65 -42 93t-113 28q-40 0 -81.5 -11t-79.5 -32h-8v70q43 22 90 31.5t90 9.5q102 0 161.5 -44
t59.5 -132q0 -37 -11 -65t-29 -48.5t-40 -33.5t-44 -19v-5q31 -4 58.5 -17.5t48.5 -35.5t33 -52t12 -68q0 -49 -18 -86.5t-50.5 -62.5t-78 -37.5t-100.5 -12.5z" />
    <glyph glyph-name="four" unicode="4" horiz-adv-x="603" 
d="M580 137h-106v-137h-77v137h-370v40l205 512h77l-194 -484h284l28 248h47v-248h106v-68z" />
    <glyph glyph-name="five" unicode="5" horiz-adv-x="539" 
d="M251 -15q-21 0 -46 2.5t-50.5 8t-51 13.5t-46.5 19v71h8q18 -11 41 -19.5t47 -14t47 -8.5t42 -3q83 0 130 43.5t47 121.5q0 69 -46.5 108.5t-146.5 39.5q-43 0 -81 -6.5t-75 -13.5v342h371v-66h-305v-204q24 5 50 9t63 4q69 0 116.5 -17t77.5 -46t43 -68t13 -83
q0 -58 -19 -101.5t-52.5 -73t-79 -44t-97.5 -14.5z" />
    <glyph glyph-name="six" unicode="6" horiz-adv-x="602" 
d="M305 -15q-54 0 -101.5 20t-82 54.5t-54.5 81t-20 100.5q0 30 4 56t12.5 51t22.5 51.5t34 57.5l150 232h88l-154 -229q29 18 61 26.5t66 7.5q53 -3 96 -24t73.5 -55t47 -78.5t16.5 -95.5q0 -53 -19.5 -100t-54 -81.5t-82 -54.5t-103.5 -20zM306 54q39 0 72.5 14.5t58 39.5
t38.5 59.5t14 74.5t-14 74t-38.5 59.5t-58 40t-72.5 14.5q-40 0 -74 -11t-58 -34t-37.5 -58.5t-13.5 -84.5q0 -40 14 -74t38.5 -59.5t58 -40t72.5 -14.5z" />
    <glyph glyph-name="seven" unicode="7" horiz-adv-x="483" 
d="M368 621h-348v68h448v-40l-305 -649h-86z" />
    <glyph glyph-name="eight" unicode="8" horiz-adv-x="598" 
d="M302 -16q-56 0 -103 15.5t-80.5 43t-52.5 66.5t-19 86q0 33 12.5 63t33 54t47 40.5t53.5 23.5v5q-25 8 -44.5 24t-32.5 36.5t-20 43.5t-7 45q0 37 15.5 68.5t43 55t66.5 37t86 13.5t86 -13.5t67 -37t43.5 -55t15.5 -68.5q0 -22 -7 -45t-20.5 -43.5t-32.5 -36.5t-44 -24
v-5q26 -7 52 -23t46 -40t32.5 -54.5t12.5 -65.5q0 -47 -19 -85.5t-52.5 -66t-79 -42.5t-98.5 -15zM301 403q36 0 62 11.5t42.5 29t24.5 39t8 42.5q0 49 -37 83t-100 34t-100.5 -34t-37.5 -83q0 -21 7.5 -42.5t24 -39t43 -29t63.5 -11.5zM301 46q36 0 68 11t55 31t36.5 48
t13.5 61q0 28 -12.5 54.5t-35.5 47.5t-55.5 34t-71.5 13q-42 0 -74.5 -13t-55 -34t-34 -47.5t-11.5 -54.5q0 -34 14 -61.5t38 -47.5t56.5 -31t68.5 -11z" />
    <glyph glyph-name="nine" unicode="9" horiz-adv-x="601" 
d="M397 229q-29 -18 -61 -26.5t-66 -7.5q-52 3 -95 24t-74 55t-47.5 78.5t-16.5 95.5q0 53 19.5 100t54 81.5t82 54.5t103.5 20q54 0 101.5 -19.5t82 -54t54.5 -81.5t20 -101q0 -30 -4 -56t-12.5 -51t-22 -51.5t-33.5 -57.5l-151 -232h-87zM296 259q40 0 73.5 11t58 34
t38 58.5t13.5 84.5q0 40 -14 74t-38.5 59.5t-58 40t-72.5 14.5q-40 0 -73.5 -14.5t-58 -39.5t-38.5 -59.5t-14 -74.5t14 -74t38.5 -59.5t58 -40t73.5 -14.5z" />
    <glyph glyph-name="colon" unicode=":" horiz-adv-x="242" 
d="M120 377q-24 0 -41 17t-17 41q0 26 17.5 43t40.5 17q25 0 42.5 -17.5t17.5 -42.5q0 -23 -17.5 -40.5t-42.5 -17.5zM121 -17q-24 0 -41.5 17.5t-17.5 41.5q0 26 18 43t41 17q24 0 42 -17.5t18 -42.5q0 -24 -17.5 -41.5t-42.5 -17.5z" />
    <glyph glyph-name="semicolon" unicode=";" horiz-adv-x="280" 
d="M144 378q-24 0 -41.5 17.5t-17.5 41.5q0 26 18 43t41 17q25 0 42.5 -17.5t17.5 -42.5q0 -24 -17.5 -41.5t-42.5 -17.5zM112 47h72l-66 -222h-64z" />
    <glyph glyph-name="less" unicode="&#x3c;" horiz-adv-x="480" 
d="M51 306v74l351 196v-78l-276 -151v-6l276 -152v-77z" />
    <glyph glyph-name="equal" unicode="=" horiz-adv-x="548" 
d="M67 486h413v-63h-413v63zM67 265h413v-63h-413v63z" />
    <glyph glyph-name="greater" unicode="&#x3e;" horiz-adv-x="480" 
d="M78 190l276 151v7l-276 151v77l351 -195v-74l-351 -194v77z" />
    <glyph glyph-name="question" unicode="?" horiz-adv-x="495" 
d="M167 384h32q40 0 73.5 8t58 24.5t38 42t13.5 61.5q0 50 -36 83t-116 33q-49 0 -98.5 -14t-91.5 -38h-8v72q44 22 96 35.5t113 13.5q48 0 87.5 -11t68 -33.5t44 -55t15.5 -76.5q0 -50 -18.5 -85.5t-48 -58t-67 -33t-75.5 -12.5v-109h-81zM207 -17q-23 0 -40 17t-17 40
q0 24 17 40.5t40 16.5t40 -17t17 -40t-17 -40t-40 -17z" />
    <glyph glyph-name="at" unicode="@" horiz-adv-x="1003" 
d="M483 -192q-97 0 -178 32t-139.5 89t-90.5 136.5t-32 174.5q0 97 33.5 177t94 138t145.5 90t187 32q103 0 186.5 -31t143 -87.5t91.5 -134t32 -169.5q0 -105 -43 -165.5t-119 -60.5q-54 0 -84 28t-37 69h-6q-25 -50 -70.5 -79t-115.5 -29q-48 0 -88 17t-69 47t-45 70
t-16 86q0 48 16 89t45 72t69.5 48.5t88.5 17.5q63 0 106 -27t66 -72h6l7 81h48v-266q0 -43 18.5 -69.5t62.5 -26.5q48 0 73.5 46t25.5 124q0 82 -27 149.5t-77.5 115.5t-123 74t-162.5 26q-91 0 -165.5 -27t-126.5 -77t-80.5 -119.5t-28.5 -155.5q0 -85 27 -154.5t77.5 -119
t122 -76.5t160.5 -27q29 0 59.5 5.5t60.5 14.5v-57q-29 -10 -62.5 -14.5t-65.5 -4.5zM488 79q35 0 65 12t51.5 33t33.5 51t12 66t-12 66t-34 51.5t-51.5 33.5t-64.5 12t-64.5 -12t-51 -34t-33.5 -52t-12 -65q0 -36 12 -65.5t33.5 -51t51 -33.5t64.5 -12z" />
    <glyph glyph-name="A" unicode="A" horiz-adv-x="673" 
d="M528 126h-383l-55 -126h-81l308 689h39l308 -689h-81zM502 186l-163 373h-6l-162 -373h331z" />
    <glyph glyph-name="B" unicode="B" horiz-adv-x="635" 
d="M93 689h244q109 0 165 -44.5t56 -129.5q0 -65 -32 -108.5t-80 -53.5v-6q68 -11 103 -54.5t35 -106.5q0 -51 -17 -86t-47.5 -57.5t-72 -32.5t-90.5 -10h-264v689zM344 375q28 0 52.5 9t43.5 25.5t30 41.5t11 56q0 65 -41.5 92t-115.5 27h-157v-251h177zM345 63q35 0 65 6
t52 21t34.5 40t12.5 64q0 31 -12.5 55t-35 40t-53 24t-66.5 8h-175v-258h178z" />
    <glyph glyph-name="C" unicode="C" horiz-adv-x="662" 
d="M416 -15q-77 0 -144.5 26t-117.5 73.5t-78.5 113.5t-28.5 147t28.5 147t78.5 113.5t117.5 73.5t144.5 26q65 0 117 -11t96 -33v-72h-8q-41 22 -89 34t-104 12q-64 0 -119 -20.5t-95.5 -58.5t-63.5 -91.5t-23 -119.5t23 -119.5t63.5 -91.5t95.5 -58.5t119 -20.5
q57 0 104.5 12t88.5 35h8v-72q-44 -23 -96 -34t-117 -11z" />
    <glyph glyph-name="D" unicode="D" horiz-adv-x="731" 
d="M93 689h231q77 0 143 -24t114 -68.5t75 -108t27 -143.5t-27 -144t-75 -108.5t-114 -68.5t-143 -24h-231v689zM325 72q60 0 111 19t88 54t58 86t21 114q0 60 -20 110t-56 86t-87.5 56t-114.5 20h-155v-545h155z" />
    <glyph glyph-name="E" unicode="E" horiz-adv-x="558" 
d="M93 689h421v-62h-344v-250h307v-60h-307v-255h344v-62h-421v689z" />
    <glyph glyph-name="F" unicode="F" horiz-adv-x="537" 
d="M93 689h421v-72h-344v-249h307v-68h-307v-300h-77v689z" />
    <glyph glyph-name="G" unicode="G" horiz-adv-x="705" 
d="M418 -16q-82 0 -150.5 27t-117.5 75.5t-76 115.5t-27 146q0 80 29 146t79 113t116.5 72.5t141.5 25.5q65 0 116.5 -11t95.5 -34v-71h-8q-42 22 -88.5 34t-103.5 12q-62 0 -116 -20.5t-94.5 -58t-64 -90.5t-23.5 -118q0 -63 21 -116.5t60 -93t94 -62t122 -22.5
q82 0 147 31v284h77v-330q-102 -55 -230 -55z" />
    <glyph glyph-name="H" unicode="H" horiz-adv-x="776" 
d="M93 689h77v-305h436v305h78v-689h-78v312h-436v-312h-77v689z" />
    <glyph glyph-name="I" unicode="I" horiz-adv-x="263" 
d="M93 689h77v-689h-77v689z" />
    <glyph glyph-name="J" unicode="J" horiz-adv-x="419" 
d="M116 -15q-25 0 -49 2.5t-53 11.5v70h8q18 -7 37.5 -10.5t42.5 -3.5q35 0 63.5 9.5t48.5 30.5t31.5 55.5t11.5 83.5v455h77v-462q0 -63 -16.5 -108.5t-45.5 -75.5t-69 -44t-87 -14z" />
    <glyph glyph-name="K" unicode="K" horiz-adv-x="640" 
d="M93 689h77v-304h6l350 304h95l-381 -335l409 -354h-102l-372 316h-5v-316h-77v689z" />
    <glyph glyph-name="L" unicode="L" horiz-adv-x="492" 
d="M93 689h77v-617h306v-72h-383v689z" />
    <glyph glyph-name="M" unicode="M" horiz-adv-x="892" 
d="M139 689l304 -468h6l303 468h47v-689h-75v519h-6l-265 -408h-16l-263 408h-7v-519h-74v689h46z" />
    <glyph glyph-name="N" unicode="N" horiz-adv-x="759" 
d="M590 144v545h76v-689h-46l-446 541h-5v-541h-76v689h46l446 -545h5z" />
    <glyph glyph-name="O" unicode="O" horiz-adv-x="821" 
d="M411 -15q-79 0 -145.5 27.5t-115.5 76.5t-76.5 115t-27.5 142t27.5 141.5t76 113.5t115.5 75.5t146 27.5t145.5 -27.5t115 -75.5t76 -113.5t27.5 -141.5t-27.5 -142t-76 -115t-115 -76.5t-145.5 -27.5zM411 55q61 0 113 22.5t89.5 62t59 92.5t21.5 114q0 60 -21.5 112.5
t-59 91.5t-89.5 61.5t-113 22.5t-113 -22.5t-90 -61.5t-59.5 -91.5t-21.5 -112.5q0 -61 21.5 -114t59.5 -92.5t90 -62t113 -22.5z" />
    <glyph glyph-name="P" unicode="P" horiz-adv-x="617" 
d="M346 689q57 0 102 -16.5t76 -46t47 -70t16 -87.5q0 -108 -63.5 -165.5t-179.5 -57.5h-175v-246h-76v689h253zM348 313q81 0 122 43t41 112q0 31 -10.5 59t-31 49.5t-51 34t-70.5 12.5h-179v-310h179z" />
    <glyph glyph-name="Q" unicode="Q" horiz-adv-x="821" 
d="M659 -165q39 0 75.5 9t66.5 27v-67q-30 -17 -68.5 -25.5t-76.5 -8.5q-65 0 -115.5 17.5t-86.5 47t-57 69t-27 83.5q-71 7 -130.5 37.5t-102.5 78t-67 110t-24 133.5q0 76 27.5 141.5t76 113.5t115.5 75.5t146 27.5t145.5 -27.5t115 -75.5t76 -113.5t27.5 -141.5
q0 -73 -25 -136t-69.5 -111t-105.5 -78t-134 -35q12 -65 66.5 -108t151.5 -43zM127 346q0 -61 21.5 -114t59.5 -92.5t90 -62t113 -22.5t113 22.5t89.5 62t59 92.5t21.5 114q0 60 -21.5 112.5t-59 91.5t-89.5 61.5t-113 22.5t-113 -22.5t-90 -61.5t-59.5 -91.5t-21.5 -112.5z
" />
    <glyph glyph-name="R" unicode="R" horiz-adv-x="633" 
d="M602 0h-87l-199 286h-147v-286h-76v690h254q106 0 166.5 -54t60.5 -147q0 -40 -13.5 -73.5t-37.5 -58.5t-57 -40.5t-72 -20.5zM345 348q69 0 111 38.5t42 100.5q0 64 -42 100t-112 36h-175v-275h176z" />
    <glyph glyph-name="S" unicode="S" horiz-adv-x="572" 
d="M276 -15q-59 0 -122.5 14t-113.5 40v73h8q48 -27 108 -42.5t118 -15.5q38 0 70 7.5t55.5 22.5t37 38t13.5 54q0 37 -15.5 59.5t-42 37t-62 25t-76.5 24.5q-37 13 -72.5 28t-62.5 36.5t-43.5 52.5t-16.5 76q0 50 19.5 85.5t53 58.5t78.5 34t96 11q52 0 103.5 -11t91.5 -32
v-72h-8q-18 10 -42 18.5t-49.5 15t-51.5 10.5t-50 4q-33 0 -62.5 -7t-51 -21t-34 -36.5t-12.5 -53.5q0 -34 14.5 -56.5t37.5 -37.5t53 -25t60 -19q46 -13 87 -27.5t72 -36.5t49.5 -54.5t18.5 -81.5q0 -51 -19.5 -88t-53.5 -61t-81 -35.5t-102 -11.5z" />
    <glyph glyph-name="T" unicode="T" horiz-adv-x="546" 
d="M234 617h-221v72h520v-72h-221v-617h-78v617z" />
    <glyph glyph-name="U" unicode="U" horiz-adv-x="759" 
d="M378 -15q-72 0 -127.5 21t-92.5 60.5t-56 96t-19 126.5v400h77v-397q0 -48 11.5 -91.5t37.5 -75.5t68 -51t102 -19q61 0 103 19t68 51t37.5 75.5t11.5 91.5v397h77v-400q0 -70 -19.5 -126.5t-57 -96t-93.5 -60.5t-128 -21z" />
    <glyph glyph-name="V" unicode="V" horiz-adv-x="686" 
d="M8 689h82l251 -560h5l251 560h81l-315 -689h-40z" />
    <glyph glyph-name="W" unicode="W" horiz-adv-x="1035" 
d="M12 689h80l185 -552h6l212 552h45l212 -552h5l185 552h81l-244 -689h-41l-218 567h-5l-219 -567h-40z" />
    <glyph glyph-name="X" unicode="X" horiz-adv-x="640" 
d="M273 353l-255 336h90l209 -275h6l211 275h88l-255 -335l270 -354h-89l-226 294h-6l-224 -294h-89z" />
    <glyph glyph-name="Y" unicode="Y" horiz-adv-x="625" 
d="M274 267l-258 422h83l210 -345h6l212 345h83l-259 -422v-267h-77v267z" />
    <glyph glyph-name="Z" unicode="Z" horiz-adv-x="625" 
d="M22 41l457 579h-438v69h551v-41l-456 -579h465v-69h-579v41z" />
    <glyph glyph-name="bracketleft" unicode="[" horiz-adv-x="341" 
d="M94 755h229v-65h-162v-805h162v-65h-229v935z" />
    <glyph glyph-name="backslash" unicode="\" horiz-adv-x="462" 
d="M26 755h73l337 -960h-73z" />
    <glyph glyph-name="bracketright" unicode="]" horiz-adv-x="341" 
d="M19 -180v65h161v805h-161v65h228v-935h-228z" />
    <glyph glyph-name="asciicircum" unicode="^" horiz-adv-x="595" 
d="M262 689h72l176 -338h-74l-135 264h-7l-134 -264h-75z" />
    <glyph glyph-name="underscore" unicode="_" horiz-adv-x="528" 
d="M16 -18h496v-65h-496v65z" />
    <glyph glyph-name="grave" unicode="`" horiz-adv-x="600" 
d="M103 743h73l129 -194h-65z" />
    <glyph glyph-name="a" unicode="a" horiz-adv-x="666" 
d="M301 -16q-56 0 -103.5 19.5t-82 55t-54 83.5t-19.5 105t19.5 106t54 84t81.5 55t103 20q40 0 73 -10t58.5 -26.5t43.5 -37t28 -41.5h6l8 99h55v-355q0 -19 0.5 -35t3.5 -27.5t10.5 -17.5t22.5 -6q5 0 10 1t10 3h9v-65q-22 -9 -45 -9q-29 0 -45.5 9t-24.5 25t-10 37.5
t-4 46.5h-6q-10 -22 -29 -43.5t-44.5 -38t-58 -27t-70.5 -10.5zM307 51q44 0 79.5 17t61 45t39.5 63.5t14 72.5q0 38 -14 73.5t-40 62.5t-61.5 43.5t-79.5 16.5q-40 0 -75 -14t-60.5 -40t-40.5 -62t-15 -80t15 -80.5t41 -62.5t61 -40.5t75 -14.5z" />
    <glyph glyph-name="b" unicode="b" horiz-adv-x="652" 
d="M352 -16q-38 0 -70.5 10.5t-58.5 27t-44.5 38t-29.5 43.5h-6l-8 -103h-55v705h73v-304h6q10 21 27.5 40.5t42 35.5t56 25.5t68.5 9.5q56 0 103 -20t81 -55t53.5 -84t19.5 -106t-19.5 -105t-54 -83.5t-81.5 -55t-103 -19.5zM345 51q40 0 75 14.5t61 40.5t41 62.5t15 80.5
t-15 80t-40.5 62t-60.5 40t-75 14q-43 0 -79 -16.5t-62 -43.5t-40 -62.5t-14 -73.5q0 -37 14 -72.5t39.5 -63.5t61 -45t79.5 -17z" />
    <glyph glyph-name="c" unicode="c" horiz-adv-x="496" 
d="M308 -16q-60 0 -109 19.5t-84 55t-54 83.5t-19 105q0 58 19 106.5t54 84t83.5 55t107.5 19.5q45 0 84.5 -10.5t68.5 -30.5v-67h-8q-25 17 -63.5 28.5t-77.5 11.5q-42 0 -77.5 -14.5t-61 -41t-39.5 -62.5t-14 -79q0 -41 13.5 -77t39 -62.5t61.5 -41.5t81 -15q39 0 76 11.5
t62 29.5h8v-67q-29 -20 -67.5 -30.5t-83.5 -10.5z" />
    <glyph glyph-name="d" unicode="d" horiz-adv-x="666" 
d="M301 -16q-56 0 -103.5 19.5t-82 55t-54 83.5t-19.5 105t19.5 106t54 84t81.5 55t103 20q37 0 68 -9.5t56 -25.5t42.5 -35.5t27.5 -40.5h6v304h72v-564q0 -19 0.5 -35t3.5 -27.5t10.5 -17.5t22.5 -6q5 0 10 1t10 3h9v-65q-22 -9 -45 -9q-29 0 -45.5 9t-24.5 25t-10 37.5
t-4 46.5h-6q-10 -22 -29 -43.5t-44.5 -38t-58 -27t-70.5 -10.5zM307 51q44 0 79.5 17t61 45t39.5 63.5t14 72.5q0 38 -14 73.5t-40 62.5t-61.5 43.5t-79.5 16.5q-40 0 -75 -14t-60.5 -40t-40.5 -62t-15 -80t15 -80.5t41 -62.5t61 -40.5t75 -14.5z" />
    <glyph glyph-name="e" unicode="e" horiz-adv-x="570" 
d="M531 283q0 -14 -1.5 -33t-5.5 -33h-410q5 -44 23 -76.5t45.5 -53.5t63 -31.5t74.5 -10.5q48 0 89.5 10.5t86.5 34.5h8v-57q-46 -27 -92.5 -38t-100.5 -11q-61 0 -110.5 19t-84.5 53.5t-54 83.5t-19 109q0 62 20 111t54 83t79.5 51.5t95.5 17.5q52 0 96 -15.5t75.5 -45
t49.5 -72t18 -96.5zM465 297q-1 33 -12.5 62t-33 50t-53 33t-73.5 12q-32 0 -62.5 -10.5t-55 -32t-40.5 -54.5t-21 -77h351v17z" />
    <glyph glyph-name="f" unicode="f" horiz-adv-x="351" 
d="M285 720q20 0 36.5 -2t42.5 -9v-58h-8q-19 8 -33 9.5t-31 1.5q-63 0 -89.5 -33t-26.5 -93v-40h165v-63h-165v-433h-74v433h-69v63h69v35q0 86 42.5 137.5t140.5 51.5z" />
    <glyph glyph-name="g" unicode="g" horiz-adv-x="599" 
d="M546 459h-91q42 -32 66.5 -79.5t24.5 -103.5q0 -69 -33 -122t-88 -82q57 -16 87 -48.5t30 -85.5q0 -35 -14.5 -65.5t-45 -53t-77 -36t-110.5 -13.5q-73 0 -132 16t-96 37v70h8q33 -23 91.5 -40t128.5 -17q87 0 129.5 30.5t42.5 75.5q0 29 -12.5 48t-35 30t-54 15.5
t-69.5 4.5q-58 0 -104 16.5t-78.5 47t-50 74.5t-17.5 98q0 53 18.5 96t51.5 74t78.5 48.5t99.5 17.5h252v-53zM296 103q41 0 74 14.5t56.5 39t36.5 55.5t13 64q0 44 -16 76.5t-42 53.5t-58 31.5t-64 10.5q-33 0 -65 -10.5t-57.5 -32t-41.5 -53.5t-16 -76q0 -43 14 -75
t38 -54t57 -33t71 -11z" />
    <glyph glyph-name="h" unicode="h" horiz-adv-x="613" 
d="M80 705h72v-293h6q10 19 25.5 36.5t37 31.5t49 22.5t61.5 8.5q100 0 155.5 -58.5t55.5 -158.5v-294h-75v280q0 77 -41.5 120.5t-112.5 43.5q-39 0 -68.5 -15t-49.5 -40t-30.5 -57t-10.5 -67v-265h-74v705z" />
    <glyph glyph-name="i" unicode="i" horiz-adv-x="234" 
d="M117 605q-23 0 -39.5 16.5t-16.5 39.5q0 25 17 41t39 16q23 0 40 -16.5t17 -40.5q0 -23 -16.5 -39.5t-40.5 -16.5zM80 496h74v-496h-74v496z" />
    <glyph glyph-name="j" unicode="j" horiz-adv-x="233" 
d="M117 604q-23 0 -40 16.5t-17 39.5q0 24 17 40.5t40 16.5t40 -17t17 -40t-17 -39.5t-40 -16.5zM-5 -228q-24 0 -41 2.5t-42 9.5v64h7q19 -7 32 -10t31 -3q35 0 55 12t29.5 33.5t11.5 50.5t2 63v502h73v-522q0 -43 -5.5 -80t-22.5 -64t-48 -42.5t-82 -15.5z" />
    <glyph glyph-name="k" unicode="k" horiz-adv-x="575" 
d="M532 0h-83l-126 189q23 10 45.5 22.5t41.5 30.5t30.5 42t11.5 57q0 48 -30.5 76t-82.5 28q-57 0 -103.5 -29.5t-82.5 -83.5v-332h-73v705h73v-294h6q13 18 33.5 36t46.5 33t56.5 24t62.5 9q79 0 123.5 -44t44.5 -113q0 -65 -33 -108t-84 -69z" />
    <glyph glyph-name="l" unicode="l" horiz-adv-x="233" 
d="M80 705h73v-705h-73v705z" />
    <glyph glyph-name="m" unicode="m" horiz-adv-x="1000" 
d="M713 511q50 0 89.5 -15.5t68 -43.5t43.5 -68t15 -90v-294h-75v279q0 77 -41.5 121t-112.5 44q-39 0 -68.5 -14t-49.5 -36t-30 -48.5t-10 -51.5v-294h-75v279q0 36 -8.5 66t-27.5 52t-48 34.5t-70 12.5q-39 0 -68.5 -15t-49.5 -40t-30.5 -57.5t-10.5 -67.5v-264h-74v499
h60l8 -91h7q10 20 26.5 38.5t39 33t51 23t62.5 8.5q74 0 120 -28.5t67 -74.5h3q10 20 28 38.5t42.5 32.5t54.5 23t64 9z" />
    <glyph glyph-name="n" unicode="n" horiz-adv-x="613" 
d="M80 496h60l8 -88h7q10 20 26 38.5t38 33t50 23t62 8.5q100 0 155.5 -58.5t55.5 -158.5v-294h-75v280q0 77 -41.5 120.5t-112.5 43.5q-39 0 -68.5 -15t-49.5 -40t-30.5 -57t-10.5 -67v-265h-74v496z" />
    <glyph glyph-name="o" unicode="o" horiz-adv-x="611" 
d="M304 -16q-55 0 -103 19.5t-83 55t-55.5 84t-20.5 106.5t20.5 106t56.5 83t84 54.5t103 19.5q54 0 102 -19.5t84 -54.5t56.5 -83t20.5 -106t-20.5 -106.5t-56.5 -84t-84 -55t-104 -19.5zM304 52q40 0 74.5 14.5t60.5 40.5t41 62.5t15 79.5t-14.5 79t-40 61.5t-60 40
t-74.5 14.5t-75 -14.5t-60.5 -40t-40 -61.5t-14.5 -79t14.5 -79.5t40 -62.5t60 -40.5t73.5 -14.5z" />
    <glyph glyph-name="p" unicode="p" horiz-adv-x="652" 
d="M80 496h56l8 -98h6q9 21 27.5 41t44.5 36.5t59.5 26.5t73.5 10q55 0 102 -19.5t81 -54.5t53 -83.5t19 -105.5q0 -58 -20 -106.5t-54.5 -83.5t-81.5 -55t-101 -20q-37 0 -68.5 10t-56.5 26.5t-42.5 36.5t-26.5 40h-6v-302h-73v701zM345 51q40 0 75 14.5t61 40.5t41 62.5
t15 80.5t-15 80t-40.5 62t-60.5 40t-75 14q-43 0 -79 -16.5t-62 -43.5t-40 -62.5t-14 -73.5q0 -37 14 -72.5t39.5 -63.5t61 -45t79.5 -17z" />
    <glyph glyph-name="q" unicode="q" horiz-adv-x="652" 
d="M499 97h-6q-9 -20 -26.5 -40t-42.5 -36.5t-56.5 -26.5t-68.5 -10q-54 0 -101 19.5t-81.5 54t-54.5 82.5t-20 106q0 59 19.5 107.5t54 84t82 55t102.5 19.5q40 0 73.5 -10t59 -26.5t43 -37t26.5 -40.5h6l9 98h55v-701h-73v302zM307 51q44 0 79.5 17t61 45t39.5 63.5
t14 72.5q0 38 -14 73.5t-40 62.5t-61.5 43.5t-79.5 16.5q-40 0 -75 -14t-60.5 -40t-40.5 -62t-15 -80t15 -80.5t41 -62.5t61 -40.5t75 -14.5z" />
    <glyph glyph-name="r" unicode="r" horiz-adv-x="347" 
d="M80 496h58l9 -88h6q20 42 64.5 72.5t103.5 30.5h14v-70h-15q-35 0 -65.5 -13t-53 -38t-35.5 -60t-13 -79v-251h-73v496z" />
    <glyph glyph-name="s" unicode="s" horiz-adv-x="499" 
d="M246 -16q-35 0 -66.5 5t-58 12.5t-47 15.5t-33.5 15l1 62h8q37 -20 89.5 -35.5t109.5 -15.5q73 0 107 24.5t34 62.5q0 26 -12 42t-31.5 26t-45 16t-53.5 12q-45 9 -81.5 20t-62.5 27.5t-40 41.5t-14 61q0 34 14.5 59.5t40 42t61 25t77.5 8.5q51 0 103 -12.5t86 -29.5v-61
h-9q-32 19 -81 33.5t-97 14.5q-55 0 -88 -18t-33 -58q0 -24 11 -39.5t30.5 -25.5t47.5 -16.5t62 -13.5q38 -7 72 -17t59.5 -27t41 -43t15.5 -66q0 -31 -13 -58.5t-39.5 -47t-67.5 -31t-97 -11.5z" />
    <glyph glyph-name="t" unicode="t" horiz-adv-x="370" 
d="M362 66v-66q-23 -9 -44 -12.5t-44 -3.5q-94 0 -135.5 54t-41.5 153v242h-77v63h80l14 122h56v-122h170v-63h-170v-243q0 -67 25.5 -103t88.5 -36q22 0 39 4t31 11h8z" />
    <glyph glyph-name="u" unicode="u" horiz-adv-x="591" 
d="M295 -13q-104 0 -164 57t-60 160v292h74v-286q0 -77 39 -116t111 -39q73 0 112 39.5t39 114.5v286h74v-290q0 -105 -61.5 -161.5t-163.5 -56.5z" />
    <glyph glyph-name="v" unicode="v" horiz-adv-x="541" 
d="M12 496h77l179 -387h5l179 387h76l-236 -496h-42z" />
    <glyph glyph-name="w" unicode="w" horiz-adv-x="816" 
d="M14 496h76l143 -376h6l145 376h48l145 -376h6l143 376h76l-199 -496h-41l-151 388h-6l-152 -388h-41z" />
    <glyph glyph-name="x" unicode="x" horiz-adv-x="503" 
d="M202 259l-181 238h81l147 -192h5l147 192h79l-179 -237l189 -260h-82l-154 213h-5l-156 -213h-80z" />
    <glyph glyph-name="y" unicode="y" horiz-adv-x="533" 
d="M87 -230q-16 0 -29.5 2t-35.5 9v63h8q14 -5 25.5 -7t25.5 -2q34 0 57.5 13t40 35t28.5 50t23 57l-215 506h80l171 -425h6l166 425h80l-213 -508q-18 -44 -36.5 -83.5t-43 -69.5t-57.5 -47.5t-81 -17.5z" />
    <glyph glyph-name="z" unicode="z" horiz-adv-x="471" 
d="M27 40l310 392h-293v64h392v-39l-310 -392h313v-65h-412v40z" />
    <glyph glyph-name="braceleft" unicode="{" horiz-adv-x="330" 
d="M313 -205q-54 0 -93.5 11t-65 37t-37.5 69t-12 108v137q0 50 -19 69.5t-57 19.5v72q38 0 57 20t19 70v136q0 62 12.5 105t38 70t64.5 39t93 12v-68q-29 0 -54 -4t-43 -19t-28.5 -46t-10.5 -85v-144q0 -36 -7.5 -58.5t-17 -35t-19 -18t-14.5 -7.5v-6q5 -2 14.5 -7.5
t19 -18t17 -34.5t7.5 -58v-145q0 -55 10.5 -85.5t28.5 -45.5t43 -18.5t54 -3.5v-68z" />
    <glyph glyph-name="bar" unicode="|" horiz-adv-x="259" 
d="M94 720h71v-939h-71v939z" />
    <glyph glyph-name="braceright" unicode="}" horiz-adv-x="330" 
d="M17 -137q30 0 55 3.5t43 18.5t28.5 45.5t10.5 85.5v145q0 36 7.5 58t17 34.5t19.5 18t14 7.5v6q-4 2 -14 7.5t-19.5 18t-17 35t-7.5 58.5v144q0 54 -10.5 85t-28.5 46t-43 19t-55 4v68q54 0 93.5 -12t65 -39t37.5 -70t12 -105v-136q0 -50 19 -70t58 -20v-72
q-39 0 -58 -19.5t-19 -69.5v-137q0 -65 -12 -108t-37.5 -69t-64.5 -37t-94 -11v68z" />
    <glyph glyph-name="asciitilde" unicode="~" horiz-adv-x="589" 
d="M421 277q-36 0 -64 14t-54.5 31.5t-54 31.5t-62.5 14q-33 0 -48 -22t-15 -51v-6t1 -8h-56q-1 7 -1.5 14t-0.5 12q0 23 5.5 45t19 40t35 29t52.5 11q42 0 73.5 -14t58 -31.5t50 -31.5t48.5 -14q33 0 49 20.5t16 52.5v8.5t-1 8.5h55q2 -8 2 -16v-15q0 -25 -6 -47t-19 -39
t-33.5 -27t-49.5 -10z" />
    <glyph glyph-name="uni00A0" unicode="&#xa0;" horiz-adv-x="247" 
 />
    <glyph glyph-name="exclamdown" unicode="&#xa1;" horiz-adv-x="235" 
d="M117 477q25 0 42.5 -17.5t17.5 -41.5t-17.5 -41.5t-42.5 -17.5q-23 0 -40.5 17t-17.5 42q0 24 17 41.5t41 17.5zM150 229l6 -456h-77l6 456h65z" />
    <glyph glyph-name="cent" unicode="&#xa2;" horiz-adv-x="525" 
d="M464 504q-22 16 -54.5 27t-67.5 13v-391q35 2 67 12.5t55 27.5h8v-68q-52 -34 -130 -39v-106h-62v108q-51 6 -92.5 28t-71 56t-45.5 79t-16 97q0 53 16 98t45.5 79.5t71 57t92.5 28.5v109h62v-108q38 -2 71.5 -13t58.5 -28v-67h-8zM131 348q0 -72 40 -124.5t109 -66.5
v384q-68 -14 -108.5 -66t-40.5 -127z" />
    <glyph glyph-name="sterling" unicode="&#xa3;" horiz-adv-x="553" 
d="M377 704q34 0 69 -6t71 -23v-71h-8q-35 17 -64 23.5t-54 6.5q-40 0 -72 -9t-54 -33t-33.5 -66.5t-11.5 -110.5v-35h178v-62h-178v-21q-2 -85 -11.5 -142t-38.5 -86h318v-69h-430v40q45 32 63.5 91.5t18.5 156.5v30h-102v62h102v39q0 83 16 138t46.5 87.5t74.5 46
t100 13.5z" />
    <glyph glyph-name="currency" unicode="&#xa4;" horiz-adv-x="638" 
d="M538 351q0 -38 -10.5 -71.5t-30.5 -61.5l86 -86l-44 -45l-86 86q-56 -45 -135 -45q-38 0 -72.5 11.5t-61.5 32.5l-84 -85l-45 45l85 84q-42 58 -42 135q0 39 11.5 73t31.5 62l-85 85l43 43l86 -86q56 42 133 42t135 -42l86 86l44 -43l-87 -87q42 -56 42 -133zM318 187
q35 0 64 12.5t50.5 35t33.5 52.5t12 64t-11.5 63.5t-32.5 51t-50.5 34t-65.5 12.5t-65.5 -12.5t-50.5 -34t-32.5 -51t-11.5 -63.5t11.5 -64t32.5 -52t50.5 -35t65.5 -13z" />
    <glyph glyph-name="yen" unicode="&#xa5;" horiz-adv-x="645" 
d="M382 301h144v-43h-165v-98h165v-42h-165v-118h-77v118h-166v42h166v98h-166v43h145l-237 388h83l210 -345h6l212 345h82z" />
    <glyph glyph-name="brokenbar" unicode="&#xa6;" horiz-adv-x="259" 
d="M94 720h71v-388h-71v388zM94 169h71v-388h-71v388z" />
    <glyph glyph-name="section" unicode="&#xa7;" horiz-adv-x="572" 
d="M457 159q29 -22 46.5 -53t17.5 -77q0 -76 -60.5 -121t-166.5 -45q-65 0 -126 15t-108 41v64h8q45 -26 103.5 -42.5t117.5 -16.5q80 0 119 31.5t39 75.5q0 34 -14 55t-39 35t-57.5 25t-70.5 24q-54 18 -95 36.5t-68.5 41t-41 50t-13.5 64.5q0 46 21.5 77t51.5 53
q-29 21 -43.5 49t-14.5 70q0 32 12.5 60.5t38.5 50.5t66 34.5t96 12.5q64 0 118.5 -12t95.5 -34v-64h-8q-38 21 -90 36t-103 14q-74 0 -113 -26t-39 -74q0 -31 13.5 -51.5t39 -36t62.5 -28t83 -28.5q37 -13 70.5 -27.5t59 -35t40.5 -49.5t15 -71t-18 -71.5t-45 -51.5z
M115 371q0 -27 10 -46.5t31.5 -36t56.5 -31t85 -29.5q29 -9 56.5 -19t52.5 -21q20 18 32.5 40t12.5 52q0 29 -11 49t-30.5 34t-46 24.5t-56.5 20.5q-42 15 -77 28t-63 27q-20 -12 -36.5 -35t-16.5 -57z" />
    <glyph glyph-name="dieresis" unicode="&#xa8;" horiz-adv-x="560" 
d="M172 584q-22 0 -37.5 15.5t-15.5 37.5q0 23 15.5 38.5t37.5 15.5t38 -15.5t16 -38.5q0 -22 -16 -37.5t-38 -15.5zM389 584q-22 0 -37.5 15.5t-15.5 37.5q0 23 15.5 38.5t37.5 15.5q23 0 38.5 -15.5t15.5 -38.5q0 -22 -15.5 -37.5t-38.5 -15.5z" />
    <glyph glyph-name="copyright" unicode="&#xa9;" horiz-adv-x="855" 
d="M427 -20q-76 0 -143.5 28.5t-118 78t-80 116.5t-29.5 143q0 77 29.5 144t80.5 116.5t118.5 78t143.5 28.5t143.5 -28.5t118 -78t80 -116.5t29.5 -143t-29.5 -143.5t-80 -117t-118.5 -78t-144 -28.5zM427 28q66 0 124 24t101.5 67t68.5 101t25 126t-25 126t-68.5 101
t-101.5 67.5t-124 24.5q-65 0 -123 -24.5t-101.5 -67.5t-68.5 -101t-25 -126t25 -126t68.5 -101t101 -67t123.5 -24zM443 147q-47 0 -84.5 15.5t-64 42.5t-40.5 63.5t-14 78.5q0 43 14 79.5t40 63.5t63 42.5t83 15.5q35 0 67 -8.5t55 -23.5v-56h-7q-20 14 -50 23.5t-62 9.5
q-66 0 -103 -41.5t-37 -104.5q0 -30 9.5 -56t27.5 -45.5t44.5 -31t61.5 -11.5q31 0 60 9t49 23h7v-55q-49 -33 -119 -33z" />
    <glyph glyph-name="ordfeminine" unicode="&#xaa;" horiz-adv-x="526" 
d="M243 317q-44 0 -81.5 15.5t-64.5 42.5t-42 64t-15 80q0 44 15 81.5t42 65t64 43t81 15.5q59 0 100 -27t57 -62h5l6 76h47v-381h-47l-6 75h-5q-8 -16 -22.5 -32t-34.5 -28.5t-45 -20t-54 -7.5zM248 373q34 0 61 12.5t46.5 33.5t30 47.5t10.5 54.5t-10.5 54.5t-30 47
t-47 33t-61.5 12.5q-31 0 -58 -10.5t-46.5 -29.5t-30.5 -46t-11 -61t11.5 -61.5t31.5 -46.5t46.5 -29.5t57.5 -10.5z" />
    <glyph glyph-name="guillemotleft" unicode="&#xab;" horiz-adv-x="544" 
d="M49 275l184 206l46 -40l-141 -163v-7l141 -162l-46 -40zM251 275l184 206l46 -40l-141 -163v-7l141 -162l-46 -40z" />
    <glyph glyph-name="registered" unicode="&#xae;" horiz-adv-x="855" 
d="M428 713q76 0 143.5 -28.5t118 -78t80 -116.5t29.5 -143t-29.5 -143.5t-80 -117t-118.5 -78t-144 -28.5t-143.5 28.5t-118 78t-80 116.5t-29.5 143q0 77 29.5 144t80.5 116.5t118.5 78t143.5 28.5zM746 346q0 68 -25 126t-68.5 101t-101.5 67.5t-124 24.5
q-65 0 -123 -24.5t-101.5 -67.5t-68.5 -101t-25 -126t25 -126t68.5 -101t101 -67t123.5 -24t124 24t101.5 67t68.5 101t25 126zM582 422q0 -45 -27 -73t-69 -32l111 -157h-67l-105 150h-67v-150h-57v374h152q62 0 95.5 -30t33.5 -82zM454 357q29 0 49 15.5t20 48.5
q0 29 -17.5 46.5t-53.5 17.5h-94v-128h96z" />
    <glyph glyph-name="macron" unicode="&#xaf;" horiz-adv-x="600" 
d="M89 635h355v-56h-355v56z" />
    <glyph glyph-name="degree" unicode="&#xb0;" horiz-adv-x="429" 
d="M215 389q-37 0 -69 13.5t-55.5 36.5t-37 54t-13.5 67q0 35 13.5 65.5t37.5 53.5t56 36.5t68 13.5t67.5 -13.5t55.5 -36.5t37.5 -53.5t13.5 -65.5q0 -36 -13.5 -67t-37 -54t-55.5 -36.5t-68 -13.5zM215 440q25 0 46.5 9.5t37.5 25.5t25.5 38t9.5 47t-9.5 46.5t-25.5 37.5
t-38 25t-46 9q-25 0 -46.5 -9t-38 -25t-26 -37.5t-9.5 -46.5t9.5 -47t26 -38t38 -25.5t46.5 -9.5z" />
    <glyph glyph-name="plusminus" unicode="&#xb1;" horiz-adv-x="542" 
d="M237 390h-165v63h165v116h69v-116h165v-63h-165v-117h-69v117zM72 180h396v-63h-396v63z" />
    <glyph glyph-name="acute" unicode="&#xb4;" horiz-adv-x="412" 
d="M217 743h73l-137 -194h-65z" />
    <glyph glyph-name="paragraph" unicode="&#xb6;" horiz-adv-x="696" 
d="M593 -130h-65v782h-169v-782h-69v362q-54 0 -100 18.5t-80.5 50.5t-54 76t-19.5 96q0 57 20 102.5t54.5 77.5t80.5 49.5t99 17.5h303v-850z" />
    <glyph glyph-name="periodcentered" unicode="&#xb7;" horiz-adv-x="238" 
d="M118 189q-24 0 -41 17.5t-17 41.5q0 25 17.5 42t40.5 17q25 0 42.5 -17.5t17.5 -41.5t-17.5 -41.5t-42.5 -17.5z" />
    <glyph glyph-name="cedilla" unicode="&#xb8;" horiz-adv-x="600" 
d="M186 -258q-22 0 -39 3t-30 7q-14 4 -25 10l14 46q3 -2 21 -9t52 -7q35 0 56.5 15t21.5 46q0 21 -12 33.5t-28.5 18.5t-34 7.5t-29.5 1.5l26 86h50l-16 -55l16.5 -3t35.5 -12.5t35 -29t16 -52.5q0 -52 -35 -79t-95 -27z" />
    <glyph glyph-name="ordmasculine" unicode="&#xba;" horiz-adv-x="518" 
d="M259 317q-46 0 -86.5 16t-70.5 43.5t-47 64.5t-17 80q0 42 17.5 79t47.5 64.5t70.5 43.5t85.5 16q46 0 86 -16t70 -43.5t47.5 -64.5t17.5 -79q0 -43 -17 -80t-47 -64.5t-70.5 -43.5t-86.5 -16zM259 374q33 0 62 11.5t50.5 31t34 46.5t12.5 58q0 30 -12.5 57t-34 46.5
t-50.5 31t-62 11.5t-62 -11.5t-50.5 -31t-34 -46.5t-12.5 -57q0 -31 12.5 -58t34 -46.5t50.5 -31t62 -11.5z" />
    <glyph glyph-name="guillemotright" unicode="&#xbb;" horiz-adv-x="544" 
d="M63 109l141 162v7l-141 163l46 40l183 -206l-183 -206zM265 109l141 162v7l-141 163l46 40l184 -206l-184 -206z" />
    <glyph glyph-name="onequarter" unicode="&#xbc;" horiz-adv-x="852" 
d="M133 313v327l-104 -48v64l134 64h36v-407h-66zM592 720l-329 -720h-68l329 720h68zM825 78h-55v-78h-59v78h-222v29l123 300h62l-111 -270h151l16 130h40v-130h55v-59z" />
    <glyph glyph-name="onehalf" unicode="&#xbd;" horiz-adv-x="859" 
d="M133 640l-104 -48v64l134 64h36v-407h-66v327zM524 720h68l-329 -720h-68zM526 38l91 75q25 20 48 39.5t40 40t27.5 42.5t10.5 47q0 40 -23 59t-65 19q-31 0 -60.5 -12.5t-56.5 -35.5h-7v59q29 25 65.5 36t72.5 11q61 0 100.5 -30.5t39.5 -94.5q0 -29 -10.5 -53.5
t-28 -47t-39.5 -43.5t-46 -42l-54 -44v-5l184 1v-59h-289v38z" />
    <glyph glyph-name="threequarters" unicode="&#xbe;" horiz-adv-x="916" 
d="M306 424q0 -63 -41.5 -92.5t-110.5 -29.5q-26 0 -53.5 5t-56.5 14v56h7q22 -9 46 -14.5t48 -5.5q18 0 35 3t31 11t22.5 22t8.5 37q0 20 -8.5 33t-21.5 20.5t-29 11t-32 3.5h-47v45h43q12 0 27.5 3t29.5 11t23.5 21.5t9.5 34.5q0 38 -27 50t-65 12q-21 0 -42.5 -5
t-46.5 -16h-7v56q29 11 54.5 15.5t48.5 4.5q69 0 108 -25.5t39 -81.5q0 -41 -23.5 -65t-52.5 -32v-3q14 -2 29 -9.5t27 -20t19.5 -30t7.5 -39.5zM655 720l-328 -720h-68l328 720h68zM888 78h-54v-78h-60v78h-222v29l124 300h61l-110 -270h150l16 130h41v-130h54v-59z" />
    <glyph glyph-name="questiondown" unicode="&#xbf;" horiz-adv-x="488" 
d="M284 513q23 0 40 -17t17 -40q0 -24 -17 -40.5t-40 -16.5t-40 17t-17 40t17 40t40 17zM324 112h-32q-40 0 -73.5 -8t-58 -24.5t-38 -42t-13.5 -61.5q0 -50 36.5 -83t115.5 -33q49 0 98.5 14t91.5 38h8v-71q-44 -23 -96 -36.5t-112 -13.5q-48 0 -87.5 11t-68 33.5t-44.5 55
t-16 76.5q0 50 18.5 85.5t48 58t67 33.5t75.5 12v109h81z" />
    <glyph glyph-name="Agrave" unicode="&#xc0;" horiz-adv-x="673" 
d="M310 759l-137 194h72l129 -194h-64zM528 126h-383l-55 -126h-81l308 689h39l308 -689h-81zM502 186l-163 373h-6l-162 -373h331z" />
    <glyph glyph-name="Aacute" unicode="&#xc1;" horiz-adv-x="673" 
d="M369 758h-64l129 195h72zM528 126h-383l-55 -126h-81l308 689h39l308 -689h-81zM502 186l-163 373h-6l-162 -373h331z" />
    <glyph glyph-name="Acircumflex" unicode="&#xc2;" horiz-adv-x="673" 
d="M233 760h-66l139 192h60l139 -192h-65l-100 136h-6zM528 126h-383l-55 -126h-81l308 689h39l308 -689h-81zM502 186l-163 373h-6l-162 -373h331z" />
    <glyph glyph-name="Atilde" unicode="&#xc3;" horiz-adv-x="673" 
d="M258 859q-31 0 -40.5 -20t-10.5 -48h-54q0 54 26.5 90t77.5 36q30 0 51 -12t39 -27t36 -27t42 -12q30 0 39 18t10 41h55q0 -54 -25 -85.5t-79 -31.5q-30 0 -51 12t-39 27t-36 27t-41 12zM528 126h-383l-55 -126h-81l308 689h39l308 -689h-81zM502 186l-163 373h-6
l-162 -373h331z" />
    <glyph glyph-name="Adieresis" unicode="&#xc4;" horiz-adv-x="673" 
d="M229 797q-23 0 -38.5 15.5t-15.5 37.5q0 23 15.5 38.5t38.5 15.5q22 0 37.5 -15.5t15.5 -38.5q0 -22 -15.5 -37.5t-37.5 -15.5zM446 797q-22 0 -37.5 15.5t-15.5 37.5q0 23 15.5 38.5t37.5 15.5q23 0 38.5 -15.5t15.5 -38.5q0 -22 -15.5 -37.5t-38.5 -15.5zM528 126h-383
l-55 -126h-81l308 689h39l308 -689h-81zM502 186l-163 373h-6l-162 -373h331z" />
    <glyph glyph-name="Aring" unicode="&#xc5;" horiz-adv-x="673" 
d="M338 756q-45 0 -75 29.5t-30 72.5q0 42 30 71t75 29t74.5 -29t29.5 -71q0 -43 -29.5 -72.5t-74.5 -29.5zM338 914q-23 0 -39.5 -16t-16.5 -40q0 -25 16 -41t40 -16q23 0 39.5 16t16.5 41q0 24 -16.5 40t-39.5 16zM528 126h-383l-55 -126h-81l308 689h39l308 -689h-81z
M502 186l-163 373h-6l-162 -373h331z" />
    <glyph glyph-name="AE" unicode="&#xc6;" horiz-adv-x="883" 
d="M494 627v-250h307v-60h-307v-255h344v-62h-421v193h-236l-111 -193h-81l397 689h452v-62h-344zM417 253v331h-11l-190 -331h201z" />
    <glyph glyph-name="Ccedilla" unicode="&#xc7;" horiz-adv-x="662" 
d="M428 635q-64 0 -119 -20.5t-95.5 -58.5t-63.5 -91.5t-23 -119.5t23 -119.5t63.5 -91.5t95.5 -58.5t119 -20.5q57 0 104.5 12t88.5 35h8v-72q-41 -22 -88.5 -32.5t-106.5 -12.5l-12 -40l16.5 -2.5t36 -12.5t35.5 -29.5t16 -52.5q0 -52 -35.5 -79t-95.5 -27q-22 0 -39 3
t-29 7q-15 4 -26 10l14 47q3 -2 21 -9t52 -7q35 0 56.5 15t21.5 45q0 21 -12 33.5t-28.5 19t-34 8t-29.5 1.5l22 71q-72 6 -133.5 34t-106.5 74.5t-71 110.5t-26 140q0 81 28.5 147t78.5 113.5t117.5 73.5t144.5 26q65 0 117 -11t96 -33v-72h-8q-41 22 -89 34t-104 12z" />
    <glyph glyph-name="Egrave" unicode="&#xc8;" horiz-adv-x="558" 
d="M147 953h73l129 -194h-64zM93 689h421v-62h-344v-250h307v-60h-307v-255h344v-62h-421v689z" />
    <glyph glyph-name="Eacute" unicode="&#xc9;" horiz-adv-x="558" 
d="M408 953h73l-137 -195h-65zM93 689h421v-62h-344v-250h307v-60h-307v-255h344v-62h-421v689z" />
    <glyph glyph-name="Ecircumflex" unicode="&#xca;" horiz-adv-x="558" 
d="M281 952h59l140 -192h-66l-99 136h-7l-100 -136h-66zM93 689h421v-62h-344v-250h307v-60h-307v-255h344v-62h-421v689z" />
    <glyph glyph-name="Edieresis" unicode="&#xcb;" horiz-adv-x="558" 
d="M203 797q-22 0 -37.5 15.5t-15.5 37.5q0 23 15.5 38.5t37.5 15.5q23 0 38.5 -15.5t15.5 -38.5q0 -22 -15.5 -37.5t-38.5 -15.5zM421 797q-23 0 -38.5 15.5t-15.5 37.5q0 23 15.5 38.5t38.5 15.5q22 0 37.5 -15.5t15.5 -38.5q0 -22 -15.5 -37.5t-37.5 -15.5zM93 689h421
v-62h-344v-250h307v-60h-307v-255h344v-62h-421v689z" />
    <glyph glyph-name="Igrave" unicode="&#xcc;" horiz-adv-x="263" 
d="M-33 953h73l129 -194h-65zM93 689h77v-689h-77v689z" />
    <glyph glyph-name="Iacute" unicode="&#xcd;" horiz-adv-x="263" 
d="M228 953h73l-138 -195h-64zM93 689h77v-689h-77v689z" />
    <glyph glyph-name="Icircumflex" unicode="&#xce;" horiz-adv-x="263" 
d="M100 952h60l140 -192h-66l-100 136h-6l-101 -136h-66zM93 689h77v-689h-77v689z" />
    <glyph glyph-name="Idieresis" unicode="&#xcf;" horiz-adv-x="263" 
d="M23 797q-22 0 -37.5 15.5t-15.5 37.5q0 23 15.5 38.5t37.5 15.5t38 -15.5t16 -38.5q0 -22 -16 -37.5t-38 -15.5zM240 797q-22 0 -37.5 15.5t-15.5 37.5q0 23 15.5 38.5t37.5 15.5q23 0 38.5 -15.5t15.5 -38.5q0 -22 -15.5 -37.5t-38.5 -15.5zM93 689h77v-689h-77v689z
" />
    <glyph glyph-name="Eth" unicode="&#xd0;" horiz-adv-x="743" 
d="M336 689q77 0 143 -24t114 -68.5t75 -108t27 -143.5t-27 -144t-75 -108.5t-114 -68.5t-143 -24h-231v329h-78v56h78v304h231zM337 72q60 0 111 19t88 54t58 86t21 114q0 60 -20 110t-56 86t-87.5 56t-114.5 20h-155v-232h176v-56h-176v-257h155z" />
    <glyph glyph-name="Ntilde" unicode="&#xd1;" horiz-adv-x="759" 
d="M464 781q-30 0 -51 12t-39 27t-36 27t-41 12q-31 0 -40 -20t-10 -48h-54q0 54 26 90t78 36q29 0 50 -12t39 -27t36 -27t42 -12q30 0 39.5 18t9.5 41h55q0 -54 -25 -85.5t-79 -31.5zM590 144v545h76v-689h-46l-446 541h-5v-541h-76v689h46l446 -545h5z" />
    <glyph glyph-name="Ograve" unicode="&#xd2;" horiz-adv-x="821" 
d="M247 968h72l129 -194h-64zM411 -15q-79 0 -145.5 27.5t-115.5 76.5t-76.5 115t-27.5 142t27.5 141.5t76 113.5t115.5 75.5t146 27.5t145.5 -27.5t115 -75.5t76 -113.5t27.5 -141.5t-27.5 -142t-76 -115t-115 -76.5t-145.5 -27.5zM411 55q61 0 113 22.5t89.5 62t59 92.5
t21.5 114q0 60 -21.5 112.5t-59 91.5t-89.5 61.5t-113 22.5t-113 -22.5t-90 -61.5t-59.5 -91.5t-21.5 -112.5q0 -61 21.5 -114t59.5 -92.5t90 -62t113 -22.5z" />
    <glyph glyph-name="Oacute" unicode="&#xd3;" horiz-adv-x="821" 
d="M508 968h72l-137 -195h-65zM411 -15q-79 0 -145.5 27.5t-115.5 76.5t-76.5 115t-27.5 142t27.5 141.5t76 113.5t115.5 75.5t146 27.5t145.5 -27.5t115 -75.5t76 -113.5t27.5 -141.5t-27.5 -142t-76 -115t-115 -76.5t-145.5 -27.5zM411 55q61 0 113 22.5t89.5 62t59 92.5
t21.5 114q0 60 -21.5 112.5t-59 91.5t-89.5 61.5t-113 22.5t-113 -22.5t-90 -61.5t-59.5 -91.5t-21.5 -112.5q0 -61 21.5 -114t59.5 -92.5t90 -62t113 -22.5z" />
    <glyph glyph-name="Ocircumflex" unicode="&#xd4;" horiz-adv-x="821" 
d="M380 967h60l139 -192h-66l-99 136h-7l-100 -136h-66zM411 -15q-79 0 -145.5 27.5t-115.5 76.5t-76.5 115t-27.5 142t27.5 141.5t76 113.5t115.5 75.5t146 27.5t145.5 -27.5t115 -75.5t76 -113.5t27.5 -141.5t-27.5 -142t-76 -115t-115 -76.5t-145.5 -27.5zM411 55
q61 0 113 22.5t89.5 62t59 92.5t21.5 114q0 60 -21.5 112.5t-59 91.5t-89.5 61.5t-113 22.5t-113 -22.5t-90 -61.5t-59.5 -91.5t-21.5 -112.5q0 -61 21.5 -114t59.5 -92.5t90 -62t113 -22.5z" />
    <glyph glyph-name="Otilde" unicode="&#xd5;" horiz-adv-x="821" 
d="M506 796q-30 0 -51 12t-39.5 27t-36.5 27t-41 12q-31 0 -40 -20t-10 -48h-54q0 54 26 90t78 36q29 0 50 -12t39.5 -27t36.5 -27t41 -12q30 0 39.5 18t9.5 41h55q0 -54 -25 -85.5t-78 -31.5zM411 -15q-79 0 -145.5 27.5t-115.5 76.5t-76.5 115t-27.5 142t27.5 141.5
t76 113.5t115.5 75.5t146 27.5t145.5 -27.5t115 -75.5t76 -113.5t27.5 -141.5t-27.5 -142t-76 -115t-115 -76.5t-145.5 -27.5zM411 55q61 0 113 22.5t89.5 62t59 92.5t21.5 114q0 60 -21.5 112.5t-59 91.5t-89.5 61.5t-113 22.5t-113 -22.5t-90 -61.5t-59.5 -91.5
t-21.5 -112.5q0 -61 21.5 -114t59.5 -92.5t90 -62t113 -22.5z" />
    <glyph glyph-name="Odieresis" unicode="&#xd6;" horiz-adv-x="821" 
d="M302 812q-22 0 -37.5 15.5t-15.5 37.5q0 23 15.5 38.5t37.5 15.5q23 0 38.5 -15.5t15.5 -38.5q0 -22 -15.5 -37.5t-38.5 -15.5zM520 812q-22 0 -37.5 15.5t-15.5 37.5q0 23 15.5 38.5t37.5 15.5t38 -15.5t16 -38.5q0 -22 -16 -37.5t-38 -15.5zM411 -15q-79 0 -145.5 27.5
t-115.5 76.5t-76.5 115t-27.5 142t27.5 141.5t76 113.5t115.5 75.5t146 27.5t145.5 -27.5t115 -75.5t76 -113.5t27.5 -141.5t-27.5 -142t-76 -115t-115 -76.5t-145.5 -27.5zM411 55q61 0 113 22.5t89.5 62t59 92.5t21.5 114q0 60 -21.5 112.5t-59 91.5t-89.5 61.5t-113 22.5
t-113 -22.5t-90 -61.5t-59.5 -91.5t-21.5 -112.5q0 -61 21.5 -114t59.5 -92.5t90 -62t113 -22.5z" />
    <glyph glyph-name="multiply" unicode="&#xd7;" horiz-adv-x="487" 
d="M245 296l-140 -140l-49 49l140 139l-143 143l46 46l142 -143l141 140l48 -49l-140 -140l143 -142l-46 -46z" />
    <glyph glyph-name="Oslash" unicode="&#xd8;" horiz-adv-x="834" 
d="M698 580q40 -48 62 -107t22 -127q0 -76 -27.5 -142t-76 -115t-115.5 -76.5t-146 -27.5q-70 0 -130.5 22t-107.5 61l-84 -82l-43 52l79 78q-38 47 -58.5 105t-20.5 125q0 76 27.5 141.5t76.5 113.5t115.5 75.5t145.5 27.5q69 0 128 -20.5t106 -58.5l102 100l41 -51z
M133 346q0 -50 14.5 -94t40.5 -81l408 401q-36 29 -81 45.5t-98 16.5q-61 0 -113 -22.5t-90 -61.5t-59.5 -91.5t-21.5 -112.5zM701 346q0 51 -15.5 96.5t-43.5 81.5l-409 -402q37 -32 83.5 -49.5t100.5 -17.5q61 0 113 22.5t90 62t59.5 92.5t21.5 114z" />
    <glyph glyph-name="Ugrave" unicode="&#xd9;" horiz-adv-x="759" 
d="M216 943h73l129 -195h-65zM378 -15q-72 0 -127.5 21t-92.5 60.5t-56 96t-19 126.5v400h77v-397q0 -48 11.5 -91.5t37.5 -75.5t68 -51t102 -19q61 0 103 19t68 51t37.5 75.5t11.5 91.5v397h77v-400q0 -70 -19.5 -126.5t-57 -96t-93.5 -60.5t-128 -21z" />
    <glyph glyph-name="Uacute" unicode="&#xda;" horiz-adv-x="759" 
d="M477 943h72l-137 -195h-64zM378 -15q-72 0 -127.5 21t-92.5 60.5t-56 96t-19 126.5v400h77v-397q0 -48 11.5 -91.5t37.5 -75.5t68 -51t102 -19q61 0 103 19t68 51t37.5 75.5t11.5 91.5v397h77v-400q0 -70 -19.5 -126.5t-57 -96t-93.5 -60.5t-128 -21z" />
    <glyph glyph-name="Ucircumflex" unicode="&#xdb;" horiz-adv-x="759" 
d="M349 941h60l140 -192h-66l-100 136h-6l-101 -136h-66zM378 -15q-72 0 -127.5 21t-92.5 60.5t-56 96t-19 126.5v400h77v-397q0 -48 11.5 -91.5t37.5 -75.5t68 -51t102 -19q61 0 103 19t68 51t37.5 75.5t11.5 91.5v397h77v-400q0 -70 -19.5 -126.5t-57 -96t-93.5 -60.5
t-128 -21z" />
    <glyph glyph-name="Udieresis" unicode="&#xdc;" horiz-adv-x="759" 
d="M272 786q-22 0 -37.5 15.5t-15.5 37.5q0 23 15.5 38.5t37.5 15.5t38 -15.5t16 -38.5q0 -22 -16 -37.5t-38 -15.5zM489 786q-22 0 -37.5 15.5t-15.5 37.5q0 23 15.5 38.5t37.5 15.5q23 0 38.5 -15.5t15.5 -38.5q0 -22 -15.5 -37.5t-38.5 -15.5zM378 -15q-72 0 -127.5 21
t-92.5 60.5t-56 96t-19 126.5v400h77v-397q0 -48 11.5 -91.5t37.5 -75.5t68 -51t102 -19q61 0 103 19t68 51t37.5 75.5t11.5 91.5v397h77v-400q0 -70 -19.5 -126.5t-57 -96t-93.5 -60.5t-128 -21z" />
    <glyph glyph-name="Yacute" unicode="&#xdd;" horiz-adv-x="625" 
d="M410 952h72l-137 -194h-64zM274 267l-258 422h83l210 -345h6l212 345h83l-259 -422v-267h-77v267z" />
    <glyph glyph-name="Thorn" unicode="&#xde;" horiz-adv-x="607" 
d="M321 565q58 0 103.5 -16t76.5 -44.5t47.5 -69t16.5 -89.5q0 -109 -63.5 -166t-180.5 -57h-152v-123h-76v689h76v-124h152zM326 189q80 0 121.5 43t41.5 112q0 31 -10.5 59t-31 49.5t-51 34t-70.5 12.5h-157v-310h157z" />
    <glyph glyph-name="germandbls" unicode="&#xdf;" horiz-adv-x="620" 
d="M353 -15q-26 0 -50.5 2.5t-56.5 12.5v65h8q25 -9 45.5 -12.5t43.5 -3.5q77 0 118 39t41 111q0 30 -10 57t-29 47.5t-46 32t-62 11.5h-15v58q61 0 92.5 31t31.5 84q0 60 -39 88t-102 28q-36 0 -67 -11t-54.5 -33t-36.5 -55.5t-13 -79.5v-457h-72v463q0 63 20 108.5
t53.5 75t77 43.5t91.5 14q104 0 161 -46t57 -127q0 -30 -8 -53t-20.5 -40t-29 -28.5t-33.5 -19.5v-5q21 -7 44 -22t41.5 -38t31 -54.5t12.5 -73.5q0 -47 -13 -86t-41 -67t-70 -43.5t-101 -15.5z" />
    <glyph glyph-name="agrave" unicode="&#xe0;" horiz-adv-x="666" 
d="M170 777h72l130 -195h-65zM301 -16q-56 0 -103.5 19.5t-82 55t-54 83.5t-19.5 105t19.5 106t54 84t81.5 55t103 20q40 0 73 -10t58.5 -26.5t43.5 -37t28 -41.5h6l8 99h55v-355q0 -19 0.5 -35t3.5 -27.5t10.5 -17.5t22.5 -6q5 0 10 1t10 3h9v-65q-22 -9 -45 -9
q-29 0 -45.5 9t-24.5 25t-10 37.5t-4 46.5h-6q-10 -22 -29 -43.5t-44.5 -38t-58 -27t-70.5 -10.5zM307 51q44 0 79.5 17t61 45t39.5 63.5t14 72.5q0 38 -14 73.5t-40 62.5t-61.5 43.5t-79.5 16.5q-40 0 -75 -14t-60.5 -40t-40.5 -62t-15 -80t15 -80.5t41 -62.5t61 -40.5
t75 -14.5z" />
    <glyph glyph-name="aacute" unicode="&#xe1;" horiz-adv-x="666" 
d="M403 777h73l-137 -195h-65zM301 -16q-56 0 -103.5 19.5t-82 55t-54 83.5t-19.5 105t19.5 106t54 84t81.5 55t103 20q40 0 73 -10t58.5 -26.5t43.5 -37t28 -41.5h6l8 99h55v-355q0 -19 0.5 -35t3.5 -27.5t10.5 -17.5t22.5 -6q5 0 10 1t10 3h9v-65q-22 -9 -45 -9
q-29 0 -45.5 9t-24.5 25t-10 37.5t-4 46.5h-6q-10 -22 -29 -43.5t-44.5 -38t-58 -27t-70.5 -10.5zM307 51q44 0 79.5 17t61 45t39.5 63.5t14 72.5q0 38 -14 73.5t-40 62.5t-61.5 43.5t-79.5 16.5q-40 0 -75 -14t-60.5 -40t-40.5 -62t-15 -80t15 -80.5t41 -62.5t61 -40.5
t75 -14.5z" />
    <glyph glyph-name="acircumflex" unicode="&#xe2;" horiz-adv-x="666" 
d="M276 775h59l140 -192h-66l-99 136h-7l-100 -136h-66zM301 -16q-56 0 -103.5 19.5t-82 55t-54 83.5t-19.5 105t19.5 106t54 84t81.5 55t103 20q40 0 73 -10t58.5 -26.5t43.5 -37t28 -41.5h6l8 99h55v-355q0 -19 0.5 -35t3.5 -27.5t10.5 -17.5t22.5 -6q5 0 10 1t10 3h9v-65
q-22 -9 -45 -9q-29 0 -45.5 9t-24.5 25t-10 37.5t-4 46.5h-6q-10 -22 -29 -43.5t-44.5 -38t-58 -27t-70.5 -10.5zM307 51q44 0 79.5 17t61 45t39.5 63.5t14 72.5q0 38 -14 73.5t-40 62.5t-61.5 43.5t-79.5 16.5q-40 0 -75 -14t-60.5 -40t-40.5 -62t-15 -80t15 -80.5
t41 -62.5t61 -40.5t75 -14.5z" />
    <glyph glyph-name="atilde" unicode="&#xe3;" horiz-adv-x="666" 
d="M401 605q-30 0 -51 12t-39 27t-36 27t-41 12q-31 0 -40 -20.5t-10 -48.5h-54q0 54 26 90t78 36q29 0 50 -12t39 -27t36 -27t42 -12q30 0 39.5 18t9.5 42h55q0 -55 -25 -86t-79 -31zM301 -16q-56 0 -103.5 19.5t-82 55t-54 83.5t-19.5 105t19.5 106t54 84t81.5 55t103 20
q40 0 73 -10t58.5 -26.5t43.5 -37t28 -41.5h6l8 99h55v-355q0 -19 0.5 -35t3.5 -27.5t10.5 -17.5t22.5 -6q5 0 10 1t10 3h9v-65q-22 -9 -45 -9q-29 0 -45.5 9t-24.5 25t-10 37.5t-4 46.5h-6q-10 -22 -29 -43.5t-44.5 -38t-58 -27t-70.5 -10.5zM307 51q44 0 79.5 17t61 45
t39.5 63.5t14 72.5q0 38 -14 73.5t-40 62.5t-61.5 43.5t-79.5 16.5q-40 0 -75 -14t-60.5 -40t-40.5 -62t-15 -80t15 -80.5t41 -62.5t61 -40.5t75 -14.5z" />
    <glyph glyph-name="adieresis" unicode="&#xe4;" horiz-adv-x="666" 
d="M198 620q-22 0 -37.5 15.5t-15.5 37.5q0 23 15.5 38.5t37.5 15.5q23 0 38.5 -15.5t15.5 -38.5q0 -22 -15.5 -37.5t-38.5 -15.5zM416 620q-22 0 -38 15.5t-16 37.5q0 23 16 38.5t38 15.5t37.5 -15.5t15.5 -38.5q0 -22 -15.5 -37.5t-37.5 -15.5zM301 -16q-56 0 -103.5 19.5
t-82 55t-54 83.5t-19.5 105t19.5 106t54 84t81.5 55t103 20q40 0 73 -10t58.5 -26.5t43.5 -37t28 -41.5h6l8 99h55v-355q0 -19 0.5 -35t3.5 -27.5t10.5 -17.5t22.5 -6q5 0 10 1t10 3h9v-65q-22 -9 -45 -9q-29 0 -45.5 9t-24.5 25t-10 37.5t-4 46.5h-6q-10 -22 -29 -43.5
t-44.5 -38t-58 -27t-70.5 -10.5zM307 51q44 0 79.5 17t61 45t39.5 63.5t14 72.5q0 38 -14 73.5t-40 62.5t-61.5 43.5t-79.5 16.5q-40 0 -75 -14t-60.5 -40t-40.5 -62t-15 -80t15 -80.5t41 -62.5t61 -40.5t75 -14.5z" />
    <glyph glyph-name="aring" unicode="&#xe5;" horiz-adv-x="666" 
d="M308 580q-45 0 -75 29.5t-30 71.5t30 71.5t75 29.5t74.5 -29.5t29.5 -71.5t-29.5 -71.5t-74.5 -29.5zM308 624q23 0 39 16.5t16 40.5q0 25 -16 40.5t-39 15.5t-40 -15.5t-17 -40.5t16.5 -41t40.5 -16zM301 -16q-56 0 -103.5 19.5t-82 55t-54 83.5t-19.5 105t19.5 106
t54 84t81.5 55t103 20q40 0 73 -10t58.5 -26.5t43.5 -37t28 -41.5h6l8 99h55v-355q0 -19 0.5 -35t3.5 -27.5t10.5 -17.5t22.5 -6q5 0 10 1t10 3h9v-65q-22 -9 -45 -9q-29 0 -45.5 9t-24.5 25t-10 37.5t-4 46.5h-6q-10 -22 -29 -43.5t-44.5 -38t-58 -27t-70.5 -10.5zM307 51
q44 0 79.5 17t61 45t39.5 63.5t14 72.5q0 38 -14 73.5t-40 62.5t-61.5 43.5t-79.5 16.5q-40 0 -75 -14t-60.5 -40t-40.5 -62t-15 -80t15 -80.5t41 -62.5t61 -40.5t75 -14.5z" />
    <glyph glyph-name="ae" unicode="&#xe6;" horiz-adv-x="1036" 
d="M997 283q0 -14 -1 -27t-5 -27h-412q3 -48 22 -83t48 -57.5t65 -33t74 -10.5q46 0 85 10.5t84 34.5h8v-57q-43 -26 -84 -37.5t-88 -11.5q-73 0 -131 30t-90 88v-102h-54l-9 103h-6q-10 -22 -29 -43.5t-44.5 -38t-58 -27t-70.5 -10.5q-56 0 -103.5 19.5t-82 55t-54 83.5
t-19.5 105t19.5 106t54 84t81.5 55t103 20q38 0 70.5 -10.5t59 -27t45.5 -37.5t29 -43h6l8 102h54v-101q32 57 85 87t114 30q48 0 89.5 -15.5t72 -45t47.5 -72t17 -96.5zM932 297q-1 33 -12.5 62t-32.5 50t-51 33t-69 12q-32 0 -63.5 -10.5t-57.5 -32t-43.5 -54.5t-22.5 -77
h352v17zM307 51q44 0 79.5 17t61 45t39.5 63.5t14 72.5q0 38 -14 73.5t-40 62.5t-61.5 43.5t-79.5 16.5q-40 0 -75 -14t-60.5 -40t-40.5 -62t-15 -80t15 -80.5t41 -62.5t61 -40.5t75 -14.5z" />
    <glyph glyph-name="ccedilla" unicode="&#xe7;" horiz-adv-x="496" 
d="M310 444q-42 0 -77.5 -14.5t-61 -41t-39.5 -62.5t-14 -79q0 -41 13.5 -77t39 -62.5t61.5 -41.5t81 -15q39 0 76 11.5t62 29.5h8v-67q-29 -20 -67.5 -30.5t-83.5 -10.5l-12 -39l16.5 -3t35.5 -13t35 -29.5t16 -52.5q0 -52 -35 -78.5t-95 -26.5q-22 0 -39 3t-30 7
q-14 4 -25 10l14 46q3 -2 21 -9t52 -7q35 0 56.5 15t21.5 46q0 21 -12 33t-28.5 18.5t-34 8t-29.5 1.5l22 74q-49 7 -89 29.5t-68 56.5t-43.5 78t-15.5 95q0 58 19 106.5t54 84t83.5 55t107.5 19.5q45 0 84.5 -10.5t68.5 -30.5v-67h-8q-25 17 -63.5 28.5t-77.5 11.5z" />
    <glyph glyph-name="egrave" unicode="&#xe8;" horiz-adv-x="570" 
d="M265 582l-137 195h72l129 -195h-64zM531 283q0 -14 -1.5 -33t-5.5 -33h-410q5 -44 23 -76.5t45.5 -53.5t63 -31.5t74.5 -10.5q48 0 89.5 10.5t86.5 34.5h8v-57q-46 -27 -92.5 -38t-100.5 -11q-61 0 -110.5 19t-84.5 53.5t-54 83.5t-19 109q0 62 20 111t54 83t79.5 51.5
t95.5 17.5q52 0 96 -15.5t75.5 -45t49.5 -72t18 -96.5zM465 297q-1 33 -12.5 62t-33 50t-53 33t-73.5 12q-32 0 -62.5 -10.5t-55 -32t-40.5 -54.5t-21 -77h351v17z" />
    <glyph glyph-name="eacute" unicode="&#xe9;" horiz-adv-x="570" 
d="M324 582h-64l129 194h72zM531 283q0 -14 -1.5 -33t-5.5 -33h-410q5 -44 23 -76.5t45.5 -53.5t63 -31.5t74.5 -10.5q48 0 89.5 10.5t86.5 34.5h8v-57q-46 -27 -92.5 -38t-100.5 -11q-61 0 -110.5 19t-84.5 53.5t-54 83.5t-19 109q0 62 20 111t54 83t79.5 51.5t95.5 17.5
q52 0 96 -15.5t75.5 -45t49.5 -72t18 -96.5zM465 297q-1 33 -12.5 62t-33 50t-53 33t-73.5 12q-32 0 -62.5 -10.5t-55 -32t-40.5 -54.5t-21 -77h351v17z" />
    <glyph glyph-name="ecircumflex" unicode="&#xea;" horiz-adv-x="570" 
d="M188 583h-66l139 192h60l139 -192h-66l-99 136h-6zM531 283q0 -14 -1.5 -33t-5.5 -33h-410q5 -44 23 -76.5t45.5 -53.5t63 -31.5t74.5 -10.5q48 0 89.5 10.5t86.5 34.5h8v-57q-46 -27 -92.5 -38t-100.5 -11q-61 0 -110.5 19t-84.5 53.5t-54 83.5t-19 109q0 62 20 111
t54 83t79.5 51.5t95.5 17.5q52 0 96 -15.5t75.5 -45t49.5 -72t18 -96.5zM465 297q-1 33 -12.5 62t-33 50t-53 33t-73.5 12q-32 0 -62.5 -10.5t-55 -32t-40.5 -54.5t-21 -77h351v17z" />
    <glyph glyph-name="edieresis" unicode="&#xeb;" horiz-adv-x="570" 
d="M184 620q-23 0 -38.5 15.5t-15.5 37.5q0 23 15.5 38.5t38.5 15.5q22 0 37.5 -15.5t15.5 -38.5q0 -22 -15.5 -37.5t-37.5 -15.5zM401 620q-22 0 -37.5 15.5t-15.5 37.5q0 23 15.5 38.5t37.5 15.5q23 0 38.5 -15.5t15.5 -38.5q0 -22 -15.5 -37.5t-38.5 -15.5zM531 283
q0 -14 -1.5 -33t-5.5 -33h-410q5 -44 23 -76.5t45.5 -53.5t63 -31.5t74.5 -10.5q48 0 89.5 10.5t86.5 34.5h8v-57q-46 -27 -92.5 -38t-100.5 -11q-61 0 -110.5 19t-84.5 53.5t-54 83.5t-19 109q0 62 20 111t54 83t79.5 51.5t95.5 17.5q52 0 96 -15.5t75.5 -45t49.5 -72
t18 -96.5zM465 297q-1 33 -12.5 62t-33 50t-53 33t-73.5 12q-32 0 -62.5 -10.5t-55 -32t-40.5 -54.5t-21 -77h351v17z" />
    <glyph glyph-name="igrave" unicode="&#xec;" horiz-adv-x="234" 
d="M-48 761h73l129 -195h-64zM80 496h74v-496h-74v496z" />
    <glyph glyph-name="iacute" unicode="&#xed;" horiz-adv-x="234" 
d="M213 761h73l-138 -195h-64zM80 496h74v-496h-74v496z" />
    <glyph glyph-name="icircumflex" unicode="&#xee;" horiz-adv-x="234" 
d="M86 759h59l140 -192h-66l-100 136h-6l-100 -136h-66zM80 496h74v-496h-74v496z" />
    <glyph glyph-name="idieresis" unicode="&#xef;" horiz-adv-x="234" 
d="M8 604q-22 0 -37.5 15.5t-15.5 37.5q0 23 15.5 38.5t37.5 15.5q23 0 38.5 -15.5t15.5 -38.5q0 -22 -15.5 -37.5t-38.5 -15.5zM226 604q-23 0 -38.5 15.5t-15.5 37.5q0 23 15.5 38.5t38.5 15.5q22 0 37.5 -15.5t15.5 -38.5q0 -22 -15.5 -37.5t-37.5 -15.5zM80 496h74v-496
h-74v496z" />
    <glyph glyph-name="eth" unicode="&#xf0;" horiz-adv-x="612" 
d="M448 510q32 -37 55 -68t37.5 -61t21.5 -61.5t7 -70.5q0 -58 -20.5 -106.5t-56.5 -84t-84 -55t-103 -19.5t-103.5 20t-83.5 55t-55.5 83.5t-20.5 106.5q0 56 19 102t51.5 80.5t77 54.5t95.5 23q45 1 89 -16l-78 95l-135 -67v55l103 51l-66 81h82l43 -51l116 58v-56
l-83 -41zM305 52q39 0 74 14.5t61 40.5t41 62.5t15 79.5q0 44 -14.5 80t-39.5 61.5t-59.5 39.5t-75.5 14t-76 -14t-60.5 -40t-40 -61.5t-14.5 -79.5q0 -43 14.5 -79.5t40 -62.5t60 -40.5t74.5 -14.5z" />
    <glyph glyph-name="ntilde" unicode="&#xf1;" horiz-adv-x="613" 
d="M406 604q-30 0 -51 12t-39 27t-36 27t-41 12q-31 0 -40 -20.5t-10 -48.5h-55q0 54 26.5 90t78.5 36q29 0 50 -12t39 -27t36 -27t42 -12q30 0 39 18t10 42h55q0 -55 -25 -86t-79 -31zM80 496h60l8 -88h7q10 20 26 38.5t38 33t50 23t62 8.5q100 0 155.5 -58.5t55.5 -158.5
v-294h-75v280q0 77 -41.5 120.5t-112.5 43.5q-39 0 -68.5 -15t-49.5 -40t-30.5 -57t-10.5 -67v-265h-74v496z" />
    <glyph glyph-name="ograve" unicode="&#xf2;" horiz-adv-x="611" 
d="M155 777h72l129 -195h-64zM304 -16q-55 0 -103 19.5t-83 55t-55.5 84t-20.5 106.5t20.5 106t56.5 83t84 54.5t103 19.5q54 0 102 -19.5t84 -54.5t56.5 -83t20.5 -106t-20.5 -106.5t-56.5 -84t-84 -55t-104 -19.5zM304 52q40 0 74.5 14.5t60.5 40.5t41 62.5t15 79.5
t-14.5 79t-40 61.5t-60 40t-74.5 14.5t-75 -14.5t-60.5 -40t-40 -61.5t-14.5 -79t14.5 -79.5t40 -62.5t60 -40.5t73.5 -14.5z" />
    <glyph glyph-name="oacute" unicode="&#xf3;" horiz-adv-x="611" 
d="M395 776h72l-137 -194h-64zM304 -16q-55 0 -103 19.5t-83 55t-55.5 84t-20.5 106.5t20.5 106t56.5 83t84 54.5t103 19.5q54 0 102 -19.5t84 -54.5t56.5 -83t20.5 -106t-20.5 -106.5t-56.5 -84t-84 -55t-104 -19.5zM304 52q40 0 74.5 14.5t60.5 40.5t41 62.5t15 79.5
t-14.5 79t-40 61.5t-60 40t-74.5 14.5t-75 -14.5t-60.5 -40t-40 -61.5t-14.5 -79t14.5 -79.5t40 -62.5t60 -40.5t73.5 -14.5z" />
    <glyph glyph-name="ocircumflex" unicode="&#xf4;" horiz-adv-x="611" 
d="M276 775h60l139 -192h-66l-99 136h-6l-101 -136h-66zM304 -16q-55 0 -103 19.5t-83 55t-55.5 84t-20.5 106.5t20.5 106t56.5 83t84 54.5t103 19.5q54 0 102 -19.5t84 -54.5t56.5 -83t20.5 -106t-20.5 -106.5t-56.5 -84t-84 -55t-104 -19.5zM304 52q40 0 74.5 14.5
t60.5 40.5t41 62.5t15 79.5t-14.5 79t-40 61.5t-60 40t-74.5 14.5t-75 -14.5t-60.5 -40t-40 -61.5t-14.5 -79t14.5 -79.5t40 -62.5t60 -40.5t73.5 -14.5z" />
    <glyph glyph-name="otilde" unicode="&#xf5;" horiz-adv-x="611" 
d="M396 604q-30 0 -51 12t-39 27t-36 27t-41 12q-31 0 -40.5 -20t-10.5 -48h-54q0 54 26.5 90t77.5 36q29 0 50 -12t39.5 -27t36.5 -27t42 -12q30 0 39 18t10 41h55q0 -54 -25.5 -85.5t-78.5 -31.5zM304 -16q-55 0 -103 19.5t-83 55t-55.5 84t-20.5 106.5t20.5 106t56.5 83
t84 54.5t103 19.5q54 0 102 -19.5t84 -54.5t56.5 -83t20.5 -106t-20.5 -106.5t-56.5 -84t-84 -55t-104 -19.5zM304 52q40 0 74.5 14.5t60.5 40.5t41 62.5t15 79.5t-14.5 79t-40 61.5t-60 40t-74.5 14.5t-75 -14.5t-60.5 -40t-40 -61.5t-14.5 -79t14.5 -79.5t40 -62.5
t60 -40.5t73.5 -14.5z" />
    <glyph glyph-name="odieresis" unicode="&#xf6;" horiz-adv-x="611" 
d="M198 620q-22 0 -37.5 15.5t-15.5 37.5q0 23 15.5 38.5t37.5 15.5q23 0 38.5 -15.5t15.5 -38.5q0 -22 -15.5 -37.5t-38.5 -15.5zM416 620q-22 0 -37.5 15.5t-15.5 37.5q0 23 15.5 38.5t37.5 15.5q23 0 38.5 -15.5t15.5 -38.5q0 -22 -15.5 -37.5t-38.5 -15.5zM304 -16
q-55 0 -103 19.5t-83 55t-55.5 84t-20.5 106.5t20.5 106t56.5 83t84 54.5t103 19.5q54 0 102 -19.5t84 -54.5t56.5 -83t20.5 -106t-20.5 -106.5t-56.5 -84t-84 -55t-104 -19.5zM304 52q40 0 74.5 14.5t60.5 40.5t41 62.5t15 79.5t-14.5 79t-40 61.5t-60 40t-74.5 14.5
t-75 -14.5t-60.5 -40t-40 -61.5t-14.5 -79t14.5 -79.5t40 -62.5t60 -40.5t73.5 -14.5z" />
    <glyph glyph-name="divide" unicode="&#xf7;" horiz-adv-x="553" 
d="M275 504q-23 0 -40 16.5t-17 40.5q0 23 17 39.5t40 16.5t40 -16.5t17 -39.5t-17 -40t-40 -17zM69 376h415v-63h-415v63zM275 71q-23 0 -40 16.5t-17 39.5q0 25 17 41t40 16t40 -16.5t17 -40.5q0 -23 -17 -39.5t-40 -16.5z" />
    <glyph glyph-name="oslash" unicode="&#xf8;" horiz-adv-x="638" 
d="M543 393q19 -30 29.5 -66t10.5 -78q0 -58 -20.5 -106.5t-56.5 -84t-84.5 -55t-104.5 -19.5q-53 0 -98.5 18t-80.5 50l-74 -62l-40 52l72 60q-20 31 -30.5 68t-10.5 79q0 58 20.5 106t56.5 83t84 54.5t103 19.5q53 0 99.5 -18t81.5 -50l73 61l42 -51zM129 249
q0 -55 23 -99l293 247q-25 23 -57 35t-69 12q-40 0 -75 -14.5t-60.5 -40t-40 -61.5t-14.5 -79zM509 249q0 55 -23 96l-293 -247q25 -22 56.5 -34t67.5 -12q40 0 75 14.5t61 40.5t41 62.5t15 79.5z" />
    <glyph glyph-name="ugrave" unicode="&#xf9;" horiz-adv-x="591" 
d="M131 761h72l129 -195h-64zM295 -13q-104 0 -164 57t-60 160v292h74v-286q0 -77 39 -116t111 -39q73 0 112 39.5t39 114.5v286h74v-290q0 -105 -61.5 -161.5t-163.5 -56.5z" />
    <glyph glyph-name="uacute" unicode="&#xfa;" horiz-adv-x="591" 
d="M392 761h72l-137 -195h-64zM295 -13q-104 0 -164 57t-60 160v292h74v-286q0 -77 39 -116t111 -39q73 0 112 39.5t39 114.5v286h74v-290q0 -105 -61.5 -161.5t-163.5 -56.5z" />
    <glyph glyph-name="ucircumflex" unicode="&#xfb;" horiz-adv-x="591" 
d="M264 759h60l139 -192h-66l-99 136h-6l-101 -136h-66zM295 -13q-104 0 -164 57t-60 160v292h74v-286q0 -77 39 -116t111 -39q73 0 112 39.5t39 114.5v286h74v-290q0 -105 -61.5 -161.5t-163.5 -56.5z" />
    <glyph glyph-name="udieresis" unicode="&#xfc;" horiz-adv-x="591" 
d="M187 604q-23 0 -38.5 15.5t-15.5 37.5q0 23 15.5 38.5t38.5 15.5q22 0 37.5 -15.5t15.5 -38.5q0 -22 -15.5 -37.5t-37.5 -15.5zM404 604q-22 0 -37.5 15.5t-15.5 37.5q0 23 15.5 38.5t37.5 15.5q23 0 38.5 -15.5t15.5 -38.5q0 -22 -15.5 -37.5t-38.5 -15.5zM295 -13
q-104 0 -164 57t-60 160v292h74v-286q0 -77 39 -116t111 -39q73 0 112 39.5t39 114.5v286h74v-290q0 -105 -61.5 -161.5t-163.5 -56.5z" />
    <glyph glyph-name="yacute" unicode="&#xfd;" horiz-adv-x="533" 
d="M363 761h72l-137 -195h-65zM87 -230q-16 0 -29.5 2t-35.5 9v63h8q14 -5 25.5 -7t25.5 -2q34 0 57.5 13t40 35t28.5 50t23 57l-215 506h80l171 -425h6l166 425h80l-213 -508q-18 -44 -36.5 -83.5t-43 -69.5t-57.5 -47.5t-81 -17.5z" />
    <glyph glyph-name="thorn" unicode="&#xfe;" horiz-adv-x="652" 
d="M80 697h73v-297h6q9 20 26.5 39.5t43 36t57.5 26.5t69 10q55 0 102 -19.5t81 -54.5t53 -83.5t19 -105.5q0 -58 -20 -106.5t-54.5 -83.5t-81.5 -55t-101 -20q-37 0 -68.5 10t-56.5 26.5t-42.5 36.5t-26.5 40h-6v-302h-73v902zM345 52q40 0 74.5 14.5t60.5 40.5t41 62
t15 80t-14.5 79.5t-40 61.5t-60.5 40t-75 14q-43 0 -79 -16.5t-61.5 -43.5t-39.5 -62t-14 -73q0 -37 13.5 -72t39 -63t61 -45t79.5 -17z" />
    <glyph glyph-name="ydieresis" unicode="&#xff;" horiz-adv-x="533" 
d="M157 604q-22 0 -37.5 15.5t-15.5 37.5q0 23 15.5 38.5t37.5 15.5q23 0 38.5 -15.5t15.5 -38.5q0 -22 -15.5 -37.5t-38.5 -15.5zM375 604q-22 0 -37.5 15.5t-15.5 37.5q0 23 15.5 38.5t37.5 15.5t38 -15.5t16 -38.5q0 -22 -16 -37.5t-38 -15.5zM87 -230q-16 0 -29.5 2
t-35.5 9v63h8q14 -5 25.5 -7t25.5 -2q34 0 57.5 13t40 35t28.5 50t23 57l-215 506h80l171 -425h6l166 425h80l-213 -508q-18 -44 -36.5 -83.5t-43 -69.5t-57.5 -47.5t-81 -17.5z" />
    <glyph glyph-name="Amacron" unicode="&#x100;" horiz-adv-x="673" 
d="M514 805h-355v55h355v-55zM528 126h-383l-55 -126h-81l308 689h39l308 -689h-81zM502 186l-163 373h-6l-162 -373h331z" />
    <glyph glyph-name="amacron" unicode="&#x101;" horiz-adv-x="666" 
d="M129 683h355v-55h-355v55zM301 -16q-56 0 -103.5 19.5t-82 55t-54 83.5t-19.5 105t19.5 106t54 84t81.5 55t103 20q40 0 73 -10t58.5 -26.5t43.5 -37t28 -41.5h6l8 99h55v-355q0 -19 0.5 -35t3.5 -27.5t10.5 -17.5t22.5 -6q5 0 10 1t10 3h9v-65q-22 -9 -45 -9
q-29 0 -45.5 9t-24.5 25t-10 37.5t-4 46.5h-6q-10 -22 -29 -43.5t-44.5 -38t-58 -27t-70.5 -10.5zM307 51q44 0 79.5 17t61 45t39.5 63.5t14 72.5q0 38 -14 73.5t-40 62.5t-61.5 43.5t-79.5 16.5q-40 0 -75 -14t-60.5 -40t-40.5 -62t-15 -80t15 -80.5t41 -62.5t61 -40.5
t75 -14.5z" />
    <glyph glyph-name="Abreve" unicode="&#x102;" horiz-adv-x="673" 
d="M337 763q-36 0 -66 12t-51.5 34t-34 54t-12.5 72h59q0 -59 30 -88t75 -29q44 0 73.5 29t29.5 88h60q0 -83 -45.5 -127.5t-117.5 -44.5zM528 126h-383l-55 -126h-81l308 689h39l308 -689h-81zM502 186l-163 373h-6l-162 -373h331z" />
    <glyph glyph-name="abreve" unicode="&#x103;" horiz-adv-x="666" 
d="M307 586q-72 0 -118 45.5t-46 126.5h59q0 -58 30 -87.5t75 -29.5q44 0 73.5 29.5t29.5 87.5h60q0 -41 -12 -73t-34 -54t-52 -33.5t-65 -11.5zM301 -16q-56 0 -103.5 19.5t-82 55t-54 83.5t-19.5 105t19.5 106t54 84t81.5 55t103 20q40 0 73 -10t58.5 -26.5t43.5 -37
t28 -41.5h6l8 99h55v-355q0 -19 0.5 -35t3.5 -27.5t10.5 -17.5t22.5 -6q5 0 10 1t10 3h9v-65q-22 -9 -45 -9q-29 0 -45.5 9t-24.5 25t-10 37.5t-4 46.5h-6q-10 -22 -29 -43.5t-44.5 -38t-58 -27t-70.5 -10.5zM307 51q44 0 79.5 17t61 45t39.5 63.5t14 72.5q0 38 -14 73.5
t-40 62.5t-61.5 43.5t-79.5 16.5q-40 0 -75 -14t-60.5 -40t-40.5 -62t-15 -80t15 -80.5t41 -62.5t61 -40.5t75 -14.5z" />
    <glyph glyph-name="Aogonek" unicode="&#x104;" horiz-adv-x="673" 
d="M634 -199q11 0 20 1.5t18 3.5v-51q-26 -8 -53 -8q-51 0 -86.5 31.5t-35.5 90.5q0 27 7.5 48t19.5 37.5t27.5 28.5t30.5 20l-54 123h-383l-55 -126h-81l308 689h39l308 -689q-13 -5 -30.5 -14t-33.5 -23.5t-27.5 -36t-11.5 -51.5q0 -35 20.5 -54.5t52.5 -19.5zM502 186
l-163 373h-6l-162 -373h331z" />
    <glyph glyph-name="aogonek" unicode="&#x105;" horiz-adv-x="666" 
d="M615 -13q-13 -6 -30 -15t-31.5 -23t-24.5 -35t-10 -49q0 -35 20 -54.5t53 -19.5q11 0 20 1.5t18 3.5v-51q-26 -8 -53 -8q-51 0 -86.5 31.5t-35.5 90.5q0 28 8 49.5t21 38.5t29 29t31 20q-23 14 -28 42.5t-7 64.5h-6q-10 -22 -29 -43.5t-44.5 -38t-58 -27t-70.5 -10.5
q-56 0 -103.5 19.5t-82 55t-54 83.5t-19.5 105t19.5 106t54 84t81.5 55t103 20q40 0 73 -10t58.5 -26.5t43.5 -37t28 -41.5h6l8 99h55v-355q0 -19 0.5 -35t3.5 -27.5t10.5 -17.5t22.5 -6q5 0 10 1t10 3h9v-65q-10 -4 -23 -7zM307 51q44 0 79.5 17t61 45t39.5 63.5t14 72.5
q0 38 -14 73.5t-40 62.5t-61.5 43.5t-79.5 16.5q-40 0 -75 -14t-60.5 -40t-40.5 -62t-15 -80t15 -80.5t41 -62.5t61 -40.5t75 -14.5z" />
    <glyph glyph-name="Cacute" unicode="&#x106;" horiz-adv-x="662" 
d="M513 969h72l-137 -195h-64zM416 -15q-77 0 -144.5 26t-117.5 73.5t-78.5 113.5t-28.5 147t28.5 147t78.5 113.5t117.5 73.5t144.5 26q65 0 117 -11t96 -33v-72h-8q-41 22 -89 34t-104 12q-64 0 -119 -20.5t-95.5 -58.5t-63.5 -91.5t-23 -119.5t23 -119.5t63.5 -91.5
t95.5 -58.5t119 -20.5q57 0 104.5 12t88.5 35h8v-72q-44 -23 -96 -34t-117 -11z" />
    <glyph glyph-name="cacute" unicode="&#x107;" horiz-adv-x="496" 
d="M387 771h72l-137 -195h-64zM308 -16q-60 0 -109 19.5t-84 55t-54 83.5t-19 105q0 58 19 106.5t54 84t83.5 55t107.5 19.5q45 0 84.5 -10.5t68.5 -30.5v-67h-8q-25 17 -63.5 28.5t-77.5 11.5q-42 0 -77.5 -14.5t-61 -41t-39.5 -62.5t-14 -79q0 -41 13.5 -77t39 -62.5
t61.5 -41.5t81 -15q39 0 76 11.5t62 29.5h8v-67q-29 -20 -67.5 -30.5t-83.5 -10.5z" />
    <glyph glyph-name="Cdotaccent" unicode="&#x10a;" horiz-adv-x="662" 
d="M416 812q-23 0 -39.5 16.5t-16.5 39.5q0 24 16.5 40.5t39.5 16.5t40 -16.5t17 -40.5q0 -23 -17 -39.5t-40 -16.5zM416 -15q-77 0 -144.5 26t-117.5 73.5t-78.5 113.5t-28.5 147t28.5 147t78.5 113.5t117.5 73.5t144.5 26q65 0 117 -11t96 -33v-72h-8q-41 22 -89 34
t-104 12q-64 0 -119 -20.5t-95.5 -58.5t-63.5 -91.5t-23 -119.5t23 -119.5t63.5 -91.5t95.5 -58.5t119 -20.5q57 0 104.5 12t88.5 35h8v-72q-44 -23 -96 -34t-117 -11z" />
    <glyph glyph-name="cdotaccent" unicode="&#x10b;" horiz-adv-x="496" 
d="M290 614q-23 0 -39.5 16.5t-16.5 39.5t16.5 40t39.5 17q24 0 40.5 -17t16.5 -40t-16.5 -39.5t-40.5 -16.5zM308 -16q-60 0 -109 19.5t-84 55t-54 83.5t-19 105q0 58 19 106.5t54 84t83.5 55t107.5 19.5q45 0 84.5 -10.5t68.5 -30.5v-67h-8q-25 17 -63.5 28.5t-77.5 11.5
q-42 0 -77.5 -14.5t-61 -41t-39.5 -62.5t-14 -79q0 -41 13.5 -77t39 -62.5t61.5 -41.5t81 -15q39 0 76 11.5t62 29.5h8v-67q-29 -20 -67.5 -30.5t-83.5 -10.5z" />
    <glyph glyph-name="Ccaron" unicode="&#x10c;" horiz-adv-x="662" 
d="M246 967h66l101 -136h6l100 136h66l-140 -191h-60zM416 -15q-77 0 -144.5 26t-117.5 73.5t-78.5 113.5t-28.5 147t28.5 147t78.5 113.5t117.5 73.5t144.5 26q65 0 117 -11t96 -33v-72h-8q-41 22 -89 34t-104 12q-64 0 -119 -20.5t-95.5 -58.5t-63.5 -91.5t-23 -119.5
t23 -119.5t63.5 -91.5t95.5 -58.5t119 -20.5q57 0 104.5 12t88.5 35h8v-72q-44 -23 -96 -34t-117 -11z" />
    <glyph glyph-name="ccaron" unicode="&#x10d;" horiz-adv-x="496" 
d="M121 769h66l100 -136h6l100 136h66l-140 -192h-59zM308 -16q-60 0 -109 19.5t-84 55t-54 83.5t-19 105q0 58 19 106.5t54 84t83.5 55t107.5 19.5q45 0 84.5 -10.5t68.5 -30.5v-67h-8q-25 17 -63.5 28.5t-77.5 11.5q-42 0 -77.5 -14.5t-61 -41t-39.5 -62.5t-14 -79
q0 -41 13.5 -77t39 -62.5t61.5 -41.5t81 -15q39 0 76 11.5t62 29.5h8v-67q-29 -20 -67.5 -30.5t-83.5 -10.5z" />
    <glyph glyph-name="Dcaron" unicode="&#x10e;" horiz-adv-x="731" 
d="M179 952h66l100 -136h7l99 136h66l-140 -192h-59zM93 689h231q77 0 143 -24t114 -68.5t75 -108t27 -143.5t-27 -144t-75 -108.5t-114 -68.5t-143 -24h-231v689zM325 72q60 0 111 19t88 54t58 86t21 114q0 60 -20 110t-56 86t-87.5 56t-114.5 20h-155v-545h155z" />
    <glyph glyph-name="dcaron" unicode="&#x10f;" horiz-adv-x="702" 
d="M301 -16q-56 0 -103.5 19.5t-82 55t-54 83.5t-19.5 105t19.5 106t54 84t81.5 55t103 20q37 0 68 -9.5t56 -25.5t42.5 -35.5t27.5 -40.5h6v304h72v-564q0 -19 0.5 -35t3.5 -27.5t10.5 -17.5t22.5 -6q5 0 10 1t10 3h9v-65q-22 -9 -45 -9q-29 0 -45.5 9t-24.5 25t-10 37.5
t-4 46.5h-6q-10 -22 -29 -43.5t-44.5 -38t-58 -27t-70.5 -10.5zM672 705h67l-57 -200h-60zM307 51q44 0 79.5 17t61 45t39.5 63.5t14 72.5q0 38 -14 73.5t-40 62.5t-61.5 43.5t-79.5 16.5q-40 0 -75 -14t-60.5 -40t-40.5 -62t-15 -80t15 -80.5t41 -62.5t61 -40.5t75 -14.5z
" />
    <glyph glyph-name="Dcroat" unicode="&#x110;" horiz-adv-x="743" 
d="M336 689q77 0 143 -24t114 -68.5t75 -108t27 -143.5t-27 -144t-75 -108.5t-114 -68.5t-143 -24h-231v329h-78v56h78v304h231zM337 72q60 0 111 19t88 54t58 86t21 114q0 60 -20 110t-56 86t-87.5 56t-114.5 20h-155v-232h176v-56h-176v-257h155z" />
    <glyph glyph-name="dcroat" unicode="&#x111;" horiz-adv-x="666" 
d="M572 581v-440q0 -19 0.5 -35t3.5 -27.5t10.5 -17.5t22.5 -6q5 0 10 1t10 3h9v-65q-22 -9 -45 -9q-29 0 -45.5 9t-24.5 25t-10 37.5t-4 46.5h-6q-10 -22 -29 -43.5t-44.5 -38t-58 -27t-70.5 -10.5q-56 0 -103.5 19.5t-82 55t-54 83.5t-19.5 105t19.5 106t54 84t81.5 55
t103 20q37 0 68 -9.5t56 -25.5t42.5 -35.5t27.5 -40.5h6v180h-129v49h129v75h72v-75h95v-49h-95zM307 51q44 0 79.5 17t61 45t39.5 63.5t14 72.5q0 38 -14 73.5t-40 62.5t-61.5 43.5t-79.5 16.5q-40 0 -75 -14t-60.5 -40t-40.5 -62t-15 -80t15 -80.5t41 -62.5t61 -40.5
t75 -14.5z" />
    <glyph glyph-name="Emacron" unicode="&#x112;" horiz-adv-x="558" 
d="M134 860h355v-55h-355v55zM93 689h421v-62h-344v-250h307v-60h-307v-255h344v-62h-421v689z" />
    <glyph glyph-name="emacron" unicode="&#x113;" horiz-adv-x="570" 
d="M469 628h-355v55h355v-55zM531 283q0 -14 -1.5 -33t-5.5 -33h-410q5 -44 23 -76.5t45.5 -53.5t63 -31.5t74.5 -10.5q48 0 89.5 10.5t86.5 34.5h8v-57q-46 -27 -92.5 -38t-100.5 -11q-61 0 -110.5 19t-84.5 53.5t-54 83.5t-19 109q0 62 20 111t54 83t79.5 51.5t95.5 17.5
q52 0 96 -15.5t75.5 -45t49.5 -72t18 -96.5zM465 297q-1 33 -12.5 62t-33 50t-53 33t-73.5 12q-32 0 -62.5 -10.5t-55 -32t-40.5 -54.5t-21 -77h351v17z" />
    <glyph glyph-name="Edotaccent" unicode="&#x116;" horiz-adv-x="558" 
d="M312 796q-23 0 -39.5 16.5t-16.5 39.5q0 24 16.5 40.5t39.5 16.5t39.5 -16.5t16.5 -40.5q0 -23 -16.5 -39.5t-39.5 -16.5zM93 689h421v-62h-344v-250h307v-60h-307v-255h344v-62h-421v689z" />
    <glyph glyph-name="edotaccent" unicode="&#x117;" horiz-adv-x="570" 
d="M292 620q-23 0 -39.5 16.5t-16.5 39.5t16.5 39.5t39.5 16.5t40 -16.5t17 -39.5t-17 -39.5t-40 -16.5zM531 283q0 -14 -1.5 -33t-5.5 -33h-410q5 -44 23 -76.5t45.5 -53.5t63 -31.5t74.5 -10.5q48 0 89.5 10.5t86.5 34.5h8v-57q-46 -27 -92.5 -38t-100.5 -11
q-61 0 -110.5 19t-84.5 53.5t-54 83.5t-19 109q0 62 20 111t54 83t79.5 51.5t95.5 17.5q52 0 96 -15.5t75.5 -45t49.5 -72t18 -96.5zM465 297q-1 33 -12.5 62t-33 50t-53 33t-73.5 12q-32 0 -62.5 -10.5t-55 -32t-40.5 -54.5t-21 -77h351v17z" />
    <glyph glyph-name="Eogonek" unicode="&#x118;" horiz-adv-x="558" 
d="M170 627v-250h307v-60h-307v-255h344v-62h-8q-13 -5 -30.5 -14t-33.5 -23.5t-27.5 -36t-11.5 -51.5q0 -35 20.5 -54.5t52.5 -19.5q20 0 38 5v-51q-26 -8 -52 -8q-51 0 -86.5 31.5t-35.5 90.5q0 51 25 82.5t54 48.5h-326v689h421v-62h-344z" />
    <glyph glyph-name="eogonek" unicode="&#x119;" horiz-adv-x="570" 
d="M531 283q0 -14 -1.5 -33t-5.5 -33h-410q5 -44 23 -76.5t45.5 -53.5t63 -31.5t74.5 -10.5q48 0 89.5 10.5t86.5 34.5h8v-57q-17 -11 -34.5 -18.5t-35.5 -13.5q-12 -7 -25 -16.5t-23.5 -22.5t-17 -30.5t-6.5 -40.5q0 -35 20 -54.5t53 -19.5q11 0 20 1.5t18 3.5v-51
q-26 -8 -53 -8q-51 0 -86.5 31.5t-35.5 89.5q0 34 11.5 58.5t28.5 42.5q-7 -1 -13.5 -1h-13.5q-61 0 -110.5 19t-84.5 53.5t-54 83.5t-19 109q0 62 20 111t54 83t79.5 51.5t95.5 17.5q52 0 96 -15.5t75.5 -45t49.5 -72t18 -96.5zM465 297q-1 33 -12.5 62t-33 50t-53 33
t-73.5 12q-32 0 -62.5 -10.5t-55 -32t-40.5 -54.5t-21 -77h351v17z" />
    <glyph glyph-name="Ecaron" unicode="&#x11a;" horiz-adv-x="558" 
d="M142 952h66l101 -136h6l99 136h66l-139 -192h-60zM93 689h421v-62h-344v-250h307v-60h-307v-255h344v-62h-421v689z" />
    <glyph glyph-name="ecaron" unicode="&#x11b;" horiz-adv-x="570" 
d="M261 583l-139 192h66l101 -136h6l100 136h66l-140 -192h-60zM531 283q0 -14 -1.5 -33t-5.5 -33h-410q5 -44 23 -76.5t45.5 -53.5t63 -31.5t74.5 -10.5q48 0 89.5 10.5t86.5 34.5h8v-57q-46 -27 -92.5 -38t-100.5 -11q-61 0 -110.5 19t-84.5 53.5t-54 83.5t-19 109
q0 62 20 111t54 83t79.5 51.5t95.5 17.5q52 0 96 -15.5t75.5 -45t49.5 -72t18 -96.5zM465 297q-1 33 -12.5 62t-33 50t-53 33t-73.5 12q-32 0 -62.5 -10.5t-55 -32t-40.5 -54.5t-21 -77h351v17z" />
    <glyph glyph-name="Gbreve" unicode="&#x11e;" horiz-adv-x="705" 
d="M413 779q-36 0 -66 12t-51.5 34t-34 54t-12.5 72h60q0 -59 29.5 -88.5t74.5 -29.5q44 0 73.5 29.5t29.5 88.5h60q0 -83 -45.5 -127.5t-117.5 -44.5zM418 -16q-82 0 -150.5 27t-117.5 75.5t-76 115.5t-27 146q0 80 29 146t79 113t116.5 72.5t141.5 25.5q65 0 116.5 -11
t95.5 -34v-71h-8q-42 22 -88.5 34t-103.5 12q-62 0 -116 -20.5t-94.5 -58t-64 -90.5t-23.5 -118q0 -63 21 -116.5t60 -93t94 -62t122 -22.5q82 0 147 31v284h77v-330q-102 -55 -230 -55z" />
    <glyph glyph-name="gbreve" unicode="&#x11f;" horiz-adv-x="599" 
d="M297 586q-36 0 -66.5 12t-52 34t-34 54t-12.5 72h60q0 -59 30 -88t75 -29q44 0 73 29t29 88h60q0 -82 -45.5 -127t-116.5 -45zM546 459h-91q42 -32 66.5 -79.5t24.5 -103.5q0 -69 -33 -122t-88 -82q57 -16 87 -48.5t30 -85.5q0 -35 -14.5 -65.5t-45 -53t-77 -36
t-110.5 -13.5q-73 0 -132 16t-96 37v70h8q33 -23 91.5 -40t128.5 -17q87 0 129.5 30.5t42.5 75.5q0 29 -12.5 48t-35 30t-54 15.5t-69.5 4.5q-58 0 -104 16.5t-78.5 47t-50 74.5t-17.5 98q0 53 18.5 96t51.5 74t78.5 48.5t99.5 17.5h252v-53zM296 103q41 0 74 14.5t56.5 39
t36.5 55.5t13 64q0 44 -16 76.5t-42 53.5t-58 31.5t-64 10.5q-33 0 -65 -10.5t-57.5 -32t-41.5 -53.5t-16 -76q0 -43 14 -75t38 -54t57 -33t71 -11z" />
    <glyph glyph-name="Gdotaccent" unicode="&#x120;" horiz-adv-x="705" 
d="M413 812q-23 0 -39.5 16.5t-16.5 39.5q0 24 16.5 40.5t39.5 16.5t40 -16.5t17 -40.5q0 -23 -17 -39.5t-40 -16.5zM418 -16q-82 0 -150.5 27t-117.5 75.5t-76 115.5t-27 146q0 80 29 146t79 113t116.5 72.5t141.5 25.5q65 0 116.5 -11t95.5 -34v-71h-8q-42 22 -88.5 34
t-103.5 12q-62 0 -116 -20.5t-94.5 -58t-64 -90.5t-23.5 -118q0 -63 21 -116.5t60 -93t94 -62t122 -22.5q82 0 147 31v284h77v-330q-102 -55 -230 -55z" />
    <glyph glyph-name="gdotaccent" unicode="&#x121;" horiz-adv-x="599" 
d="M297 620q-23 0 -39.5 16.5t-16.5 39.5t16.5 39.5t39.5 16.5t39.5 -16.5t16.5 -39.5t-16.5 -39.5t-39.5 -16.5zM546 459h-91q42 -32 66.5 -79.5t24.5 -103.5q0 -69 -33 -122t-88 -82q57 -16 87 -48.5t30 -85.5q0 -35 -14.5 -65.5t-45 -53t-77 -36t-110.5 -13.5
q-73 0 -132 16t-96 37v70h8q33 -23 91.5 -40t128.5 -17q87 0 129.5 30.5t42.5 75.5q0 29 -12.5 48t-35 30t-54 15.5t-69.5 4.5q-58 0 -104 16.5t-78.5 47t-50 74.5t-17.5 98q0 53 18.5 96t51.5 74t78.5 48.5t99.5 17.5h252v-53zM296 103q41 0 74 14.5t56.5 39t36.5 55.5
t13 64q0 44 -16 76.5t-42 53.5t-58 31.5t-64 10.5q-33 0 -65 -10.5t-57.5 -32t-41.5 -53.5t-16 -76q0 -43 14 -75t38 -54t57 -33t71 -11z" />
    <glyph glyph-name="uni0122" unicode="&#x122;" horiz-adv-x="705" 
d="M418 -16q-82 0 -150.5 27t-117.5 75.5t-76 115.5t-27 146q0 80 29 146t79 113t116.5 72.5t141.5 25.5q65 0 116.5 -11t95.5 -34v-71h-8q-42 22 -88.5 34t-103.5 12q-62 0 -116 -20.5t-94.5 -58t-64 -90.5t-23.5 -118q0 -63 21 -116.5t60 -93t94 -62t122 -22.5
q82 0 147 31v284h77v-330q-102 -55 -230 -55zM386 -55h66l-57 -200h-59z" />
    <glyph glyph-name="uni0123" unicode="&#x123;" horiz-adv-x="599" 
d="M326 563h-66l57 200h59zM546 459h-91q42 -32 66.5 -79.5t24.5 -103.5q0 -69 -33 -122t-88 -82q57 -16 87 -48.5t30 -85.5q0 -35 -14.5 -65.5t-45 -53t-77 -36t-110.5 -13.5q-73 0 -132 16t-96 37v70h8q33 -23 91.5 -40t128.5 -17q87 0 129.5 30.5t42.5 75.5
q0 29 -12.5 48t-35 30t-54 15.5t-69.5 4.5q-58 0 -104 16.5t-78.5 47t-50 74.5t-17.5 98q0 53 18.5 96t51.5 74t78.5 48.5t99.5 17.5h252v-53zM296 103q41 0 74 14.5t56.5 39t36.5 55.5t13 64q0 44 -16 76.5t-42 53.5t-58 31.5t-64 10.5q-33 0 -65 -10.5t-57.5 -32
t-41.5 -53.5t-16 -76q0 -43 14 -75t38 -54t57 -33t71 -11z" />
    <glyph glyph-name="Hbar" unicode="&#x126;" horiz-adv-x="789" 
d="M744 534h-55v-534h-77v312h-436v-312h-77v534h-55v56h55v99h77v-99h436v99h77v-99h55v-56zM612 534h-436v-150h436v150z" />
    <glyph glyph-name="hbar" unicode="&#x127;" horiz-adv-x="613" 
d="M331 511q100 0 155.5 -58.5t55.5 -158.5v-294h-75v280q0 77 -41.5 120.5t-112.5 43.5q-39 0 -68.5 -15t-49.5 -40t-30.5 -57t-10.5 -67v-265h-74v581h-95v49h95v75h72v-75h129v-49h-129v-169h6q10 19 25.5 36.5t37 31.5t49 22.5t61.5 8.5z" />
    <glyph glyph-name="Itilde" unicode="&#x128;" horiz-adv-x="263" 
d="M226 781q-30 0 -51 12t-39 27t-36 27t-41 12q-31 0 -40.5 -20t-10.5 -48h-54q0 54 26.5 90t77.5 36q29 0 50 -12t39.5 -27t36.5 -27t42 -12q30 0 39 18t10 41h55q0 -54 -25.5 -85.5t-78.5 -31.5zM93 689h77v-689h-77v689z" />
    <glyph glyph-name="itilde" unicode="&#x129;" horiz-adv-x="234" 
d="M211 589q-30 0 -51 12t-39 27t-36 27t-41 12q-31 0 -40 -20.5t-10 -48.5h-55q0 54 26.5 90t78.5 36q29 0 50 -12t39 -27t36 -27t42 -12q30 0 39 18t10 42h55q0 -55 -25 -86t-79 -31zM80 496h74v-496h-74v496z" />
    <glyph glyph-name="Imacron" unicode="&#x12a;" horiz-adv-x="263" 
d="M-46 860h355v-55h-355v55zM93 689h77v-689h-77v689z" />
    <glyph glyph-name="imacron" unicode="&#x12b;" horiz-adv-x="234" 
d="M-61 667h355v-55h-355v55zM80 496h74v-496h-74v496z" />
    <glyph glyph-name="Iogonek" unicode="&#x12e;" horiz-adv-x="264" 
d="M140 -199q19 0 37 5v-51q-26 -8 -52 -8q-51 0 -86.5 31.5t-35.5 90.5q0 28 8.5 50t21.5 39t29 29t32 20v682h77v-689h-1q-13 -5 -31 -14t-34 -23.5t-27.5 -36t-11.5 -51.5q0 -35 20.5 -54.5t53.5 -19.5z" />
    <glyph glyph-name="iogonek" unicode="&#x12f;" horiz-adv-x="236" 
d="M119 605q-23 0 -40 16.5t-17 39.5q0 25 17 41t40 16t40 -16.5t17 -40.5q0 -23 -17 -39.5t-40 -16.5zM52 -125q0 -35 20.5 -54.5t52.5 -19.5q20 0 38 5v-51q-26 -8 -52 -8q-52 0 -87.5 31.5t-35.5 90.5q0 28 8.5 50.5t22 39t30 28.5t32.5 20v489h75v-496h-1
q-13 -5 -30.5 -14t-33.5 -23.5t-27.5 -36t-11.5 -51.5z" />
    <glyph glyph-name="Idotaccent" unicode="&#x130;" horiz-adv-x="263" 
d="M131 796q-23 0 -39.5 16.5t-16.5 39.5q0 24 16.5 40.5t39.5 16.5q24 0 40.5 -16.5t16.5 -40.5q0 -23 -16.5 -39.5t-40.5 -16.5zM93 689h77v-689h-77v689z" />
    <glyph glyph-name="dotlessi" unicode="&#x131;" horiz-adv-x="234" 
d="M80 496h74v-496h-74v496z" />
    <glyph glyph-name="IJ" unicode="&#x132;" horiz-adv-x="699" 
d="M93 689h77v-689h-77v689zM396 -15q-25 0 -49 2.5t-53 11.5v70h8q18 -7 37.5 -10.5t42.5 -3.5q35 0 63.5 9.5t48.5 30.5t31.5 55.5t11.5 83.5v455h77v-462q0 -63 -16.5 -108.5t-45.5 -75.5t-69 -44t-87 -14z" />
    <glyph glyph-name="ij" unicode="&#x133;" horiz-adv-x="487" 
d="M117 605q-23 0 -39.5 16.5t-16.5 39.5q0 25 17 41t39 16q23 0 40 -16.5t17 -40.5q0 -23 -16.5 -39.5t-40.5 -16.5zM371 604q-23 0 -39.5 16.5t-16.5 39.5q0 24 17 40.5t39 16.5q23 0 40.5 -17t17.5 -40t-17 -39.5t-41 -16.5zM80 496h74v-496h-74v496zM249 -228
q-23 0 -40.5 2.5t-42.5 9.5v64h8q19 -7 32 -10t31 -3q35 0 54.5 12t29 33.5t11.5 50.5t2 63v502h74v-522q0 -43 -5.5 -80t-23 -64t-48.5 -42.5t-82 -15.5z" />
    <glyph glyph-name="uni0136" unicode="&#x136;" horiz-adv-x="640" 
d="M93 689h77v-304h6l350 304h95l-381 -335l409 -354h-102l-372 316h-5v-316h-77v689zM291 -51h67l-57 -200h-60z" />
    <glyph glyph-name="uni0137" unicode="&#x137;" horiz-adv-x="575" 
d="M532 0h-83l-126 189q23 10 45.5 22.5t41.5 30.5t30.5 42t11.5 57q0 48 -30.5 76t-82.5 28q-57 0 -103.5 -29.5t-82.5 -83.5v-332h-73v705h73v-294h6q13 18 33.5 36t46.5 33t56.5 24t62.5 9q79 0 123.5 -44t44.5 -113q0 -65 -33 -108t-84 -69zM246 -51h67l-57 -200h-60z
" />
    <glyph glyph-name="kgreenlandic" unicode="&#x138;" horiz-adv-x="505" 
d="M80 496h73v-212h6l238 213h89l-259 -231l280 -266h-92l-256 240h-6v-240h-73v496z" />
    <glyph glyph-name="Lacute" unicode="&#x139;" horiz-adv-x="492" 
d="M227 954h72l-137 -195h-65zM93 689h77v-617h306v-72h-383v689z" />
    <glyph glyph-name="lacute" unicode="&#x13a;" horiz-adv-x="233" 
d="M212 1014h73l-138 -195h-64zM80 705h73v-705h-73v705z" />
    <glyph glyph-name="uni013B" unicode="&#x13b;" horiz-adv-x="492" 
d="M93 689h77v-617h306v-72h-383v689zM256 -51h67l-57 -200h-60z" />
    <glyph glyph-name="uni013C" unicode="&#x13c;" horiz-adv-x="233" 
d="M80 705h73v-705h-73v705zM84 -51h67l-57 -200h-60z" />
    <glyph glyph-name="Lcaron" unicode="&#x13d;" horiz-adv-x="500" 
d="M369 690h67l-57 -200h-60zM93 689h77v-617h306v-72h-383v689z" />
    <glyph glyph-name="lcaron" unicode="&#x13e;" horiz-adv-x="277" 
d="M80 705h73v-705h-73v705zM253 705h66l-57 -200h-59z" />
    <glyph glyph-name="Ldot" unicode="&#x13f;" horiz-adv-x="510" 
d="M93 689h77v-617h306v-72h-383v689zM396 327q-23 0 -39.5 16.5t-16.5 39.5q0 24 17 40.5t39 16.5q24 0 41 -17t17 -40t-17 -39.5t-41 -16.5z" />
    <glyph glyph-name="ldot" unicode="&#x140;" horiz-adv-x="286" 
d="M80 705h73v-705h-73v705zM259 322q-23 0 -39.5 16.5t-16.5 39.5q0 24 16.5 40.5t39.5 16.5t40 -17t17 -40t-17 -39.5t-40 -16.5z" />
    <glyph glyph-name="Lslash" unicode="&#x141;" horiz-adv-x="533" 
d="M518 72v-72h-384v283l-78 -55l-32 47l110 78v336h77v-282l114 81l31 -48l-145 -102v-266h307z" />
    <glyph glyph-name="lslash" unicode="&#x142;" horiz-adv-x="336" 
d="M205 349v-349h-74v314l-92 -43l-24 54l116 55v325h74v-290l95 45l25 -54z" />
    <glyph glyph-name="Nacute" unicode="&#x143;" horiz-adv-x="759" 
d="M466 953h73l-137 -195h-65zM590 144v545h76v-689h-46l-446 541h-5v-541h-76v689h46l446 -545h5z" />
    <glyph glyph-name="nacute" unicode="&#x144;" horiz-adv-x="613" 
d="M408 776h73l-137 -195h-65zM80 496h60l8 -88h7q10 20 26 38.5t38 33t50 23t62 8.5q100 0 155.5 -58.5t55.5 -158.5v-294h-75v280q0 77 -41.5 120.5t-112.5 43.5q-39 0 -68.5 -15t-49.5 -40t-30.5 -57t-10.5 -67v-265h-74v496z" />
    <glyph glyph-name="uni0145" unicode="&#x145;" horiz-adv-x="759" 
d="M590 144v545h76v-689h-46l-446 541h-5v-541h-76v689h46l446 -545h5zM348 -51h67l-57 -200h-60z" />
    <glyph glyph-name="uni0146" unicode="&#x146;" horiz-adv-x="613" 
d="M80 496h60l8 -88h7q10 20 26 38.5t38 33t50 23t62 8.5q100 0 155.5 -58.5t55.5 -158.5v-294h-75v280q0 77 -41.5 120.5t-112.5 43.5q-39 0 -68.5 -15t-49.5 -40t-30.5 -57t-10.5 -67v-265h-74v496zM283 -51h66l-57 -199h-59z" />
    <glyph glyph-name="Ncaron" unicode="&#x147;" horiz-adv-x="759" 
d="M200 952h66l101 -136h6l99 136h66l-139 -192h-60zM590 144v545h76v-689h-46l-446 541h-5v-541h-76v689h46l446 -545h5z" />
    <glyph glyph-name="ncaron" unicode="&#x148;" horiz-adv-x="613" 
d="M142 774h66l100 -136h7l99 136h66l-139 -192h-60zM80 496h60l8 -88h7q10 20 26 38.5t38 33t50 23t62 8.5q100 0 155.5 -58.5t55.5 -158.5v-294h-75v280q0 77 -41.5 120.5t-112.5 43.5q-39 0 -68.5 -15t-49.5 -40t-30.5 -57t-10.5 -67v-265h-74v496z" />
    <glyph glyph-name="napostrophe" unicode="&#x149;" horiz-adv-x="613" 
d="M80 496h60l8 -88h7q10 20 26 38.5t38 33t50 23t62 8.5q100 0 155.5 -58.5t55.5 -158.5v-294h-75v280q0 77 -41.5 120.5t-112.5 43.5q-39 0 -68.5 -15t-49.5 -40t-30.5 -57t-10.5 -67v-265h-74v496zM273 -51h66l-57 -199h-60z" />
    <glyph glyph-name="Eng" unicode="&#x14a;" horiz-adv-x="759" 
d="M666 689v-718q0 -42 -6 -79t-23 -64t-48 -42.5t-82 -15.5q-24 0 -40 2t-41 10v63h7q19 -7 32.5 -9.5t30.5 -2.5q35 0 54 12t28 33t10.5 50t1.5 63v45l-416 505h-5v-541h-76v689h46l446 -545h5v545h76z" />
    <glyph glyph-name="eng" unicode="&#x14b;" horiz-adv-x="613" 
d="M331 511q100 0 155.5 -58.5t55.5 -158.5v-320q0 -43 -6 -80t-23 -64t-48.5 -42.5t-82.5 -15.5q-24 0 -41 2.5t-42 9.5v64h7q19 -7 32.5 -10t30.5 -3q35 0 55 12t29.5 33.5t11.5 50.5t2 63v286q0 77 -41.5 120.5t-112.5 43.5q-39 0 -68.5 -15t-49.5 -40t-30.5 -57
t-10.5 -67v-265h-74v496h60l8 -88h7q10 20 26 38.5t38 33t50 23t62 8.5z" />
    <glyph glyph-name="Omacron" unicode="&#x14c;" horiz-adv-x="821" 
d="M233 875h355v-55h-355v55zM411 -15q-79 0 -145.5 27.5t-115.5 76.5t-76.5 115t-27.5 142t27.5 141.5t76 113.5t115.5 75.5t146 27.5t145.5 -27.5t115 -75.5t76 -113.5t27.5 -141.5t-27.5 -142t-76 -115t-115 -76.5t-145.5 -27.5zM411 55q61 0 113 22.5t89.5 62t59 92.5
t21.5 114q0 60 -21.5 112.5t-59 91.5t-89.5 61.5t-113 22.5t-113 -22.5t-90 -61.5t-59.5 -91.5t-21.5 -112.5q0 -61 21.5 -114t59.5 -92.5t90 -62t113 -22.5z" />
    <glyph glyph-name="omacron" unicode="&#x14d;" horiz-adv-x="611" 
d="M129 683h355v-55h-355v55zM304 -16q-55 0 -103 19.5t-83 55t-55.5 84t-20.5 106.5t20.5 106t56.5 83t84 54.5t103 19.5q54 0 102 -19.5t84 -54.5t56.5 -83t20.5 -106t-20.5 -106.5t-56.5 -84t-84 -55t-104 -19.5zM304 52q40 0 74.5 14.5t60.5 40.5t41 62.5t15 79.5
t-14.5 79t-40 61.5t-60 40t-74.5 14.5t-75 -14.5t-60.5 -40t-40 -61.5t-14.5 -79t14.5 -79.5t40 -62.5t60 -40.5t73.5 -14.5z" />
    <glyph glyph-name="Ohungarumlaut" unicode="&#x150;" horiz-adv-x="821" 
d="M371 969h74l-109 -193h-61zM572 969h74l-109 -193h-60zM411 -15q-79 0 -145.5 27.5t-115.5 76.5t-76.5 115t-27.5 142t27.5 141.5t76 113.5t115.5 75.5t146 27.5t145.5 -27.5t115 -75.5t76 -113.5t27.5 -141.5t-27.5 -142t-76 -115t-115 -76.5t-145.5 -27.5zM411 55
q61 0 113 22.5t89.5 62t59 92.5t21.5 114q0 60 -21.5 112.5t-59 91.5t-89.5 61.5t-113 22.5t-113 -22.5t-90 -61.5t-59.5 -91.5t-21.5 -112.5q0 -61 21.5 -114t59.5 -92.5t90 -62t113 -22.5z" />
    <glyph glyph-name="ohungarumlaut" unicode="&#x151;" horiz-adv-x="611" 
d="M267 777h74l-109 -193h-61zM469 777h73l-109 -193h-60zM304 -16q-55 0 -103 19.5t-83 55t-55.5 84t-20.5 106.5t20.5 106t56.5 83t84 54.5t103 19.5q54 0 102 -19.5t84 -54.5t56.5 -83t20.5 -106t-20.5 -106.5t-56.5 -84t-84 -55t-104 -19.5zM304 52q40 0 74.5 14.5
t60.5 40.5t41 62.5t15 79.5t-14.5 79t-40 61.5t-60 40t-74.5 14.5t-75 -14.5t-60.5 -40t-40 -61.5t-14.5 -79t14.5 -79.5t40 -62.5t60 -40.5t73.5 -14.5z" />
    <glyph glyph-name="OE" unicode="&#x152;" horiz-adv-x="1162" 
d="M773 627v-250h307v-60h-307v-255h344v-62h-421v120q-49 -63 -122.5 -99t-162.5 -36q-79 0 -145.5 27.5t-115.5 76.5t-76.5 115t-27.5 142t27.5 141.5t76 113.5t115.5 75.5t146 27.5q89 0 162.5 -36t122.5 -98v119h421v-62h-344zM411 55q61 0 113 22.5t89.5 62t59 92.5
t21.5 114q0 60 -21.5 112.5t-59 91.5t-89.5 61.5t-113 22.5t-113 -22.5t-90 -61.5t-59.5 -91.5t-21.5 -112.5q0 -61 21.5 -114t59.5 -92.5t90 -62t113 -22.5z" />
    <glyph glyph-name="oe" unicode="&#x153;" horiz-adv-x="1024" 
d="M985 283q0 -14 -1.5 -33t-5.5 -33h-410q5 -44 23 -76.5t45.5 -53.5t63 -31.5t74.5 -10.5q48 0 89.5 10.5t86.5 34.5h8v-57q-46 -27 -92.5 -38t-100.5 -11q-81 0 -141.5 32.5t-92.5 91.5q-35 -58 -94.5 -91t-132.5 -33q-55 0 -103 19.5t-83 55t-55.5 84t-20.5 106.5
t20.5 106t56.5 83t84 54.5t103 19.5q72 0 131 -33t94 -90q33 60 90 91.5t125 31.5q52 0 96 -15.5t75.5 -45t49.5 -72t18 -96.5zM919 297q-1 33 -12.5 62t-33 50t-53 33t-73.5 12q-32 0 -62.5 -10.5t-55 -32t-40.5 -54.5t-21 -77h351v17zM304 52q40 0 74.5 14.5t60.5 40.5
t41 62.5t15 79.5t-14.5 79t-40 61.5t-60 40t-74.5 14.5t-75 -14.5t-60.5 -40t-40 -61.5t-14.5 -79t14.5 -79.5t40 -62.5t60 -40.5t73.5 -14.5z" />
    <glyph glyph-name="Racute" unicode="&#x154;" horiz-adv-x="633" 
d="M318 759h-64l129 195h73zM602 0h-87l-199 286h-147v-286h-76v690h254q106 0 166.5 -54t60.5 -147q0 -40 -13.5 -73.5t-37.5 -58.5t-57 -40.5t-72 -20.5zM345 348q69 0 111 38.5t42 100.5q0 64 -42 100t-112 36h-175v-275h176z" />
    <glyph glyph-name="racute" unicode="&#x155;" horiz-adv-x="347" 
d="M291 760h72l-137 -194h-64zM80 496h58l9 -88h6q20 42 64.5 72.5t103.5 30.5h14v-70h-15q-35 0 -65.5 -13t-53 -38t-35.5 -60t-13 -79v-251h-73v496z" />
    <glyph glyph-name="uni0156" unicode="&#x156;" horiz-adv-x="633" 
d="M602 0h-87l-199 286h-147v-286h-76v690h254q106 0 166.5 -54t60.5 -147q0 -40 -13.5 -73.5t-37.5 -58.5t-57 -40.5t-72 -20.5zM345 348q69 0 111 38.5t42 100.5q0 64 -42 100t-112 36h-175v-275h176zM297 -51h66l-56 -200h-60z" />
    <glyph glyph-name="uni0157" unicode="&#x157;" horiz-adv-x="347" 
d="M80 496h58l9 -88h6q20 42 64.5 72.5t103.5 30.5h14v-70h-15q-35 0 -65.5 -13t-53 -38t-35.5 -60t-13 -79v-251h-73v496zM82 -51h66l-57 -200h-59z" />
    <glyph glyph-name="Rcaron" unicode="&#x158;" horiz-adv-x="633" 
d="M283 761l-139 191h66l101 -136h6l100 136h65l-139 -191h-60zM602 0h-87l-199 286h-147v-286h-76v690h254q106 0 166.5 -54t60.5 -147q0 -40 -13.5 -73.5t-37.5 -58.5t-57 -40.5t-72 -20.5zM345 348q69 0 111 38.5t42 100.5q0 64 -42 100t-112 36h-175v-275h176z" />
    <glyph glyph-name="rcaron" unicode="&#x159;" horiz-adv-x="347" 
d="M25 759h66l100 -136h6l100 136h66l-140 -192h-59zM80 496h58l9 -88h6q20 42 64.5 72.5t103.5 30.5h14v-70h-15q-35 0 -65.5 -13t-53 -38t-35.5 -60t-13 -79v-251h-73v496z" />
    <glyph glyph-name="Sacute" unicode="&#x15a;" horiz-adv-x="572" 
d="M374 968h72l-137 -195h-64zM276 -15q-59 0 -122.5 14t-113.5 40v73h8q48 -27 108 -42.5t118 -15.5q38 0 70 7.5t55.5 22.5t37 38t13.5 54q0 37 -15.5 59.5t-42 37t-62 25t-76.5 24.5q-37 13 -72.5 28t-62.5 36.5t-43.5 52.5t-16.5 76q0 50 19.5 85.5t53 58.5t78.5 34
t96 11q52 0 103.5 -11t91.5 -32v-72h-8q-18 10 -42 18.5t-49.5 15t-51.5 10.5t-50 4q-33 0 -62.5 -7t-51 -21t-34 -36.5t-12.5 -53.5q0 -34 14.5 -56.5t37.5 -37.5t53 -25t60 -19q46 -13 87 -27.5t72 -36.5t49.5 -54.5t18.5 -81.5q0 -51 -19.5 -88t-53.5 -61t-81 -35.5
t-102 -11.5z" />
    <glyph glyph-name="sacute" unicode="&#x15b;" horiz-adv-x="499" 
d="M319 776h72l-137 -195h-64zM246 -16q-35 0 -66.5 5t-58 12.5t-47 15.5t-33.5 15l1 62h8q37 -20 89.5 -35.5t109.5 -15.5q73 0 107 24.5t34 62.5q0 26 -12 42t-31.5 26t-45 16t-53.5 12q-45 9 -81.5 20t-62.5 27.5t-40 41.5t-14 61q0 34 14.5 59.5t40 42t61 25t77.5 8.5
q51 0 103 -12.5t86 -29.5v-61h-9q-32 19 -81 33.5t-97 14.5q-55 0 -88 -18t-33 -58q0 -24 11 -39.5t30.5 -25.5t47.5 -16.5t62 -13.5q38 -7 72 -17t59.5 -27t41 -43t15.5 -66q0 -31 -13 -58.5t-39.5 -47t-67.5 -31t-97 -11.5z" />
    <glyph glyph-name="Scedilla" unicode="&#x15e;" horiz-adv-x="572" 
d="M532 181q0 -48 -17.5 -84t-48 -60t-73 -36.5t-93.5 -14.5l-12 -41l16.5 -3t35.5 -13t35 -29.5t16 -52.5q0 -52 -35.5 -78.5t-94.5 -26.5q-22 0 -39.5 3t-29.5 7q-15 4 -26 10l15 46q2 -2 20.5 -9t52.5 -7q35 0 56 15t21 46q0 21 -12 33t-28.5 18.5t-34 8t-28.5 1.5l21 72
q-54 3 -109.5 16.5t-99.5 36.5v73h8q48 -27 108 -42.5t118 -15.5q38 0 70 7.5t55.5 22.5t37 38t13.5 54q0 37 -15.5 59.5t-42 37t-62 25t-76.5 24.5q-37 13 -72.5 28t-62.5 36.5t-43.5 52.5t-16.5 76q0 50 19.5 85.5t53 58.5t78.5 34t96 11q52 0 103.5 -11t91.5 -32v-72h-8
q-18 10 -42 18.5t-49.5 15t-51.5 10.5t-50 4q-33 0 -62.5 -7t-51 -21t-34 -36.5t-12.5 -53.5q0 -34 14.5 -56.5t37.5 -37.5t53 -25t60 -19q46 -13 87 -27.5t72 -36.5t49.5 -54.5t18.5 -81.5z" />
    <glyph glyph-name="scedilla" unicode="&#x15f;" horiz-adv-x="499" 
d="M463 132q0 -59 -47 -101t-145 -46l-13 -41l16.5 -2.5t36 -12.5t35.5 -29.5t16 -52.5q0 -52 -35.5 -79t-95.5 -27q-22 0 -39 3t-30 7q-14 4 -25 10l14 46q3 -2 21 -9t52 -7q35 0 56.5 15t21.5 46q0 21 -12 33.5t-28.5 18.5t-34 7.5t-29.5 1.5l22 72q-62 4 -108.5 19.5
t-70.5 27.5l1 62h8q37 -20 89.5 -35.5t109.5 -15.5q73 0 107 24.5t34 62.5q0 26 -12 42t-31.5 26t-45 16t-53.5 12q-45 9 -81.5 20t-62.5 27.5t-40 41.5t-14 61q0 34 14.5 59.5t40 42t61 25t77.5 8.5q51 0 103 -12.5t86 -29.5v-61h-9q-32 19 -81 33.5t-97 14.5
q-55 0 -88 -18t-33 -58q0 -24 11 -39.5t30.5 -25.5t47.5 -16.5t62 -13.5q38 -7 72 -17t59.5 -27t41 -43t15.5 -66z" />
    <glyph glyph-name="Scaron" unicode="&#x160;" horiz-adv-x="572" 
d="M135 967h66l101 -136h6l100 136h65l-139 -192h-60zM276 -15q-59 0 -122.5 14t-113.5 40v73h8q48 -27 108 -42.5t118 -15.5q38 0 70 7.5t55.5 22.5t37 38t13.5 54q0 37 -15.5 59.5t-42 37t-62 25t-76.5 24.5q-37 13 -72.5 28t-62.5 36.5t-43.5 52.5t-16.5 76
q0 50 19.5 85.5t53 58.5t78.5 34t96 11q52 0 103.5 -11t91.5 -32v-72h-8q-18 10 -42 18.5t-49.5 15t-51.5 10.5t-50 4q-33 0 -62.5 -7t-51 -21t-34 -36.5t-12.5 -53.5q0 -34 14.5 -56.5t37.5 -37.5t53 -25t60 -19q46 -13 87 -27.5t72 -36.5t49.5 -54.5t18.5 -81.5
q0 -51 -19.5 -88t-53.5 -61t-81 -35.5t-102 -11.5z" />
    <glyph glyph-name="scaron" unicode="&#x161;" horiz-adv-x="499" 
d="M75 774h66l101 -136h6l99 136h66l-139 -192h-60zM246 -16q-35 0 -66.5 5t-58 12.5t-47 15.5t-33.5 15l1 62h8q37 -20 89.5 -35.5t109.5 -15.5q73 0 107 24.5t34 62.5q0 26 -12 42t-31.5 26t-45 16t-53.5 12q-45 9 -81.5 20t-62.5 27.5t-40 41.5t-14 61q0 34 14.5 59.5
t40 42t61 25t77.5 8.5q51 0 103 -12.5t86 -29.5v-61h-9q-32 19 -81 33.5t-97 14.5q-55 0 -88 -18t-33 -58q0 -24 11 -39.5t30.5 -25.5t47.5 -16.5t62 -13.5q38 -7 72 -17t59.5 -27t41 -43t15.5 -66q0 -31 -13 -58.5t-39.5 -47t-67.5 -31t-97 -11.5z" />
    <glyph glyph-name="uni0162" unicode="&#x162;" horiz-adv-x="546" 
d="M299 0l-17 -54l16.5 -2.5t35.5 -12.5t35 -29.5t16 -52.5q0 -52 -35 -79t-95 -27q-22 0 -39 3t-30 7q-14 4 -25 10l14 46q3 -1 21 -8.5t52 -7.5q35 0 56.5 15t21.5 46q0 21 -12 33.5t-28.5 19t-34 8t-29.5 1.5l26 84h-14v617h-221v72h520v-72h-221v-617h-13z" />
    <glyph glyph-name="uni0163" unicode="&#x163;" horiz-adv-x="370" 
d="M257 -16l-12 -43l16.5 -2.5t35.5 -12.5t35 -29.5t16 -52.5q0 -52 -35.5 -79t-95.5 -27q-22 0 -39 3t-29 7q-15 4 -26 10l14 47q3 -2 21.5 -9t52.5 -7q35 0 56 15t21 45q0 21 -12 33.5t-28.5 19t-34 8t-28.5 1.5l24 82q-59 17 -85.5 68t-26.5 130v242h-77v63h80l14 122h56
v-122h170v-63h-170v-243q0 -67 25.5 -103t88.5 -36q22 0 39 4t31 11h8v-66q-23 -9 -44 -12.5t-44 -3.5h-17z" />
    <glyph glyph-name="Tcaron" unicode="&#x164;" horiz-adv-x="546" 
d="M103 952h66l101 -136h6l99 136h66l-139 -192h-60zM234 617h-221v72h520v-72h-221v-617h-78v617z" />
    <glyph glyph-name="tcaron" unicode="&#x165;" horiz-adv-x="370" 
d="M360 575h-60l50 200h67zM284 51q22 0 39 4t31 11h8v-66q-23 -9 -44 -12.5t-44 -3.5q-94 0 -135.5 54t-41.5 153v242h-77v63h80l14 122h56v-122h170v-63h-170v-243q0 -67 25.5 -103t88.5 -36z" />
    <glyph glyph-name="Tbar" unicode="&#x166;" horiz-adv-x="571" 
d="M324 617v-256h154v-60h-154v-301h-77v301h-153v60h153v256h-222v72h520v-72h-221z" />
    <glyph glyph-name="tbar" unicode="&#x167;" horiz-adv-x="380" 
d="M368 66v-66q-23 -9 -44 -12.5t-44 -3.5q-94 0 -135.5 54t-41.5 153v61h-78v48h78v133h-78v63h81l14 122h56v-122h170v-63h-170v-133h170v-48h-170v-62q0 -67 25 -103t89 -36q22 0 39 4t31 11h8z" />
    <glyph glyph-name="Utilde" unicode="&#x168;" horiz-adv-x="759" 
d="M475 771q-30 0 -51 12t-39 27t-36 27t-41 12q-31 0 -40.5 -20.5t-10.5 -47.5h-54q0 54 26.5 89.5t77.5 35.5q29 0 50 -12t39.5 -27t36.5 -27t42 -12q30 0 39 18.5t10 41.5h55q0 -55 -25.5 -86t-78.5 -31zM378 -15q-72 0 -127.5 21t-92.5 60.5t-56 96t-19 126.5v400h77
v-397q0 -48 11.5 -91.5t37.5 -75.5t68 -51t102 -19q61 0 103 19t68 51t37.5 75.5t11.5 91.5v397h77v-400q0 -70 -19.5 -126.5t-57 -96t-93.5 -60.5t-128 -21z" />
    <glyph glyph-name="utilde" unicode="&#x169;" horiz-adv-x="591" 
d="M390 589q-30 0 -51 12t-39.5 27t-36.5 27t-41 12q-31 0 -40 -20.5t-10 -48.5h-54q0 54 26.5 90t77.5 36q29 0 50 -12t39.5 -27t36.5 -27t41 -12q31 0 40 18t10 42h54q0 -55 -25 -86t-78 -31zM295 -13q-104 0 -164 57t-60 160v292h74v-286q0 -77 39 -116t111 -39
q73 0 112 39.5t39 114.5v286h74v-290q0 -105 -61.5 -161.5t-163.5 -56.5z" />
    <glyph glyph-name="Umacron" unicode="&#x16a;" horiz-adv-x="759" 
d="M203 850h355v-56h-355v56zM378 -15q-72 0 -127.5 21t-92.5 60.5t-56 96t-19 126.5v400h77v-397q0 -48 11.5 -91.5t37.5 -75.5t68 -51t102 -19q61 0 103 19t68 51t37.5 75.5t11.5 91.5v397h77v-400q0 -70 -19.5 -126.5t-57 -96t-93.5 -60.5t-128 -21z" />
    <glyph glyph-name="umacron" unicode="&#x16b;" horiz-adv-x="591" 
d="M117 667h355v-55h-355v55zM295 -13q-104 0 -164 57t-60 160v292h74v-286q0 -77 39 -116t111 -39q73 0 112 39.5t39 114.5v286h74v-290q0 -105 -61.5 -161.5t-163.5 -56.5z" />
    <glyph glyph-name="Uring" unicode="&#x16e;" horiz-adv-x="759" 
d="M381 746q-45 0 -75 29.5t-30 71.5t30 71.5t75 29.5t75 -29.5t30 -71.5t-30 -71.5t-75 -29.5zM381 790q23 0 39.5 16.5t16.5 40.5q0 25 -16.5 40.5t-39.5 15.5t-39.5 -15.5t-16.5 -40.5t16 -41t40 -16zM378 -15q-72 0 -127.5 21t-92.5 60.5t-56 96t-19 126.5v400h77v-397
q0 -48 11.5 -91.5t37.5 -75.5t68 -51t102 -19q61 0 103 19t68 51t37.5 75.5t11.5 91.5v397h77v-400q0 -70 -19.5 -126.5t-57 -96t-93.5 -60.5t-128 -21z" />
    <glyph glyph-name="uring" unicode="&#x16f;" horiz-adv-x="591" 
d="M296 564q-45 0 -75 29.5t-30 71.5t30 71.5t75 29.5t74.5 -29.5t29.5 -71.5t-29.5 -71.5t-74.5 -29.5zM296 608q23 0 39.5 16.5t16.5 40.5q0 25 -16.5 40.5t-39.5 15.5t-40 -15.5t-17 -40.5t16.5 -41t40.5 -16zM295 -13q-104 0 -164 57t-60 160v292h74v-286q0 -77 39 -116
t111 -39q73 0 112 39.5t39 114.5v286h74v-290q0 -105 -61.5 -161.5t-163.5 -56.5z" />
    <glyph glyph-name="Uhungarumlaut" unicode="&#x170;" horiz-adv-x="759" 
d="M334 944h74l-109 -194h-60zM536 944h74l-109 -194h-61zM378 -15q-72 0 -127.5 21t-92.5 60.5t-56 96t-19 126.5v400h77v-397q0 -48 11.5 -91.5t37.5 -75.5t68 -51t102 -19q61 0 103 19t68 51t37.5 75.5t11.5 91.5v397h77v-400q0 -70 -19.5 -126.5t-57 -96t-93.5 -60.5
t-128 -21z" />
    <glyph glyph-name="uhungarumlaut" unicode="&#x171;" horiz-adv-x="591" 
d="M255 762h74l-109 -194h-61zM457 762h73l-109 -194h-60zM295 -13q-104 0 -164 57t-60 160v292h74v-286q0 -77 39 -116t111 -39q73 0 112 39.5t39 114.5v286h74v-290q0 -105 -61.5 -161.5t-163.5 -56.5z" />
    <glyph glyph-name="Uogonek" unicode="&#x172;" horiz-adv-x="759" 
d="M676 689v-400q0 -127 -61 -205.5t-179 -94.5q-13 -6 -29 -15.5t-30 -23.5t-23 -34t-9 -47q0 -35 20 -54.5t53 -19.5q19 0 37 5v-51q-24 -8 -52 -8q-51 0 -86.5 31.5t-35.5 90.5q0 46 20 75.5t46 47.5q-130 9 -197 89.5t-67 213.5v400h77v-397q0 -48 11.5 -91.5
t37.5 -75.5t68 -51t102 -19q61 0 103 19t68 51t37.5 75.5t11.5 91.5v397h77z" />
    <glyph glyph-name="uogonek" unicode="&#x173;" horiz-adv-x="591" 
d="M520 495v-290q0 -89 -44.5 -143t-120.5 -69q-13 -6 -29 -16t-29 -24t-22 -33.5t-9 -46.5q0 -35 20.5 -54t52.5 -19q11 0 20.5 1t17.5 3v-51q-12 -3 -25 -5t-27 -2q-51 0 -87 31t-36 90q0 45 19 74t45 47q-91 8 -143 64t-52 152v292h74v-286q0 -77 39 -116t111 -39
q73 0 112 39.5t39 114.5v286h74z" />
    <glyph glyph-name="Wcircumflex" unicode="&#x174;" horiz-adv-x="1035" 
d="M488 952h59l140 -192h-66l-99 136h-7l-100 -136h-66zM12 689h80l185 -552h6l212 552h45l212 -552h5l185 552h81l-244 -689h-41l-218 567h-5l-219 -567h-40z" />
    <glyph glyph-name="wcircumflex" unicode="&#x175;" horiz-adv-x="816" 
d="M376 757h59l140 -192h-66l-99 136h-7l-100 -136h-66zM14 496h76l143 -376h6l145 376h48l145 -376h6l143 376h76l-199 -496h-41l-151 388h-6l-152 -388h-41z" />
    <glyph glyph-name="Ycircumflex" unicode="&#x176;" horiz-adv-x="625" 
d="M282 951h60l139 -192h-66l-99 136h-6l-101 -136h-66zM274 267l-258 422h83l210 -345h6l212 345h83l-259 -422v-267h-77v267z" />
    <glyph glyph-name="ycircumflex" unicode="&#x177;" horiz-adv-x="533" 
d="M235 759h60l139 -192h-66l-99 136h-7l-100 -136h-66zM87 -230q-16 0 -29.5 2t-35.5 9v63h8q14 -5 25.5 -7t25.5 -2q34 0 57.5 13t40 35t28.5 50t23 57l-215 506h80l171 -425h6l166 425h80l-213 -508q-18 -44 -36.5 -83.5t-43 -69.5t-57.5 -47.5t-81 -17.5z" />
    <glyph glyph-name="Ydieresis" unicode="&#x178;" horiz-adv-x="625" 
d="M205 796q-23 0 -38.5 15.5t-15.5 37.5q0 23 15.5 38.5t38.5 15.5q22 0 37.5 -15.5t15.5 -38.5q0 -22 -15.5 -37.5t-37.5 -15.5zM422 796q-22 0 -37.5 15.5t-15.5 37.5q0 23 15.5 38.5t37.5 15.5q23 0 38.5 -15.5t15.5 -38.5q0 -22 -15.5 -37.5t-38.5 -15.5zM274 267
l-258 422h83l210 -345h6l212 345h83l-259 -422v-267h-77v267z" />
    <glyph glyph-name="Zacute" unicode="&#x179;" horiz-adv-x="625" 
d="M395 953h72l-137 -195h-65zM22 41l457 579h-438v69h551v-41l-456 -579h465v-69h-579v41z" />
    <glyph glyph-name="zacute" unicode="&#x17a;" horiz-adv-x="471" 
d="M337 760h73l-138 -195h-64zM27 40l310 392h-293v64h392v-39l-310 -392h313v-65h-412v40z" />
    <glyph glyph-name="Zdotaccent" unicode="&#x17b;" horiz-adv-x="625" 
d="M298 796q-23 0 -39.5 16.5t-16.5 39.5q0 24 16.5 40.5t39.5 16.5t40 -16.5t17 -40.5q0 -23 -17 -39.5t-40 -16.5zM22 41l457 579h-438v69h551v-41l-456 -579h465v-69h-579v41z" />
    <glyph glyph-name="zdotaccent" unicode="&#x17c;" horiz-adv-x="471" 
d="M241 603q-23 0 -39.5 16.5t-16.5 39.5q0 24 16.5 40.5t39.5 16.5t39.5 -16.5t16.5 -40.5q0 -23 -16.5 -39.5t-39.5 -16.5zM27 40l310 392h-293v64h392v-39l-310 -392h313v-65h-412v40z" />
    <glyph glyph-name="Zcaron" unicode="&#x17d;" horiz-adv-x="625" 
d="M133 952h66l101 -136h6l100 136h65l-139 -192h-60zM22 41l457 579h-438v69h551v-41l-456 -579h465v-69h-579v41z" />
    <glyph glyph-name="zcaron" unicode="&#x17e;" horiz-adv-x="471" 
d="M71 758h66l100 -136h7l99 136h66l-140 -191h-59zM27 40l310 392h-293v64h392v-39l-310 -392h313v-65h-412v40z" />
    <glyph glyph-name="uni01EA" unicode="&#x1ea;" horiz-adv-x="821" 
d="M457 -12q-13 -6 -29.5 -15.5t-30.5 -24t-23.5 -34.5t-9.5 -47q0 -35 20.5 -54.5t52.5 -19.5q11 0 20.5 1t17.5 3v-51q-12 -3 -25 -5t-27 -2q-51 0 -86.5 31t-35.5 90q0 48 22 78.5t49 48.5q-71 7 -131 37t-103.5 77.5t-67.5 110t-24 134.5q0 76 27.5 141.5t76 113.5
t115.5 75.5t146 27.5t145.5 -27.5t115 -75.5t76 -113.5t27.5 -141.5q0 -71 -23.5 -133t-65.5 -109t-100.5 -77.5t-128.5 -38.5zM127 346q0 -61 21.5 -114t59.5 -92.5t90 -62t113 -22.5t113 22.5t89.5 62t59 92.5t21.5 114q0 60 -21.5 112.5t-59 91.5t-89.5 61.5t-113 22.5
t-113 -22.5t-90 -61.5t-59.5 -91.5t-21.5 -112.5z" />
    <glyph glyph-name="uni01EB" unicode="&#x1eb;" horiz-adv-x="611" 
d="M408 4q-14 -8 -29.5 -17.5t-28 -23.5t-21 -32.5t-8.5 -43.5q0 -34 19.5 -54t53.5 -20q20 0 38 5v-51q-12 -3 -25 -5t-27 -2q-54 0 -88.5 30.5t-34.5 84.5q0 37 15 64t37 45h-5q-55 0 -103 19.5t-83 55t-55.5 84t-20.5 106.5t20.5 106t56.5 83t84 54.5t103 19.5
q54 0 102 -19.5t84 -54.5t56.5 -83t20.5 -106q0 -88 -44.5 -152t-116.5 -93zM116 249q0 -43 14.5 -79.5t40 -62.5t60 -40.5t73.5 -14.5q40 0 74.5 14.5t60.5 40.5t41 62.5t15 79.5t-14.5 79t-40 61.5t-60 40t-74.5 14.5t-75 -14.5t-60.5 -40t-40 -61.5t-14.5 -79z" />
    <glyph glyph-name="AEacute" unicode="&#x1fc;" horiz-adv-x="883" 
d="M573 758h-64l129 195h73zM494 627v-250h307v-60h-307v-255h344v-62h-421v193h-236l-111 -193h-81l397 689h452v-62h-344zM417 253v331h-11l-190 -331h201z" />
    <glyph glyph-name="aeacute" unicode="&#x1fd;" horiz-adv-x="1036" 
d="M575 566h-64l129 195h72zM997 283q0 -14 -1 -27t-5 -27h-412q3 -48 22 -83t48 -57.5t65 -33t74 -10.5q46 0 85 10.5t84 34.5h8v-57q-43 -26 -84 -37.5t-88 -11.5q-73 0 -131 30t-90 88v-102h-54l-9 103h-6q-10 -22 -29 -43.5t-44.5 -38t-58 -27t-70.5 -10.5
q-56 0 -103.5 19.5t-82 55t-54 83.5t-19.5 105t19.5 106t54 84t81.5 55t103 20q38 0 70.5 -10.5t59 -27t45.5 -37.5t29 -43h6l8 102h54v-101q32 57 85 87t114 30q48 0 89.5 -15.5t72 -45t47.5 -72t17 -96.5zM932 297q-1 33 -12.5 62t-32.5 50t-51 33t-69 12
q-32 0 -63.5 -10.5t-57.5 -32t-43.5 -54.5t-22.5 -77h352v17zM307 51q44 0 79.5 17t61 45t39.5 63.5t14 72.5q0 38 -14 73.5t-40 62.5t-61.5 43.5t-79.5 16.5q-40 0 -75 -14t-60.5 -40t-40.5 -62t-15 -80t15 -80.5t41 -62.5t61 -40.5t75 -14.5z" />
    <glyph glyph-name="Oslashacute" unicode="&#x1fe;" horiz-adv-x="834" 
d="M457 772h-65l129 195h73zM698 580q40 -48 62 -107t22 -127q0 -76 -27.5 -142t-76 -115t-115.5 -76.5t-146 -27.5q-70 0 -130.5 22t-107.5 61l-84 -82l-43 52l79 78q-38 47 -58.5 105t-20.5 125q0 76 27.5 141.5t76.5 113.5t115.5 75.5t145.5 27.5q69 0 128 -20.5
t106 -58.5l102 100l41 -51zM133 346q0 -50 14.5 -94t40.5 -81l408 401q-36 29 -81 45.5t-98 16.5q-61 0 -113 -22.5t-90 -61.5t-59.5 -91.5t-21.5 -112.5zM701 346q0 51 -15.5 96.5t-43.5 81.5l-409 -402q37 -32 83.5 -49.5t100.5 -17.5q61 0 113 22.5t90 62t59.5 92.5
t21.5 114z" />
    <glyph glyph-name="oslashacute" unicode="&#x1ff;" horiz-adv-x="638" 
d="M350 581h-64l129 194h72zM543 393q19 -30 29.5 -66t10.5 -78q0 -58 -20.5 -106.5t-56.5 -84t-84.5 -55t-104.5 -19.5q-53 0 -98.5 18t-80.5 50l-74 -62l-40 52l72 60q-20 31 -30.5 68t-10.5 79q0 58 20.5 106t56.5 83t84 54.5t103 19.5q53 0 99.5 -18t81.5 -50l73 61
l42 -51zM129 249q0 -55 23 -99l293 247q-25 23 -57 35t-69 12q-40 0 -75 -14.5t-60.5 -40t-40 -61.5t-14.5 -79zM509 249q0 55 -23 96l-293 -247q25 -22 56.5 -34t67.5 -12q40 0 75 14.5t61 40.5t41 62.5t15 79.5z" />
    <glyph glyph-name="uni0218" unicode="&#x218;" horiz-adv-x="572" 
d="M276 -15q-59 0 -122.5 14t-113.5 40v73h8q48 -27 108 -42.5t118 -15.5q38 0 70 7.5t55.5 22.5t37 38t13.5 54q0 37 -15.5 59.5t-42 37t-62 25t-76.5 24.5q-37 13 -72.5 28t-62.5 36.5t-43.5 52.5t-16.5 76q0 50 19.5 85.5t53 58.5t78.5 34t96 11q52 0 103.5 -11t91.5 -32
v-72h-8q-18 10 -42 18.5t-49.5 15t-51.5 10.5t-50 4q-33 0 -62.5 -7t-51 -21t-34 -36.5t-12.5 -53.5q0 -34 14.5 -56.5t37.5 -37.5t53 -25t60 -19q46 -13 87 -27.5t72 -36.5t49.5 -54.5t18.5 -81.5q0 -51 -19.5 -88t-53.5 -61t-81 -35.5t-102 -11.5zM246 -58h66l-56 -200
h-60z" />
    <glyph glyph-name="uni0219" unicode="&#x219;" horiz-adv-x="499" 
d="M246 -16q-35 0 -66.5 5t-58 12.5t-47 15.5t-33.5 15l1 62h8q37 -20 89.5 -35.5t109.5 -15.5q73 0 107 24.5t34 62.5q0 26 -12 42t-31.5 26t-45 16t-53.5 12q-45 9 -81.5 20t-62.5 27.5t-40 41.5t-14 61q0 34 14.5 59.5t40 42t61 25t77.5 8.5q51 0 103 -12.5t86 -29.5v-61
h-9q-32 19 -81 33.5t-97 14.5q-55 0 -88 -18t-33 -58q0 -24 11 -39.5t30.5 -25.5t47.5 -16.5t62 -13.5q38 -7 72 -17t59.5 -27t41 -43t15.5 -66q0 -31 -13 -58.5t-39.5 -47t-67.5 -31t-97 -11.5zM216 -64h67l-57 -200h-60z" />
    <glyph glyph-name="uni021A" unicode="&#x21a;" horiz-adv-x="546" 
d="M234 617h-221v72h520v-72h-221v-617h-78v617zM240 -50h67l-57 -200h-60z" />
    <glyph glyph-name="uni021B" unicode="&#x21b;" horiz-adv-x="370" 
d="M362 66v-66q-23 -9 -44 -12.5t-44 -3.5q-94 0 -135.5 54t-41.5 153v242h-77v63h80l14 122h56v-122h170v-63h-170v-243q0 -67 25.5 -103t88.5 -36q22 0 39 4t31 11h8zM200 -55h67l-57 -200h-60z" />
    <glyph glyph-name="uni0237" unicode="&#x237;" horiz-adv-x="233" 
d="M-5 -228q-24 0 -41 2.5t-42 9.5v64h7q19 -7 32 -10t31 -3q35 0 55 12t29.5 33.5t11.5 50.5t2 63v502h73v-522q0 -43 -5.5 -80t-22.5 -64t-48 -42.5t-82 -15.5z" />
    <glyph glyph-name="circumflex" unicode="&#x2c6;" horiz-adv-x="600" 
d="M242 738h60l139 -192h-65l-100 136h-6l-101 -136h-66z" />
    <glyph glyph-name="caron" unicode="&#x2c7;" horiz-adv-x="600" 
d="M89 738h65l101 -136h6l100 136h66l-140 -192h-60z" />
    <glyph glyph-name="breve" unicode="&#x2d8;" horiz-adv-x="600" 
d="M259 554q-36 0 -66 12t-51.5 34t-34 54t-12.5 72h59q0 -59 30 -88t75 -29q44 0 73.5 29t29.5 88h60q0 -82 -45.5 -127t-117.5 -45z" />
    <glyph glyph-name="dotaccent" unicode="&#x2d9;" horiz-adv-x="600" 
d="M149 583q-23 0 -39.5 16.5t-16.5 39.5t16.5 39.5t39.5 16.5q24 0 40.5 -16.5t16.5 -39.5t-16.5 -39.5t-40.5 -16.5z" />
    <glyph glyph-name="ring" unicode="&#x2da;" horiz-adv-x="600" 
d="M208 542q-45 0 -75 29.5t-30 72.5q0 21 8 39t22.5 32t33.5 22t41 8q23 0 42 -8t33 -22t22 -32t8 -39q0 -43 -30 -72.5t-75 -29.5zM208 587q24 0 40 16t16 41q0 24 -16 40t-40 16q-23 0 -39.5 -16t-16.5 -40q0 -25 16.5 -41t39.5 -16z" />
    <glyph glyph-name="ogonek" unicode="&#x2db;" horiz-adv-x="600" 
d="M209 -253q-51 0 -86.5 31.5t-35.5 90.5q0 50 23.5 81t52.5 48q33 21 76 30l15 -28q-13 -5 -31 -14t-34 -23.5t-27.5 -36t-11.5 -51.5q0 -35 20.5 -54.5t53.5 -19.5q19 0 37 5v-51q-26 -8 -52 -8z" />
    <glyph glyph-name="tilde" unicode="&#x2dc;" horiz-adv-x="490" 
d="M372 570q-30 0 -51 12t-39 27t-36 27t-41 12q-31 0 -40.5 -20.5t-10.5 -48.5h-54q0 54 26.5 90t77.5 36q29 0 50 -12t39.5 -27t36.5 -27t42 -12q30 0 39 18t10 42h55q0 -55 -25 -86t-79 -31z" />
    <glyph glyph-name="hungarumlaut" unicode="&#x2dd;" horiz-adv-x="600" 
d="M189 740h73l-109 -193h-60zM390 740h74l-109 -193h-61z" />
    <glyph glyph-name="gravecomb" unicode="&#x300;" horiz-adv-x="0" 
d="M-289 743h72l129 -194h-64z" />
    <glyph glyph-name="acutecomb" unicode="&#x301;" horiz-adv-x="0" 
d="M-162 743h72l-137 -194h-65z" />
    <glyph glyph-name="uni0302" unicode="&#x302;" horiz-adv-x="0" 
d="M-304 738h60l139 -192h-66l-99 136h-7l-100 -136h-66z" />
    <glyph glyph-name="tildecomb" unicode="&#x303;" horiz-adv-x="0" 
d="M-157 570q-30 0 -51 12t-39 27t-36 27t-41 12q-31 0 -40 -20.5t-10 -48.5h-54q0 54 26 90t78 36q29 0 50 -12t39 -27t36 -27t42 -12q30 0 39.5 18t9.5 42h55q0 -55 -25 -86t-79 -31z" />
    <glyph glyph-name="uni0304" unicode="&#x304;" horiz-adv-x="0" 
d="M-444 635h355v-56h-355v56z" />
    <glyph glyph-name="uni0306" unicode="&#x306;" horiz-adv-x="0" 
d="M-259 554q-36 0 -66 12t-51.5 34t-34 54t-12.5 72h59q0 -59 30 -88t75 -29q44 0 73.5 29t29.5 88h60q0 -82 -45.5 -127t-117.5 -45z" />
    <glyph glyph-name="uni0307" unicode="&#x307;" horiz-adv-x="0" 
d="M-149 583q-23 0 -39.5 16.5t-16.5 39.5t16.5 39.5t39.5 16.5q24 0 40.5 -16.5t16.5 -39.5t-16.5 -39.5t-40.5 -16.5z" />
    <glyph glyph-name="uni0308" unicode="&#x308;" horiz-adv-x="0" 
d="M-388 584q-22 0 -37.5 15.5t-15.5 37.5q0 23 15.5 38.5t37.5 15.5t37.5 -15.5t15.5 -38.5q0 -22 -15.5 -37.5t-37.5 -15.5zM-171 584q-22 0 -37.5 15.5t-15.5 37.5q0 23 15.5 38.5t37.5 15.5q23 0 38.5 -15.5t15.5 -38.5q0 -22 -15.5 -37.5t-38.5 -15.5z" />
    <glyph glyph-name="uni030A" unicode="&#x30a;" horiz-adv-x="0" 
d="M-206 542q-45 0 -75 29.5t-30 72.5q0 21 8 39t22 32t33 22t42 8q22 0 41 -8t33 -22t22 -32t8 -39q0 -43 -29.5 -72.5t-74.5 -29.5zM-206 587q23 0 39.5 16t16.5 41q0 24 -16.5 40t-39.5 16t-40 -16t-17 -40q0 -25 16.5 -41t40.5 -16z" />
    <glyph glyph-name="uni030B" unicode="&#x30b;" horiz-adv-x="0" 
d="M-362 740h74l-109 -193h-61zM-160 740h74l-110 -193h-60z" />
    <glyph glyph-name="uni030C" unicode="&#x30c;" horiz-adv-x="0" 
d="M-427 738h65l101 -136h6l100 136h66l-140 -192h-60z" />
    <glyph glyph-name="uni0326" unicode="&#x326;" horiz-adv-x="0" 
d="M-156 46h66l-57 -200h-59z" />
    <glyph glyph-name="uni0327" unicode="&#x327;" horiz-adv-x="0" 
d="M-221 -258q-22 0 -39 3t-29 7q-15 4 -26 10l15 46q2 -2 20.5 -9t52.5 -7q35 0 56 15t21 46q0 21 -12 33.5t-28.5 18.5t-34 7.5t-28.5 1.5l25 86h51l-16 -55l16.5 -3t35.5 -12.5t35 -29t16 -52.5q0 -52 -35.5 -79t-95.5 -27z" />
    <glyph glyph-name="uni0328" unicode="&#x328;" horiz-adv-x="0" 
d="M-173 -253q-51 0 -86.5 31.5t-35.5 90.5q0 50 23.5 81t52.5 48q33 21 76 30l14 -28q-13 -5 -30.5 -14t-33.5 -23.5t-27.5 -36t-11.5 -51.5q0 -35 20.5 -54.5t52.5 -19.5q20 0 38 5v-51q-26 -8 -52 -8z" />
    <glyph glyph-name="Wgrave" unicode="&#x1e80;" horiz-adv-x="1035" 
d="M355 954h72l129 -195h-64zM12 689h80l185 -552h6l212 552h45l212 -552h5l185 552h81l-244 -689h-41l-218 567h-5l-219 -567h-40z" />
    <glyph glyph-name="wgrave" unicode="&#x1e81;" horiz-adv-x="816" 
d="M243 759h72l129 -195h-64zM14 496h76l143 -376h6l145 376h48l145 -376h6l143 376h76l-199 -496h-41l-151 388h-6l-152 -388h-41z" />
    <glyph glyph-name="Wacute" unicode="&#x1e82;" horiz-adv-x="1035" 
d="M616 953h72l-137 -194h-65zM12 689h80l185 -552h6l212 552h45l212 -552h5l185 552h81l-244 -689h-41l-218 567h-5l-219 -567h-40z" />
    <glyph glyph-name="wacute" unicode="&#x1e83;" horiz-adv-x="816" 
d="M504 758h72l-137 -194h-65zM14 496h76l143 -376h6l145 376h48l145 -376h6l143 376h76l-199 -496h-41l-151 388h-6l-152 -388h-41z" />
    <glyph glyph-name="Wdieresis" unicode="&#x1e84;" horiz-adv-x="1035" 
d="M410 797q-22 0 -37.5 15.5t-15.5 37.5q0 23 15.5 38.5t37.5 15.5q23 0 38.5 -15.5t15.5 -38.5q0 -22 -15.5 -37.5t-38.5 -15.5zM628 797q-22 0 -38 15.5t-16 37.5q0 23 16 38.5t38 15.5t37.5 -15.5t15.5 -38.5q0 -22 -15.5 -37.5t-37.5 -15.5zM12 689h80l185 -552h6
l212 552h45l212 -552h5l185 552h81l-244 -689h-41l-218 567h-5l-219 -567h-40z" />
    <glyph glyph-name="wdieresis" unicode="&#x1e85;" horiz-adv-x="816" 
d="M298 602q-22 0 -37.5 15.5t-15.5 37.5q0 23 15.5 38.5t37.5 15.5q23 0 38.5 -15.5t15.5 -38.5q0 -22 -15.5 -37.5t-38.5 -15.5zM516 602q-22 0 -38 15.5t-16 37.5q0 23 16 38.5t38 15.5t37.5 -15.5t15.5 -38.5q0 -22 -15.5 -37.5t-37.5 -15.5zM14 496h76l143 -376h6
l145 376h48l145 -376h6l143 376h76l-199 -496h-41l-151 388h-6l-152 -388h-41z" />
    <glyph glyph-name="uni1E9E" unicode="&#x1e9e;" horiz-adv-x="730" 
d="M500 364q88 -11 133.5 -60.5t45.5 -128.5q0 -92 -62 -141t-177 -49q-12 0 -28.5 1t-33.5 2.5t-34 4.5t-30 7v63q12 -4 28 -7.5t32.5 -6t31.5 -3t25 -0.5q78 0 125 33.5t47 101.5q0 65 -45.5 101t-123.5 36h-19v47l143 142q0 25 -11.5 48.5t-34.5 41.5t-57 29t-80 11
q-97 0 -151 -45t-54 -136v-456h-77v455q0 124 75.5 186.5t206.5 62.5q62 0 111 -15.5t83 -43t52 -64.5t18 -80z" />
    <glyph glyph-name="Ygrave" unicode="&#x1ef2;" horiz-adv-x="625" 
d="M149 953h72l129 -195h-64zM274 267l-258 422h83l210 -345h6l212 345h83l-259 -422v-267h-77v267z" />
    <glyph glyph-name="ygrave" unicode="&#x1ef3;" horiz-adv-x="533" 
d="M102 761h72l129 -195h-64zM87 -230q-16 0 -29.5 2t-35.5 9v63h8q14 -5 25.5 -7t25.5 -2q34 0 57.5 13t40 35t28.5 50t23 57l-215 506h80l171 -425h6l166 425h80l-213 -508q-18 -44 -36.5 -83.5t-43 -69.5t-57.5 -47.5t-81 -17.5z" />
    <glyph glyph-name="uni1EF8" unicode="&#x1ef8;" horiz-adv-x="625" 
d="M408 781q-30 0 -51 12t-39.5 27t-36.5 27t-41 12q-31 0 -40 -20.5t-10 -48.5h-54q0 54 26.5 90t77.5 36q29 0 50 -12t39.5 -27t36.5 -27t41 -12q31 0 40 18t10 42h54q0 -55 -25 -86t-78 -31zM274 267l-258 422h83l210 -345h6l212 345h83l-259 -422v-267h-77v267z" />
    <glyph glyph-name="uni1EF9" unicode="&#x1ef9;" horiz-adv-x="533" 
d="M361 589q-30 0 -51 12t-39.5 27t-36.5 27t-41 12q-31 0 -40 -20.5t-10 -48.5h-54q0 54 26 90t78 36q29 0 50 -12t39.5 -27t36.5 -27t41 -12q30 0 39.5 18t9.5 42h55q0 -55 -25 -86t-78 -31zM87 -230q-16 0 -29.5 2t-35.5 9v63h8q14 -5 25.5 -7t25.5 -2q34 0 57.5 13
t40 35t28.5 50t23 57l-215 506h80l171 -425h6l166 425h80l-213 -508q-18 -44 -36.5 -83.5t-43 -69.5t-57.5 -47.5t-81 -17.5z" />
    <glyph glyph-name="endash" unicode="&#x2013;" horiz-adv-x="593" 
d="M49 281h496v-66h-496v66z" />
    <glyph glyph-name="emdash" unicode="&#x2014;" horiz-adv-x="861" 
d="M49 281h763v-66h-763v66z" />
    <glyph glyph-name="quoteleft" unicode="&#x2018;" horiz-adv-x="198" 
d="M87 720h66l-33 -212h-69z" />
    <glyph glyph-name="quoteright" unicode="&#x2019;" horiz-adv-x="197" 
d="M83 720h72l-39 -212h-64z" />
    <glyph glyph-name="quotesinglbase" unicode="&#x201a;" horiz-adv-x="178" 
d="M64 47h72l-66 -222h-64z" />
    <glyph glyph-name="quotedblleft" unicode="&#x201c;" horiz-adv-x="393" 
d="M88 720h64l-30 -212h-72zM284 720h64l-31 -212h-72z" />
    <glyph glyph-name="quotedblright" unicode="&#x201d;" horiz-adv-x="393" 
d="M83 720h72l-39 -212h-64zM278 720h72l-39 -212h-64z" />
    <glyph glyph-name="quotedblbase" unicode="&#x201e;" horiz-adv-x="372" 
d="M64 47h72l-66 -222h-64zM258 47h72l-66 -222h-64z" />
    <glyph glyph-name="dagger" unicode="&#x2020;" horiz-adv-x="529" 
d="M228 463h-198v71h198v186h73v-186h198v-71h-198v-463h-73v463z" />
    <glyph glyph-name="daggerdbl" unicode="&#x2021;" horiz-adv-x="568" 
d="M247 186h-198v71h198v206h-198v71h198v186h73v-186h198v-71h-198v-206h198v-71h-198v-186h-73v186z" />
    <glyph glyph-name="bullet" unicode="&#x2022;" horiz-adv-x="316" 
d="M158 167q-29 0 -50.5 21.5t-21.5 50.5q0 31 21.5 52t50.5 21t51 -21.5t22 -51.5q0 -29 -22 -50.5t-51 -21.5z" />
    <glyph glyph-name="ellipsis" unicode="&#x2026;" horiz-adv-x="755" 
d="M642 -16q-24 0 -41.5 17.5t-17.5 41.5q0 26 18 43t41 17q24 0 41.5 -17.5t17.5 -42.5q0 -24 -17.5 -41.5t-41.5 -17.5zM113 -16q-24 0 -41.5 17t-17.5 41q0 26 18 43t41 17q24 0 42 -17.5t18 -42.5q0 -23 -18 -40.5t-42 -17.5zM377 -16q-24 0 -41 17t-17 41q0 26 17.5 43
t40.5 17q25 0 42.5 -17.5t17.5 -42.5q0 -23 -17.5 -40.5t-42.5 -17.5z" />
    <glyph glyph-name="perthousand" unicode="&#x2030;" horiz-adv-x="1141" 
d="M191 419q-35 0 -64.5 12t-51.5 33t-34 49.5t-12 61.5t12.5 61.5t34 49.5t51.5 33t64 12q35 0 64.5 -12t51 -33t34 -49.5t12.5 -61.5t-12 -61.5t-33.5 -49.5t-51.5 -33t-65 -12zM519 720h68l-329 -720h-68zM191 471q47 0 77 29.5t30 74.5t-30.5 75t-76.5 30q-47 0 -77 -30
t-30 -75t30 -74.5t77 -29.5zM585 -15q-35 0 -65 12t-51.5 33t-34 49.5t-12.5 61.5t12.5 61.5t34.5 49.5t52 33t64 12t63.5 -12t51.5 -33t34.5 -49.5t12.5 -61.5t-12 -61.5t-33.5 -49.5t-51.5 -33t-65 -12zM951 -15q-35 0 -65 12t-51.5 33t-34 49.5t-12.5 61.5t12.5 61.5
t34.5 49.5t52 33t64 12t63.5 -12t51.5 -33t34.5 -49.5t12.5 -61.5t-12 -61.5t-33.5 -49.5t-51.5 -33t-65 -12zM585 37q47 0 77 29.5t30 74.5t-30.5 75t-76.5 30q-47 0 -77 -30t-30 -75t30 -74.5t77 -29.5zM951 37q47 0 77 29.5t30 74.5t-30.5 75t-76.5 30q-47 0 -77 -30
t-30 -75t30 -74.5t77 -29.5z" />
    <glyph glyph-name="guilsinglleft" unicode="&#x2039;" horiz-adv-x="341" 
d="M49 275l184 206l46 -40l-141 -163v-7l141 -162l-46 -40z" />
    <glyph glyph-name="guilsinglright" unicode="&#x203a;" horiz-adv-x="341" 
d="M63 109l141 162v7l-141 163l46 40l183 -206l-183 -206z" />
    <glyph glyph-name="fraction" unicode="&#x2044;" horiz-adv-x="376" 
d="M318 720h68l-328 -720h-68z" />
    <glyph glyph-name="Euro" unicode="&#x20ac;" horiz-adv-x="678" 
d="M528 635q-51 0 -97 -13.5t-83.5 -39t-65 -61.5t-41.5 -81h239v-42h-249q-2 -13 -3 -26t-1 -27q0 -22 3 -45h250v-43h-241q14 -47 41 -84.5t64.5 -63.5t84.5 -40t99 -14q29 0 51 3t47 9h8v-71q-26 -6 -56 -8.5t-62 -2.5q-66 0 -125 19t-106 54.5t-80.5 86t-47.5 112.5
h-108v43h100q-1 11 -1.5 22.5t-0.5 22.5q0 28 3 53h-101v42h109q15 61 48.5 110t81 83.5t105.5 53t123 18.5q63 0 118 -11v-72h-8q-25 7 -47 10t-51 3z" />
    <glyph glyph-name="trademark" unicode="&#x2122;" horiz-adv-x="970" 
d="M154 601h-120v59h306v-59h-122v-360h-64v360zM428 660h43l177 -275h5l177 275h43v-419h-59v298h-4l-155 -244h-11l-154 244h-3v-298h-59v419z" />
    <glyph glyph-name="minus" unicode="&#x2212;" horiz-adv-x="494" 
d="M52 376h390v-63h-390v63z" />
    <glyph glyph-name="approxequal" unicode="&#x2248;" horiz-adv-x="599" 
d="M424 395q-35 0 -63.5 14t-55 31.5t-54 31.5t-62.5 14q-33 0 -48 -22t-15 -52v-5.5t1 -7.5h-56q-1 7 -1 14v12q0 23 5.5 45t18.5 40t34.5 29t52.5 11q42 0 73.5 -14.5t58 -31.5t50 -31.5t48.5 -14.5q33 0 49.5 20.5t16.5 53.5q0 4 -0.5 7.5t-1.5 9.5h55q2 -8 2 -16v-15
q0 -25 -6 -47t-19 -39t-33.5 -27t-49.5 -10zM424 165q-35 0 -63.5 14t-55 31.5t-54 31.5t-62.5 14q-33 0 -48 -22t-15 -51v-6t1 -8h-56q-1 7 -1 14v12q0 23 5.5 45t18.5 40t34.5 29t52.5 11q42 0 73.5 -14t58 -31.5t50 -31.5t48.5 -14q33 0 49.5 20.5t16.5 52.5
q0 5 -0.5 8.5t-1.5 8.5h55q2 -8 2 -16v-15q0 -25 -6 -47t-19 -39t-33.5 -27t-49.5 -10z" />
    <glyph glyph-name="notequal" unicode="&#x2260;" horiz-adv-x="548" 
d="M325 419l-47 -144h203v-63h-224l-43 -130h-61l42 130h-129v63h150l47 144h-197v62h217l40 123h63l-41 -123h136v-62h-156z" />
    <glyph glyph-name="uniF8FF" unicode="&#xf8ff;" horiz-adv-x="2307" 
d="M561 199q-47 0 -67 19.5t-20 63.5v228h99q0 -30 -19 -59.5t-48 -42.5l1 -4q8 5 18 9q8 3 18.5 5.5t21.5 2.5h51v-79h-42v-48q0 -17 18 -17q14 0 24 7v-75q-17 -10 -55 -10zM636 510h98q0 -33 -23 -59.5t-56 -34.5l2 -3l24 4q11 2 23 3t23 1h8v-217h-99v306zM1371 199
q-47 0 -67.5 19.5t-20.5 63.5v228h99q0 -30 -19 -59.5t-48 -42.5l2 -4q8 5 18 9q8 3 18.5 5.5t21.5 2.5h50v-79h-42v-48q0 -17 18 -17q14 0 24 7v-75q-17 -10 -54 -10zM100 509h99v-305h-99v305zM285 199q-32 0 -51 17t-19 44q0 29 19.5 47.5t54.5 18.5q26 0 41.5 -6
t24.5 -15h2v35q0 25 -23 25t-23 -29l-90 14q8 37 38 57.5t84 20.5t84 -24t30 -66v-134h-98v22h-3q-5 -8 -22.5 -17.5t-48.5 -9.5zM756 421h97v-65h3q5 38 23.5 54t47.5 16q34 0 53.5 -22t19.5 -66v-134h-100v129q0 27 -19 27q-11 0 -16 -7t-10 -25v-124h-99v217zM1141 199
q-62 0 -94 31.5t-32 81.5t33 82t93 32q61 0 93.5 -32t32.5 -82q0 -49 -32 -81t-94 -32zM1691 421h99v-65h3q5 30 21.5 50t51.5 20q38 0 60.5 -27t22.5 -87t-26.5 -86.5t-59.5 -26.5q-52 0 -69 43h-3v-110h-100v289zM2087 199q-60 0 -92 31.5t-32 81.5t33.5 82t93.5 32
q54 0 85.5 -32t31.5 -77v-9h-150q0 -18 8.5 -32t25.5 -14q16 0 22 10t8 24l82 -8q-9 -49 -42.5 -69t-73.5 -20zM1472 194h65q32 0 47 3t20 9l-1 3h-68q-40 0 -52 39l-54 173h100q7 -41 16 -86.5t12 -86.5h2q5 41 13.5 86.5t16.5 86.5h99l-71 -207q-31 -86 -106 -86h-39v66z
M2063 320q32 0 43.5 6t11.5 18q0 22 -24 22q-17 0 -27 -12.5t-10 -33.5h6zM1825 247q15 0 22.5 13t7.5 44t-5.5 46t-21.5 15q-22 0 -30 -33v-72q10 -13 27 -13zM1141 261q13 0 21 11.5t8 39.5q0 29 -8 40.5t-21 11.5q-14 0 -21 -11.5t-7 -40.5q0 -28 7.5 -39.5t20.5 -11.5z
M335 229q15 0 22 11v51q-5 8 -19 8q-12 0 -19.5 -9t-7.5 -26t5 -26t19 -9z" />
    <glyph glyph-name="A.fina" 
d="M796 288q45 0 82 -16t63 -44t40.5 -64.5t14.5 -77.5t-13.5 -77.5t-39.5 -63.5t-62.5 -43t-83.5 -16q-52 0 -92 18t-71.5 50t-56.5 76t-49 96h-383l-55 -126h-81l308 689h39l211 -473q27 -61 50.5 -109t49 -81.5t56.5 -51t73 -17.5q29 0 52.5 10t40 28t25.5 41.5t9 50.5
t-9.5 50.5t-26.5 41.5t-40 28t-51 10v71zM171 186h330l-162 373h-6z" />
    <glyph glyph-name="A.init" 
d="M875 126h-384q-24 -52 -49 -96t-56 -76t-70.5 -50t-92.5 -18q-46 0 -83.5 16t-63 43t-39.5 63.5t-14 77.5t14.5 77.5t41 64.5t63.5 44t82 16v-71q-28 0 -51.5 -10t-40.5 -28t-26.5 -41.5t-9.5 -50.5t9 -50.5t25.5 -41.5t40.5 -28t53 -10q42 0 73 17.5t56.5 51t49 81.5
t50.5 109l210 473h40l307 -689h-80zM849 186l-163 373h-5l-163 -373h331z" />
    <glyph glyph-name="Aacute.fina" 
d="M369 758h-64l129 195h72zM796 288q45 0 82 -16t63 -44t40.5 -64.5t14.5 -77.5t-13.5 -77.5t-39.5 -63.5t-62.5 -43t-83.5 -16q-52 0 -92 18t-71.5 50t-56.5 76t-49 96h-383l-55 -126h-81l308 689h39l211 -473q27 -61 50.5 -109t49 -81.5t56.5 -51t73 -17.5q29 0 52.5 10
t40 28t25.5 41.5t9 50.5t-9.5 50.5t-26.5 41.5t-40 28t-51 10v71zM171 186h330l-162 373h-6z" />
    <glyph glyph-name="Aacute.init" 
d="M716 758h-65l129 195h73zM875 126h-384q-24 -52 -49 -96t-56 -76t-70.5 -50t-92.5 -18q-46 0 -83.5 16t-63 43t-39.5 63.5t-14 77.5t14.5 77.5t41 64.5t63.5 44t82 16v-71q-28 0 -51.5 -10t-40.5 -28t-26.5 -41.5t-9.5 -50.5t9 -50.5t25.5 -41.5t40.5 -28t53 -10
q42 0 73 17.5t56.5 51t49 81.5t50.5 109l210 473h40l307 -689h-80zM849 186l-163 373h-5l-163 -373h331z" />
    <glyph glyph-name="Abreve.fina" 
d="M337 763q-36 0 -66 12t-51.5 34t-34 54t-12.5 72h60q0 -59 29.5 -88t74.5 -29t74 29t29 88h60q0 -83 -45.5 -127.5t-117.5 -44.5zM796 288q45 0 82 -16t63 -44t40.5 -64.5t14.5 -77.5t-13.5 -77.5t-39.5 -63.5t-62.5 -43t-83.5 -16q-52 0 -92 18t-71.5 50t-56.5 76
t-49 96h-383l-55 -126h-81l308 689h39l211 -473q27 -61 50.5 -109t49 -81.5t56.5 -51t73 -17.5q29 0 52.5 10t40 28t25.5 41.5t9 50.5t-9.5 50.5t-26.5 41.5t-40 28t-51 10v71zM171 186h330l-162 373h-6z" />
    <glyph glyph-name="Abreve.init" 
d="M684 763q-72 0 -118 45.5t-46 126.5h59q0 -59 30 -88.5t75 -29.5q44 0 73.5 29.5t29.5 88.5h59q0 -82 -45.5 -127t-116.5 -45zM875 126h-384q-24 -52 -49 -96t-56 -76t-70.5 -50t-92.5 -18q-46 0 -83.5 16t-63 43t-39.5 63.5t-14 77.5t14.5 77.5t41 64.5t63.5 44t82 16
v-71q-28 0 -51.5 -10t-40.5 -28t-26.5 -41.5t-9.5 -50.5t9 -50.5t25.5 -41.5t40.5 -28t53 -10q42 0 73 17.5t56.5 51t49 81.5t50.5 109l210 473h40l307 -689h-80zM849 186l-163 373h-5l-163 -373h331z" />
    <glyph glyph-name="Acircumflex.fina" 
d="M233 760h-66l139 192h60l140 -192h-66l-100 136h-6zM796 288q45 0 82 -16t63 -44t40.5 -64.5t14.5 -77.5t-13.5 -77.5t-39.5 -63.5t-62.5 -43t-83.5 -16q-52 0 -92 18t-71.5 50t-56.5 76t-49 96h-383l-55 -126h-81l308 689h39l211 -473q27 -61 50.5 -109t49 -81.5
t56.5 -51t73 -17.5q29 0 52.5 10t40 28t25.5 41.5t9 50.5t-9.5 50.5t-26.5 41.5t-40 28t-51 10v71zM171 186h330l-162 373h-6z" />
    <glyph glyph-name="Acircumflex.init" 
d="M580 760h-66l139 191h59l140 -191h-66l-100 135h-6zM875 126h-384q-24 -52 -49 -96t-56 -76t-70.5 -50t-92.5 -18q-46 0 -83.5 16t-63 43t-39.5 63.5t-14 77.5t14.5 77.5t41 64.5t63.5 44t82 16v-71q-28 0 -51.5 -10t-40.5 -28t-26.5 -41.5t-9.5 -50.5t9 -50.5
t25.5 -41.5t40.5 -28t53 -10q42 0 73 17.5t56.5 51t49 81.5t50.5 109l210 473h40l307 -689h-80zM849 186l-163 373h-5l-163 -373h331z" />
    <glyph glyph-name="Adieresis.fina" 
d="M229 797q-22 0 -37.5 15.5t-15.5 37.5q0 23 15.5 38.5t37.5 15.5t38 -15.5t16 -38.5q0 -22 -16 -37.5t-38 -15.5zM446 797q-22 0 -37.5 15.5t-15.5 37.5q0 23 15.5 38.5t37.5 15.5q23 0 38.5 -15.5t15.5 -38.5q0 -22 -15.5 -37.5t-38.5 -15.5zM796 288q45 0 82 -16
t63 -44t40.5 -64.5t14.5 -77.5t-13.5 -77.5t-39.5 -63.5t-62.5 -43t-83.5 -16q-52 0 -92 18t-71.5 50t-56.5 76t-49 96h-383l-55 -126h-81l308 689h39l211 -473q27 -61 50.5 -109t49 -81.5t56.5 -51t73 -17.5q29 0 52.5 10t40 28t25.5 41.5t9 50.5t-9.5 50.5t-26.5 41.5
t-40 28t-51 10v71zM171 186h330l-162 373h-6z" />
    <glyph glyph-name="Adieresis.init" 
d="M575 796q-22 0 -37.5 16t-15.5 38q0 23 15.5 38.5t37.5 15.5q23 0 38.5 -15.5t15.5 -38.5q0 -22 -15.5 -38t-38.5 -16zM793 796q-23 0 -38.5 16t-15.5 38q0 23 15.5 38.5t38.5 15.5q22 0 37.5 -15.5t15.5 -38.5q0 -22 -15.5 -38t-37.5 -16zM875 126h-384q-24 -52 -49 -96
t-56 -76t-70.5 -50t-92.5 -18q-46 0 -83.5 16t-63 43t-39.5 63.5t-14 77.5t14.5 77.5t41 64.5t63.5 44t82 16v-71q-28 0 -51.5 -10t-40.5 -28t-26.5 -41.5t-9.5 -50.5t9 -50.5t25.5 -41.5t40.5 -28t53 -10q42 0 73 17.5t56.5 51t49 81.5t50.5 109l210 473h40l307 -689h-80z
M849 186l-163 373h-5l-163 -373h331z" />
    <glyph glyph-name="Agrave.fina" 
d="M310 759l-137 194h73l129 -194h-65zM796 288q45 0 82 -16t63 -44t40.5 -64.5t14.5 -77.5t-13.5 -77.5t-39.5 -63.5t-62.5 -43t-83.5 -16q-52 0 -92 18t-71.5 50t-56.5 76t-49 96h-383l-55 -126h-81l308 689h39l211 -473q27 -61 50.5 -109t49 -81.5t56.5 -51t73 -17.5
q29 0 52.5 10t40 28t25.5 41.5t9 50.5t-9.5 50.5t-26.5 41.5t-40 28t-51 10v71zM171 186h330l-162 373h-6z" />
    <glyph glyph-name="Agrave.init" 
d="M657 758l-138 195h73l129 -195h-64zM875 126h-384q-24 -52 -49 -96t-56 -76t-70.5 -50t-92.5 -18q-46 0 -83.5 16t-63 43t-39.5 63.5t-14 77.5t14.5 77.5t41 64.5t63.5 44t82 16v-71q-28 0 -51.5 -10t-40.5 -28t-26.5 -41.5t-9.5 -50.5t9 -50.5t25.5 -41.5t40.5 -28
t53 -10q42 0 73 17.5t56.5 51t49 81.5t50.5 109l210 473h40l307 -689h-80zM849 186l-163 373h-5l-163 -373h331z" />
    <glyph glyph-name="Amacron.fina" 
d="M515 805h-355v55h355v-55zM796 288q45 0 82 -16t63 -44t40.5 -64.5t14.5 -77.5t-13.5 -77.5t-39.5 -63.5t-62.5 -43t-83.5 -16q-52 0 -92 18t-71.5 50t-56.5 76t-49 96h-383l-55 -126h-81l308 689h39l211 -473q27 -61 50.5 -109t49 -81.5t56.5 -51t73 -17.5q29 0 52.5 10
t40 28t25.5 41.5t9 50.5t-9.5 50.5t-26.5 41.5t-40 28t-51 10v71zM171 186h330l-162 373h-6z" />
    <glyph glyph-name="Amacron.init" 
d="M861 804h-355v56h355v-56zM875 126h-384q-24 -52 -49 -96t-56 -76t-70.5 -50t-92.5 -18q-46 0 -83.5 16t-63 43t-39.5 63.5t-14 77.5t14.5 77.5t41 64.5t63.5 44t82 16v-71q-28 0 -51.5 -10t-40.5 -28t-26.5 -41.5t-9.5 -50.5t9 -50.5t25.5 -41.5t40.5 -28t53 -10
q42 0 73 17.5t56.5 51t49 81.5t50.5 109l210 473h40l307 -689h-80zM849 186l-163 373h-5l-163 -373h331z" />
    <glyph glyph-name="Aogonek.fina" 
d="M865 -104q-13 -5 -30.5 -14t-33 -23.5t-26.5 -35.5t-11 -51q0 -35 20.5 -54.5t52.5 -19.5q20 0 38 5v-51q-26 -8 -52 -8q-51 0 -87 31.5t-36 90.5q0 45 19.5 74.5t45.5 47.5q-44 5 -78.5 25t-62.5 51.5t-51 72.5t-45 89h-383l-55 -126h-81l308 689h39l211 -473
q27 -61 50.5 -109t49 -81.5t56.5 -51t73 -17.5q29 0 52.5 10t40 28t25.5 41.5t9 50.5t-9.5 50.5t-26.5 41.5t-40 28t-51 10v71q45 0 82 -16t63 -44t40.5 -64.5t14.5 -77.5q0 -66 -34 -118t-97 -72zM171 186h330l-162 373h-6z" />
    <glyph glyph-name="Aogonek.init" 
d="M980 -199q20 0 38 5v-51q-26 -8 -52 -8q-51 0 -86.5 31.5t-35.5 90.5q0 27 7.5 48t19.5 37.5t27.5 28.5t30.5 20l-54 123h-384q-24 -52 -49 -96t-56 -76t-70.5 -50t-92.5 -18q-46 0 -83.5 16t-63 43t-39.5 63.5t-14 77.5t14.5 77.5t41 64.5t63.5 44t82 16v-71
q-28 0 -51.5 -10t-40.5 -28t-26.5 -41.5t-9.5 -50.5t9 -50.5t25.5 -41.5t40.5 -28t53 -10q42 0 73 17.5t56.5 51t49 81.5t50.5 109l210 473h40l307 -689q-13 -5 -30.5 -14t-33.5 -23.5t-27.5 -36t-11.5 -51.5q0 -35 20.5 -54.5t52.5 -19.5zM849 186l-163 373h-5l-163 -373
h331z" />
    <glyph glyph-name="Aring.fina" 
d="M338 756q-45 0 -75 29.5t-30 72.5q0 21 8 39t22.5 31.5t33.5 21.5t41 8q45 0 75 -29t30 -71q0 -43 -30 -72.5t-75 -29.5zM338 914q-23 0 -39.5 -16t-16.5 -40q0 -25 16 -41t40 -16q23 0 39.5 16t16.5 41q0 24 -16.5 40t-39.5 16zM796 288q45 0 82 -16t63 -44t40.5 -64.5
t14.5 -77.5t-13.5 -77.5t-39.5 -63.5t-62.5 -43t-83.5 -16q-52 0 -92 18t-71.5 50t-56.5 76t-49 96h-383l-55 -126h-81l308 689h39l211 -473q27 -61 50.5 -109t49 -81.5t56.5 -51t73 -17.5q29 0 52.5 10t40 28t25.5 41.5t9 50.5t-9.5 50.5t-26.5 41.5t-40 28t-51 10v71z
M171 186h330l-162 373h-6z" />
    <glyph glyph-name="Aring.init" 
d="M684 756q-45 0 -74.5 29.5t-29.5 72.5q0 42 29.5 71t74.5 29t75 -29t30 -71q0 -43 -30 -72.5t-75 -29.5zM684 914q-23 0 -39.5 -16t-16.5 -40q0 -26 16.5 -41.5t39.5 -15.5q24 0 40 16t16 41q0 24 -16 40t-40 16zM875 126h-384q-24 -52 -49 -96t-56 -76t-70.5 -50
t-92.5 -18q-46 0 -83.5 16t-63 43t-39.5 63.5t-14 77.5t14.5 77.5t41 64.5t63.5 44t82 16v-71q-28 0 -51.5 -10t-40.5 -28t-26.5 -41.5t-9.5 -50.5t9 -50.5t25.5 -41.5t40.5 -28t53 -10q42 0 73 17.5t56.5 51t49 81.5t50.5 109l210 473h40l307 -689h-80zM849 186l-163 373
h-5l-163 -373h331z" />
    <glyph glyph-name="Atilde.init" 
d="M611 859q-31 0 -40 -20.5t-10 -47.5h-54q0 54 26 90t78 36q29 0 50 -12t39 -27t36 -27t42 -12q30 0 39 18t10 41h55q0 -55 -25 -86t-79 -31q-30 0 -51 12t-39 27t-36 27t-41 12zM875 126h-384q-24 -52 -49 -96t-56 -76t-70.5 -50t-92.5 -18q-46 0 -83.5 16t-63 43
t-39.5 63.5t-14 77.5t14.5 77.5t41 64.5t63.5 44t82 16v-71q-28 0 -51.5 -10t-40.5 -28t-26.5 -41.5t-9.5 -50.5t9 -50.5t25.5 -41.5t40.5 -28t53 -10q42 0 73 17.5t56.5 51t49 81.5t50.5 109l210 473h40l307 -689h-80zM849 186l-163 373h-5l-163 -373h331z" />
    <glyph glyph-name="H.fina" horiz-adv-x="1096" 
d="M843 -140q-45 0 -87.5 14t-75.5 44t-53.5 77t-20.5 111v206h-436v-312h-77v689h77v-305h436v305h78v-583q0 -48 14 -81.5t36.5 -54t51 -30t57.5 -9.5q33 0 61.5 12t48.5 34t31.5 51.5t11.5 63.5q0 35 -12 64t-32.5 51t-49 34t-61.5 12v70q49 0 91 -17.5t73.5 -48
t49.5 -73t18 -92.5t-17.5 -92.5t-48.5 -73.5t-73 -48.5t-91 -17.5z" />
    <glyph glyph-name="H.init" horiz-adv-x="1096" 
d="M254 -140q-49 0 -91 17.5t-73 48.5t-49 73.5t-18 92.5t18 92.5t49.5 73t74 48t91.5 17.5v-70q-33 0 -61.5 -12t-49.5 -34t-33 -51t-12 -64q0 -34 11.5 -63.5t32 -51.5t48.5 -34t62 -12q29 0 57.5 9.5t51 30t36.5 54t14 81.5v583h77v-305h437v305h77v-689h-77v312h-437
v-206q0 -64 -20 -111t-53 -77t-75.5 -44t-87.5 -14z" />
    <glyph glyph-name="IJacute" horiz-adv-x="699" 
d="M659 955h72l-137 -195h-64zM234 954h72l-137 -195h-64zM93 689h77v-689h-77v689zM396 -15q-25 0 -49 2.5t-53 11.5v70h8q18 -7 37.5 -10.5t42.5 -3.5q35 0 63.5 9.5t48.5 30.5t31.5 55.5t11.5 83.5v455h77v-462q0 -63 -16.5 -108.5t-45.5 -75.5t-69 -44t-87 -14z" />
    <glyph glyph-name="J.init" horiz-adv-x="581" 
d="M254 -140q-49 0 -91 17.5t-73 48.5t-49 73.5t-18 92.5t18 92.5t49.5 73t74 48t91.5 17.5v-70q-33 0 -61.5 -12t-49.5 -34t-33 -51t-12 -64q0 -34 11.5 -63.5t32 -51.5t48.5 -34t62 -12q29 0 57.5 9.5t51 30t36.5 54t14 81.5v583h77v-583q0 -64 -20 -111t-53 -77
t-75.5 -44t-87.5 -14z" />
    <glyph glyph-name="K.fina" horiz-adv-x="848" 
d="M606 -44q-48 0 -87 13.5t-74 39t-67.5 61t-66.5 78.5l-136 168h-5v-316h-77v689h77v-304h6l350 304h95l-381 -335l134 -165q32 -39 60 -69t55 -51t55.5 -31.5t61.5 -10.5q64 0 103.5 39.5t39.5 102.5q0 64 -39 103.5t-102 39.5v71q49 0 88.5 -16.5t67 -45t42.5 -67.5
t15 -85t-15 -85t-43 -67.5t-68 -44.5t-89 -16z" />
    <glyph glyph-name="M.init" horiz-adv-x="1212" 
d="M252 -141q-48 0 -90 17.5t-72.5 48.5t-48.5 73.5t-18 92.5t18 92.5t49.5 73t74 48t91.5 17.5v-70q-33 0 -61.5 -12t-49.5 -34t-33 -51t-12 -64q0 -34 11.5 -63.5t32 -51.5t48.5 -34t62 -12q29 0 57.5 9.5t51 30t36.5 54t14 81.5v584h46l304 -468h6l304 468h46v-689h-75
v524h-6l-265 -408h-16l-263 408h-7v-419q0 -64 -20 -111t-52.5 -77t-75 -44t-87.5 -14z" />
    <glyph glyph-name="N.init" horiz-adv-x="1079" 
d="M253 -140q-48 0 -90 17.5t-73 48.5t-49 73.5t-18 92.5t18 92.5t49.5 73t74 48t91.5 17.5v-70q-33 0 -61.5 -12t-49.5 -34t-33 -51t-12 -64q0 -34 11.5 -63.5t32 -51.5t48.5 -34t62 -12q29 0 57.5 9.5t51 30t36.5 54t14 81.5v583h46l446 -548h5v548h76v-689h-46l-446 543
h-5v-437q0 -64 -20 -111t-53 -77t-75.5 -44t-87.5 -14z" />
    <glyph glyph-name="Nacute.init" horiz-adv-x="1079" 
d="M793 953h73l-138 -195h-64zM253 -140q-48 0 -90 17.5t-73 48.5t-49 73.5t-18 92.5t18 92.5t49.5 73t74 48t91.5 17.5v-70q-33 0 -61.5 -12t-49.5 -34t-33 -51t-12 -64q0 -34 11.5 -63.5t32 -51.5t48.5 -34t62 -12q29 0 57.5 9.5t51 30t36.5 54t14 81.5v583h46l446 -548h5
v548h76v-689h-46l-446 543h-5v-437q0 -64 -20 -111t-53 -77t-75.5 -44t-87.5 -14z" />
    <glyph glyph-name="Ncaron.init" horiz-adv-x="1079" 
d="M527 952h66l100 -136h7l99 136h66l-140 -192h-59zM253 -140q-48 0 -90 17.5t-73 48.5t-49 73.5t-18 92.5t18 92.5t49.5 73t74 48t91.5 17.5v-70q-33 0 -61.5 -12t-49.5 -34t-33 -51t-12 -64q0 -34 11.5 -63.5t32 -51.5t48.5 -34t62 -12q29 0 57.5 9.5t51 30t36.5 54
t14 81.5v583h46l446 -548h5v548h76v-689h-46l-446 543h-5v-437q0 -64 -20 -111t-53 -77t-75.5 -44t-87.5 -14z" />
    <glyph glyph-name="Ntilde.init" horiz-adv-x="1079" 
d="M791 781q-30 0 -51 12t-39 27t-36 27t-41 12q-31 0 -40 -20t-10 -48h-55q0 54 26.5 90t77.5 36q30 0 51 -12t39 -27t36 -27t42 -12q30 0 39 18t10 41h55q0 -54 -25 -85.5t-79 -31.5zM253 -140q-48 0 -90 17.5t-73 48.5t-49 73.5t-18 92.5t18 92.5t49.5 73t74 48
t91.5 17.5v-70q-33 0 -61.5 -12t-49.5 -34t-33 -51t-12 -64q0 -34 11.5 -63.5t32 -51.5t48.5 -34t62 -12q29 0 57.5 9.5t51 30t36.5 54t14 81.5v583h46l446 -548h5v548h76v-689h-46l-446 543h-5v-437q0 -64 -20 -111t-53 -77t-75.5 -44t-87.5 -14z" />
    <glyph glyph-name="Q.init" horiz-adv-x="821" 
d="M811 -52q0 -57 -16.5 -98.5t-44 -67.5t-64 -38.5t-76.5 -12.5q-60 0 -102 20t-69.5 54.5t-41.5 81t-17 99.5q-73 6 -134 35.5t-105.5 77.5t-69.5 111t-25 136q0 76 27.5 141.5t76 113.5t115.5 75.5t146 27.5t145.5 -27.5t115 -75.5t76 -113.5t27.5 -141.5
q0 -71 -24 -133.5t-66.5 -110t-101.5 -78t-130 -37.5q2 -37 10.5 -71.5t26 -60.5t46 -42t71.5 -16q60 0 94 38.5t34 112.5h76zM127 346q0 -61 21.5 -114t59.5 -92.5t90 -62t113 -22.5t113 22.5t89.5 62t59 92.5t21.5 114q0 60 -21.5 112.5t-59 91.5t-89.5 61.5t-113 22.5
t-113 -22.5t-90 -61.5t-59.5 -91.5t-21.5 -112.5z" />
    <glyph glyph-name="R.fina" horiz-adv-x="923" 
d="M683 373q49 0 88.5 -16.5t67.5 -45t43 -67.5t15 -85t-15.5 -85.5t-43.5 -68t-68 -44.5t-89 -16q-50 0 -91 15t-77 44.5t-69.5 74t-67.5 102.5l-62 105h-145v-286h-76v690h254q106 0 166.5 -54t60.5 -147q0 -40 -13.5 -73.5t-37.5 -58.5t-57 -40.5t-72 -20.5l54 -89
q30 -51 57 -87t54 -59t56.5 -34t64.5 -11q65 0 104.5 40t39.5 103q0 64 -39 103.5t-102 39.5v71zM345 348q69 0 111 38.5t42 100.5q0 64 -42 100t-112 36h-175v-275h176z" />
    <glyph glyph-name="Racute.fina" horiz-adv-x="923" 
d="M346 759h-64l129 195h73zM683 373q49 0 88.5 -16.5t67.5 -45t43 -67.5t15 -85t-15.5 -85.5t-43.5 -68t-68 -44.5t-89 -16q-50 0 -91 15t-77 44.5t-69.5 74t-67.5 102.5l-62 105h-145v-286h-76v690h254q106 0 166.5 -54t60.5 -147q0 -40 -13.5 -73.5t-37.5 -58.5
t-57 -40.5t-72 -20.5l54 -89q30 -51 57 -87t54 -59t56.5 -34t64.5 -11q65 0 104.5 40t39.5 103q0 64 -39 103.5t-102 39.5v71zM345 348q69 0 111 38.5t42 100.5q0 64 -42 100t-112 36h-175v-275h176z" />
    <glyph glyph-name="Rcaron.fina" horiz-adv-x="923" 
d="M284 761l-139 191h66l100 -136h7l99 136h66l-139 -191h-60zM683 373q49 0 88.5 -16.5t67.5 -45t43 -67.5t15 -85t-15.5 -85.5t-43.5 -68t-68 -44.5t-89 -16q-50 0 -91 15t-77 44.5t-69.5 74t-67.5 102.5l-62 105h-145v-286h-76v690h254q106 0 166.5 -54t60.5 -147
q0 -40 -13.5 -73.5t-37.5 -58.5t-57 -40.5t-72 -20.5l54 -89q30 -51 57 -87t54 -59t56.5 -34t64.5 -11q65 0 104.5 40t39.5 103q0 64 -39 103.5t-102 39.5v71zM345 348q69 0 111 38.5t42 100.5q0 64 -42 100t-112 36h-175v-275h176z" />
    <glyph glyph-name="T.init" horiz-adv-x="882" 
d="M570 617h-292q-48 0 -81 -14t-53.5 -37t-29.5 -51.5t-9 -57.5q0 -34 12 -62t33 -48.5t49 -32t61 -11.5q32 0 60 12t48.5 33t32.5 49.5t12 61.5h73q0 -49 -17.5 -91t-48 -72.5t-72.5 -47.5t-90 -17t-90 17t-72.5 47t-48 71t-17.5 89q0 45 14.5 87t44.5 74.5t76.5 52.5
t110.5 20h593v-72h-222v-617h-77v617z" />
    <glyph glyph-name="Tcaron.init" horiz-adv-x="882" 
d="M426 952h66l101 -136h6l100 136h65l-139 -192h-60zM570 617h-292q-48 0 -81 -14t-53.5 -37t-29.5 -51.5t-9 -57.5q0 -34 12 -62t33 -48.5t49 -32t61 -11.5q32 0 60 12t48.5 33t32.5 49.5t12 61.5h73q0 -49 -17.5 -91t-48 -72.5t-72.5 -47.5t-90 -17t-90 17t-72.5 47
t-48 71t-17.5 89q0 45 14.5 87t44.5 74.5t76.5 52.5t110.5 20h593v-72h-222v-617h-77v617z" />
    <glyph glyph-name="a.fina" horiz-adv-x="964" 
d="M735 -246q-45 0 -86.5 13.5t-73.5 43t-51 75t-19 108.5v105h-6q-10 -21 -28.5 -41.5t-43.5 -37t-56.5 -26.5t-69.5 -10q-56 0 -103.5 19.5t-82 55t-54 83.5t-19.5 105t19.5 106t54 84t81.5 55t103 20q38 0 71 -10.5t59 -27t45 -37.5t29 -43h7l8 102h53v-500q0 -48 14 -81
t37 -53.5t51.5 -30t57.5 -9.5q33 0 61.5 12t48.5 34t31.5 51t11.5 64q0 34 -12 63t-32.5 50.5t-49 33.5t-61.5 12v68q48 0 90 -17t73 -47.5t48.5 -72.5t17.5 -91t-17 -91t-47 -72.5t-71 -47.5t-89 -17zM307 51q44 0 79.5 17t61 45t39.5 63.5t14 72.5q0 38 -14 73.5t-40 62.5
t-61.5 43.5t-79.5 16.5q-40 0 -75 -14t-60.5 -40t-40.5 -62t-15 -80t15 -80.5t41 -62.5t61 -40.5t75 -14.5z" />
    <glyph glyph-name="a.ss01" horiz-adv-x="652" 
d="M301 -16q-56 0 -103.5 19.5t-82 55t-54 83.5t-19.5 105t19.5 106t54 84t81.5 55t103 20q38 0 70.5 -10.5t59 -27t45.5 -37.5t29 -43h6l8 102h54v-496h-54l-9 103h-6q-10 -22 -29 -43.5t-44.5 -38t-58 -27t-70.5 -10.5zM307 51q44 0 79.5 17t61 45t39.5 63.5t14 72.5
q0 38 -14 73.5t-40 62.5t-61.5 43.5t-79.5 16.5q-40 0 -75 -14t-60.5 -40t-40.5 -62t-15 -80t15 -80.5t41 -62.5t61 -40.5t75 -14.5z" />
    <glyph glyph-name="aacute.fina" horiz-adv-x="964" 
d="M404 776h72l-137 -194h-64zM735 -246q-45 0 -86.5 13.5t-73.5 43t-51 75t-19 108.5v105h-6q-10 -21 -28.5 -41.5t-43.5 -37t-56.5 -26.5t-69.5 -10q-56 0 -103.5 19.5t-82 55t-54 83.5t-19.5 105t19.5 106t54 84t81.5 55t103 20q38 0 71 -10.5t59 -27t45 -37.5t29 -43h7
l8 102h53v-500q0 -48 14 -81t37 -53.5t51.5 -30t57.5 -9.5q33 0 61.5 12t48.5 34t31.5 51t11.5 64q0 34 -12 63t-32.5 50.5t-49 33.5t-61.5 12v68q48 0 90 -17t73 -47.5t48.5 -72.5t17.5 -91t-17 -91t-47 -72.5t-71 -47.5t-89 -17zM307 51q44 0 79.5 17t61 45t39.5 63.5
t14 72.5q0 38 -14 73.5t-40 62.5t-61.5 43.5t-79.5 16.5q-40 0 -75 -14t-60.5 -40t-40.5 -62t-15 -80t15 -80.5t41 -62.5t61 -40.5t75 -14.5z" />
    <glyph glyph-name="aacute.ss01" horiz-adv-x="652" 
d="M405 776h72l-137 -194h-64zM301 -16q-56 0 -103.5 19.5t-82 55t-54 83.5t-19.5 105t19.5 106t54 84t81.5 55t103 20q38 0 70.5 -10.5t59 -27t45.5 -37.5t29 -43h6l8 102h54v-496h-54l-9 103h-6q-10 -22 -29 -43.5t-44.5 -38t-58 -27t-70.5 -10.5zM307 51q44 0 79.5 17
t61 45t39.5 63.5t14 72.5q0 38 -14 73.5t-40 62.5t-61.5 43.5t-79.5 16.5q-40 0 -75 -14t-60.5 -40t-40.5 -62t-15 -80t15 -80.5t41 -62.5t61 -40.5t75 -14.5z" />
    <glyph glyph-name="abreve.fina" horiz-adv-x="964" 
d="M307 586q-36 0 -66 12t-51.5 34t-34 54t-12.5 72h60q0 -59 29.5 -88t74.5 -29q44 0 73.5 29t29.5 88h60q0 -83 -45.5 -127.5t-117.5 -44.5zM735 -246q-45 0 -86.5 13.5t-73.5 43t-51 75t-19 108.5v105h-6q-10 -21 -28.5 -41.5t-43.5 -37t-56.5 -26.5t-69.5 -10
q-56 0 -103.5 19.5t-82 55t-54 83.5t-19.5 105t19.5 106t54 84t81.5 55t103 20q38 0 71 -10.5t59 -27t45 -37.5t29 -43h7l8 102h53v-500q0 -48 14 -81t37 -53.5t51.5 -30t57.5 -9.5q33 0 61.5 12t48.5 34t31.5 51t11.5 64q0 34 -12 63t-32.5 50.5t-49 33.5t-61.5 12v68
q48 0 90 -17t73 -47.5t48.5 -72.5t17.5 -91t-17 -91t-47 -72.5t-71 -47.5t-89 -17zM307 51q44 0 79.5 17t61 45t39.5 63.5t14 72.5q0 38 -14 73.5t-40 62.5t-61.5 43.5t-79.5 16.5q-40 0 -75 -14t-60.5 -40t-40.5 -62t-15 -80t15 -80.5t41 -62.5t61 -40.5t75 -14.5z" />
    <glyph glyph-name="abreve.ss01" horiz-adv-x="652" 
d="M308 586q-36 0 -66 12t-51.5 34t-34 54t-12.5 72h59q0 -59 30 -88t75 -29q44 0 73.5 29t29.5 88h60q0 -83 -45.5 -127.5t-117.5 -44.5zM301 -16q-56 0 -103.5 19.5t-82 55t-54 83.5t-19.5 105t19.5 106t54 84t81.5 55t103 20q38 0 70.5 -10.5t59 -27t45.5 -37.5t29 -43h6
l8 102h54v-496h-54l-9 103h-6q-10 -22 -29 -43.5t-44.5 -38t-58 -27t-70.5 -10.5zM307 51q44 0 79.5 17t61 45t39.5 63.5t14 72.5q0 38 -14 73.5t-40 62.5t-61.5 43.5t-79.5 16.5q-40 0 -75 -14t-60.5 -40t-40.5 -62t-15 -80t15 -80.5t41 -62.5t61 -40.5t75 -14.5z" />
    <glyph glyph-name="acircumflex.fina" horiz-adv-x="964" 
d="M276 775h60l140 -192h-66l-100 136h-6l-101 -136h-66zM735 -246q-45 0 -86.5 13.5t-73.5 43t-51 75t-19 108.5v105h-6q-10 -21 -28.5 -41.5t-43.5 -37t-56.5 -26.5t-69.5 -10q-56 0 -103.5 19.5t-82 55t-54 83.5t-19.5 105t19.5 106t54 84t81.5 55t103 20q38 0 71 -10.5
t59 -27t45 -37.5t29 -43h7l8 102h53v-500q0 -48 14 -81t37 -53.5t51.5 -30t57.5 -9.5q33 0 61.5 12t48.5 34t31.5 51t11.5 64q0 34 -12 63t-32.5 50.5t-49 33.5t-61.5 12v68q48 0 90 -17t73 -47.5t48.5 -72.5t17.5 -91t-17 -91t-47 -72.5t-71 -47.5t-89 -17zM307 51
q44 0 79.5 17t61 45t39.5 63.5t14 72.5q0 38 -14 73.5t-40 62.5t-61.5 43.5t-79.5 16.5q-40 0 -75 -14t-60.5 -40t-40.5 -62t-15 -80t15 -80.5t41 -62.5t61 -40.5t75 -14.5z" />
    <glyph glyph-name="acircumflex.ss01" horiz-adv-x="652" 
d="M277 775h60l139 -192h-66l-99 136h-6l-101 -136h-66zM301 -16q-56 0 -103.5 19.5t-82 55t-54 83.5t-19.5 105t19.5 106t54 84t81.5 55t103 20q38 0 70.5 -10.5t59 -27t45.5 -37.5t29 -43h6l8 102h54v-496h-54l-9 103h-6q-10 -22 -29 -43.5t-44.5 -38t-58 -27t-70.5 -10.5
zM307 51q44 0 79.5 17t61 45t39.5 63.5t14 72.5q0 38 -14 73.5t-40 62.5t-61.5 43.5t-79.5 16.5q-40 0 -75 -14t-60.5 -40t-40.5 -62t-15 -80t15 -80.5t41 -62.5t61 -40.5t75 -14.5z" />
    <glyph glyph-name="adieresis.fina" horiz-adv-x="964" 
d="M199 620q-22 0 -37.5 15.5t-15.5 37.5q0 23 15.5 38.5t37.5 15.5t38 -15.5t16 -38.5q0 -22 -16 -37.5t-38 -15.5zM416 620q-22 0 -37.5 15.5t-15.5 37.5q0 23 15.5 38.5t37.5 15.5q23 0 38.5 -15.5t15.5 -38.5q0 -22 -15.5 -37.5t-38.5 -15.5zM735 -246q-45 0 -86.5 13.5
t-73.5 43t-51 75t-19 108.5v105h-6q-10 -21 -28.5 -41.5t-43.5 -37t-56.5 -26.5t-69.5 -10q-56 0 -103.5 19.5t-82 55t-54 83.5t-19.5 105t19.5 106t54 84t81.5 55t103 20q38 0 71 -10.5t59 -27t45 -37.5t29 -43h7l8 102h53v-500q0 -48 14 -81t37 -53.5t51.5 -30t57.5 -9.5
q33 0 61.5 12t48.5 34t31.5 51t11.5 64q0 34 -12 63t-32.5 50.5t-49 33.5t-61.5 12v68q48 0 90 -17t73 -47.5t48.5 -72.5t17.5 -91t-17 -91t-47 -72.5t-71 -47.5t-89 -17zM307 51q44 0 79.5 17t61 45t39.5 63.5t14 72.5q0 38 -14 73.5t-40 62.5t-61.5 43.5t-79.5 16.5
q-40 0 -75 -14t-60.5 -40t-40.5 -62t-15 -80t15 -80.5t41 -62.5t61 -40.5t75 -14.5z" />
    <glyph glyph-name="adieresis.ss01" horiz-adv-x="652" 
d="M200 620q-23 0 -38.5 15.5t-15.5 37.5q0 23 15.5 38.5t38.5 15.5q22 0 37.5 -15.5t15.5 -38.5q0 -22 -15.5 -37.5t-37.5 -15.5zM417 620q-22 0 -37.5 15.5t-15.5 37.5q0 23 15.5 38.5t37.5 15.5q23 0 38.5 -15.5t15.5 -38.5q0 -22 -15.5 -37.5t-38.5 -15.5zM301 -16
q-56 0 -103.5 19.5t-82 55t-54 83.5t-19.5 105t19.5 106t54 84t81.5 55t103 20q38 0 70.5 -10.5t59 -27t45.5 -37.5t29 -43h6l8 102h54v-496h-54l-9 103h-6q-10 -22 -29 -43.5t-44.5 -38t-58 -27t-70.5 -10.5zM307 51q44 0 79.5 17t61 45t39.5 63.5t14 72.5q0 38 -14 73.5
t-40 62.5t-61.5 43.5t-79.5 16.5q-40 0 -75 -14t-60.5 -40t-40.5 -62t-15 -80t15 -80.5t41 -62.5t61 -40.5t75 -14.5z" />
    <glyph glyph-name="agrave.fina" horiz-adv-x="964" 
d="M143 777h72l130 -195h-65zM735 -246q-45 0 -86.5 13.5t-73.5 43t-51 75t-19 108.5v105h-6q-10 -21 -28.5 -41.5t-43.5 -37t-56.5 -26.5t-69.5 -10q-56 0 -103.5 19.5t-82 55t-54 83.5t-19.5 105t19.5 106t54 84t81.5 55t103 20q38 0 71 -10.5t59 -27t45 -37.5t29 -43h7
l8 102h53v-500q0 -48 14 -81t37 -53.5t51.5 -30t57.5 -9.5q33 0 61.5 12t48.5 34t31.5 51t11.5 64q0 34 -12 63t-32.5 50.5t-49 33.5t-61.5 12v68q48 0 90 -17t73 -47.5t48.5 -72.5t17.5 -91t-17 -91t-47 -72.5t-71 -47.5t-89 -17zM307 51q44 0 79.5 17t61 45t39.5 63.5
t14 72.5q0 38 -14 73.5t-40 62.5t-61.5 43.5t-79.5 16.5q-40 0 -75 -14t-60.5 -40t-40.5 -62t-15 -80t15 -80.5t41 -62.5t61 -40.5t75 -14.5z" />
    <glyph glyph-name="agrave.ss01" horiz-adv-x="652" 
d="M178 777h73l129 -195h-64zM301 -16q-56 0 -103.5 19.5t-82 55t-54 83.5t-19.5 105t19.5 106t54 84t81.5 55t103 20q38 0 70.5 -10.5t59 -27t45.5 -37.5t29 -43h6l8 102h54v-496h-54l-9 103h-6q-10 -22 -29 -43.5t-44.5 -38t-58 -27t-70.5 -10.5zM307 51q44 0 79.5 17
t61 45t39.5 63.5t14 72.5q0 38 -14 73.5t-40 62.5t-61.5 43.5t-79.5 16.5q-40 0 -75 -14t-60.5 -40t-40.5 -62t-15 -80t15 -80.5t41 -62.5t61 -40.5t75 -14.5z" />
    <glyph glyph-name="amacron.fina" horiz-adv-x="964" 
d="M129 683h355v-55h-355v55zM735 -246q-45 0 -86.5 13.5t-73.5 43t-51 75t-19 108.5v105h-6q-10 -21 -28.5 -41.5t-43.5 -37t-56.5 -26.5t-69.5 -10q-56 0 -103.5 19.5t-82 55t-54 83.5t-19.5 105t19.5 106t54 84t81.5 55t103 20q38 0 71 -10.5t59 -27t45 -37.5t29 -43h7
l8 102h53v-500q0 -48 14 -81t37 -53.5t51.5 -30t57.5 -9.5q33 0 61.5 12t48.5 34t31.5 51t11.5 64q0 34 -12 63t-32.5 50.5t-49 33.5t-61.5 12v68q48 0 90 -17t73 -47.5t48.5 -72.5t17.5 -91t-17 -91t-47 -72.5t-71 -47.5t-89 -17zM307 51q44 0 79.5 17t61 45t39.5 63.5
t14 72.5q0 38 -14 73.5t-40 62.5t-61.5 43.5t-79.5 16.5q-40 0 -75 -14t-60.5 -40t-40.5 -62t-15 -80t15 -80.5t41 -62.5t61 -40.5t75 -14.5z" />
    <glyph glyph-name="amacron.ss01" horiz-adv-x="652" 
d="M130 683h355v-55h-355v55zM301 -16q-56 0 -103.5 19.5t-82 55t-54 83.5t-19.5 105t19.5 106t54 84t81.5 55t103 20q38 0 70.5 -10.5t59 -27t45.5 -37.5t29 -43h6l8 102h54v-496h-54l-9 103h-6q-10 -22 -29 -43.5t-44.5 -38t-58 -27t-70.5 -10.5zM307 51q44 0 79.5 17
t61 45t39.5 63.5t14 72.5q0 38 -14 73.5t-40 62.5t-61.5 43.5t-79.5 16.5q-40 0 -75 -14t-60.5 -40t-40.5 -62t-15 -80t15 -80.5t41 -62.5t61 -40.5t75 -14.5z" />
    <glyph glyph-name="aogonek.fina" horiz-adv-x="964" 
d="M764 -244q-14 -6 -30 -15.5t-30 -24t-23 -34t-9 -46.5q0 -35 20.5 -54.5t53.5 -19.5q10 0 19.5 1t17.5 3v-51q-12 -3 -25 -5t-27 -2q-51 0 -86.5 31t-35.5 90q0 51 23.5 81.5t52.5 47.5q-37 7 -70 24t-57.5 46t-38.5 70.5t-14 95.5v105h-6q-10 -21 -28.5 -41.5t-43.5 -37
t-56.5 -26.5t-69.5 -10q-56 0 -103.5 19.5t-82 55t-54 83.5t-19.5 105t19.5 106t54 84t81.5 55t103 20q38 0 71 -10.5t59 -27t45 -37.5t29 -43h7l8 102h53v-500q0 -48 14 -81t37 -53.5t51.5 -30t57.5 -9.5q33 0 61.5 12t48.5 34t31.5 51t11.5 64q0 34 -12 63t-32.5 50.5
t-49 33.5t-61.5 12v68q48 0 90 -17t73 -47.5t48.5 -72.5t17.5 -91q0 -45 -14.5 -84.5t-40.5 -69t-62 -48.5t-78 -24zM307 51q44 0 79.5 17t61 45t39.5 63.5t14 72.5q0 38 -14 73.5t-40 62.5t-61.5 43.5t-79.5 16.5q-40 0 -75 -14t-60.5 -40t-40.5 -62t-15 -80t15 -80.5
t41 -62.5t61 -40.5t75 -14.5z" />
    <glyph glyph-name="aogonek.ss01" horiz-adv-x="652" 
d="M543 -199q19 0 37 5v-51q-26 -8 -52 -8q-51 0 -86.5 31.5t-35.5 90.5q0 33 11 57.5t27.5 42t36 29t36.5 18.5l-8 87h-6q-10 -22 -29 -43.5t-44.5 -38t-58 -27t-70.5 -10.5q-56 0 -103.5 19.5t-82 55t-54 83.5t-19.5 105t19.5 106t54 84t81.5 55t103 20q38 0 70.5 -10.5
t59 -27t45.5 -37.5t29 -43h6l8 102h54v-496q-13 -5 -30.5 -14t-33.5 -23.5t-27.5 -36t-11.5 -51.5q0 -35 20.5 -54.5t53.5 -19.5zM307 51q44 0 79.5 17t61 45t39.5 63.5t14 72.5q0 38 -14 73.5t-40 62.5t-61.5 43.5t-79.5 16.5q-40 0 -75 -14t-60.5 -40t-40.5 -62t-15 -80
t15 -80.5t41 -62.5t61 -40.5t75 -14.5z" />
    <glyph glyph-name="aring.fina" horiz-adv-x="964" 
d="M308 579q-45 0 -75 29.5t-30 72.5q0 42 30 71.5t75 29.5t75 -29.5t30 -71.5q0 -43 -30 -72.5t-75 -29.5zM308 624q23 0 39.5 16t16.5 41q0 24 -16.5 40t-39.5 16t-39.5 -16t-16.5 -40q0 -25 16 -41t40 -16zM735 -246q-45 0 -86.5 13.5t-73.5 43t-51 75t-19 108.5v105h-6
q-10 -21 -28.5 -41.5t-43.5 -37t-56.5 -26.5t-69.5 -10q-56 0 -103.5 19.5t-82 55t-54 83.5t-19.5 105t19.5 106t54 84t81.5 55t103 20q38 0 71 -10.5t59 -27t45 -37.5t29 -43h7l8 102h53v-500q0 -48 14 -81t37 -53.5t51.5 -30t57.5 -9.5q33 0 61.5 12t48.5 34t31.5 51
t11.5 64q0 34 -12 63t-32.5 50.5t-49 33.5t-61.5 12v68q48 0 90 -17t73 -47.5t48.5 -72.5t17.5 -91t-17 -91t-47 -72.5t-71 -47.5t-89 -17zM307 51q44 0 79.5 17t61 45t39.5 63.5t14 72.5q0 38 -14 73.5t-40 62.5t-61.5 43.5t-79.5 16.5q-40 0 -75 -14t-60.5 -40t-40.5 -62
t-15 -80t15 -80.5t41 -62.5t61 -40.5t75 -14.5z" />
    <glyph glyph-name="aring.ss01" horiz-adv-x="652" 
d="M309 579q-45 0 -75 29.5t-30 72.5q0 42 30 71.5t75 29.5t74.5 -29.5t29.5 -71.5q0 -43 -29.5 -72.5t-74.5 -29.5zM309 624q23 0 39.5 16t16.5 41q0 24 -16.5 40t-39.5 16t-40 -16t-17 -40q0 -25 16.5 -41t40.5 -16zM301 -16q-56 0 -103.5 19.5t-82 55t-54 83.5t-19.5 105
t19.5 106t54 84t81.5 55t103 20q38 0 70.5 -10.5t59 -27t45.5 -37.5t29 -43h6l8 102h54v-496h-54l-9 103h-6q-10 -22 -29 -43.5t-44.5 -38t-58 -27t-70.5 -10.5zM307 51q44 0 79.5 17t61 45t39.5 63.5t14 72.5q0 38 -14 73.5t-40 62.5t-61.5 43.5t-79.5 16.5q-40 0 -75 -14
t-60.5 -40t-40.5 -62t-15 -80t15 -80.5t41 -62.5t61 -40.5t75 -14.5z" />
    <glyph glyph-name="atilde.fina" horiz-adv-x="964" 
d="M402 604q-30 0 -51 12t-39 27t-36 27t-41 12q-31 0 -40.5 -20t-10.5 -48h-54q0 54 26.5 90t77.5 36q29 0 50 -12t39.5 -27t36.5 -27t42 -12q30 0 39 18t10 41h55q0 -54 -25.5 -85.5t-78.5 -31.5zM735 -246q-45 0 -86.5 13.5t-73.5 43t-51 75t-19 108.5v105h-6
q-10 -21 -28.5 -41.5t-43.5 -37t-56.5 -26.5t-69.5 -10q-56 0 -103.5 19.5t-82 55t-54 83.5t-19.5 105t19.5 106t54 84t81.5 55t103 20q38 0 71 -10.5t59 -27t45 -37.5t29 -43h7l8 102h53v-500q0 -48 14 -81t37 -53.5t51.5 -30t57.5 -9.5q33 0 61.5 12t48.5 34t31.5 51
t11.5 64q0 34 -12 63t-32.5 50.5t-49 33.5t-61.5 12v68q48 0 90 -17t73 -47.5t48.5 -72.5t17.5 -91t-17 -91t-47 -72.5t-71 -47.5t-89 -17zM307 51q44 0 79.5 17t61 45t39.5 63.5t14 72.5q0 38 -14 73.5t-40 62.5t-61.5 43.5t-79.5 16.5q-40 0 -75 -14t-60.5 -40t-40.5 -62
t-15 -80t15 -80.5t41 -62.5t61 -40.5t75 -14.5z" />
    <glyph glyph-name="atilde.ss01" horiz-adv-x="652" 
d="M403 604q-30 0 -51 12t-39.5 27t-36.5 27t-41 12q-31 0 -40 -20t-10 -48h-54q0 54 26.5 90t77.5 36q29 0 50 -12t39.5 -27t36.5 -27t41 -12q31 0 40 18t10 41h54q0 -54 -25 -85.5t-78 -31.5zM301 -16q-56 0 -103.5 19.5t-82 55t-54 83.5t-19.5 105t19.5 106t54 84
t81.5 55t103 20q38 0 70.5 -10.5t59 -27t45.5 -37.5t29 -43h6l8 102h54v-496h-54l-9 103h-6q-10 -22 -29 -43.5t-44.5 -38t-58 -27t-70.5 -10.5zM307 51q44 0 79.5 17t61 45t39.5 63.5t14 72.5q0 38 -14 73.5t-40 62.5t-61.5 43.5t-79.5 16.5q-40 0 -75 -14t-60.5 -40
t-40.5 -62t-15 -80t15 -80.5t41 -62.5t61 -40.5t75 -14.5z" />
    <glyph glyph-name="d.fina" horiz-adv-x="964" 
d="M735 -246q-45 0 -86.5 13.5t-73.5 43t-51 75t-19 108.5l-1 105h-6q-10 -21 -28 -41.5t-43 -37t-56.5 -26.5t-69.5 -10q-56 0 -103.5 19.5t-82 55t-54 83.5t-19.5 105t19.5 106t54 84t81.5 55t103 20q37 0 68 -9.5t56 -25.5t42.5 -35.5t27.5 -40.5h6v304h72v-709
q0 -48 14 -81t37 -53.5t51.5 -30t57.5 -9.5q33 0 61.5 12t48.5 34t31.5 51t11.5 64q0 34 -12 63t-32.5 50.5t-49 33.5t-61.5 12v68q48 0 90 -17t73 -47.5t48.5 -72.5t17.5 -91t-17 -91t-47 -72.5t-71 -47.5t-89 -17zM307 51q44 0 79.5 17t61 45t39.5 63.5t14 72.5
q0 38 -14 73.5t-40 62.5t-61.5 43.5t-79.5 16.5q-40 0 -75 -14t-60.5 -40t-40.5 -62t-15 -80t15 -80.5t41 -62.5t61 -40.5t75 -14.5z" />
    <glyph glyph-name="d.ss01" horiz-adv-x="652" 
d="M301 -16q-56 0 -103.5 19.5t-82 55t-54 83.5t-19.5 105t19.5 106t54 84t81.5 55t103 20q37 0 68 -9.5t55.5 -25.5t42 -35.5t27.5 -40.5h6v304h73v-705h-54l-9 103h-6q-10 -22 -29 -43.5t-44.5 -38t-58 -27t-70.5 -10.5zM307 51q44 0 79.5 17t61 45t39.5 63.5t14 72.5
q0 38 -14 73.5t-40 62.5t-61.5 43.5t-79.5 16.5q-40 0 -75 -14t-60.5 -40t-40.5 -62t-15 -80t15 -80.5t41 -62.5t61 -40.5t75 -14.5z" />
    <glyph glyph-name="dcaron.fina" horiz-adv-x="965" 
d="M735 -246q-45 0 -86.5 13.5t-73.5 43t-51 75t-19 108.5l-1 105h-6q-10 -21 -28 -41.5t-43 -37t-56.5 -26.5t-69.5 -10q-56 0 -103.5 19.5t-82 55t-54 83.5t-19.5 105t19.5 106t54 84t81.5 55t103 20q37 0 68 -9.5t56 -25.5t42.5 -35.5t27.5 -40.5h6v304h72v-709
q0 -48 14 -81t37 -53.5t51.5 -30t57.5 -9.5q33 0 61.5 12t48.5 34t31.5 51t11.5 64q0 34 -12 63t-32.5 50.5t-49 33.5t-61.5 12v68q48 0 90 -17t73 -47.5t48.5 -72.5t17.5 -91t-17 -91t-47 -72.5t-71 -47.5t-89 -17zM713 705h67l-57 -200h-60zM307 51q44 0 79.5 17t61 45
t39.5 63.5t14 72.5q0 38 -14 73.5t-40 62.5t-61.5 43.5t-79.5 16.5q-40 0 -75 -14t-60.5 -40t-40.5 -62t-15 -80t15 -80.5t41 -62.5t61 -40.5t75 -14.5z" />
    <glyph glyph-name="dcaron.ss01" horiz-adv-x="697" 
d="M301 -16q-56 0 -103.5 19.5t-82 55t-54 83.5t-19.5 105t19.5 106t54 84t81.5 55t103 20q37 0 68 -9.5t55.5 -25.5t42 -35.5t27.5 -40.5h6v304h73v-705h-54l-9 103h-6q-10 -22 -29 -43.5t-44.5 -38t-58 -27t-70.5 -10.5zM672 705h67l-57 -199h-60zM307 51q44 0 79.5 17
t61 45t39.5 63.5t14 72.5q0 38 -14 73.5t-40 62.5t-61.5 43.5t-79.5 16.5q-40 0 -75 -14t-60.5 -40t-40.5 -62t-15 -80t15 -80.5t41 -62.5t61 -40.5t75 -14.5z" />
    <glyph glyph-name="dcroat.fina" horiz-adv-x="964" 
d="M730 210q48 0 90 -17t73 -47.5t48.5 -72.5t17.5 -91t-17 -91t-47 -72.5t-71 -47.5t-89 -17q-45 0 -86.5 13.5t-73.5 43t-51 75t-19 108.5l-1 105h-6q-10 -21 -28 -41.5t-43 -37t-56.5 -26.5t-69.5 -10q-56 0 -103.5 19.5t-82 55t-54 83.5t-19.5 105t19.5 106t54 84
t81.5 55t103 20q37 0 68 -9.5t56 -25.5t42.5 -35.5t27.5 -40.5h6v180h-128v49h128v75h72v-75h96v-49h-96v-585q0 -48 14 -81t37 -53.5t51.5 -30t57.5 -9.5q33 0 61.5 12t48.5 34t31.5 51t11.5 64q0 34 -12 63t-32.5 50.5t-49 33.5t-61.5 12v68zM307 51q44 0 79.5 17t61 45
t39.5 63.5t14 72.5q0 38 -14 73.5t-40 62.5t-61.5 43.5t-79.5 16.5q-40 0 -75 -14t-60.5 -40t-40.5 -62t-15 -80t15 -80.5t41 -62.5t61 -40.5t75 -14.5z" />
    <glyph glyph-name="dcroat.ss01" horiz-adv-x="652" 
d="M667 581h-95v-581h-54l-9 103h-6q-10 -22 -29 -43.5t-44.5 -38t-58 -27t-70.5 -10.5q-56 0 -103.5 19.5t-82 55t-54 83.5t-19.5 105t19.5 106t54 84t81.5 55t103 20q37 0 68 -9.5t55.5 -25.5t42 -35.5t27.5 -40.5h6v180h-128v49h128v75h73v-75h95v-49zM307 51
q44 0 79.5 17t61 45t39.5 63.5t14 72.5q0 38 -14 73.5t-40 62.5t-61.5 43.5t-79.5 16.5q-40 0 -75 -14t-60.5 -40t-40.5 -62t-15 -80t15 -80.5t41 -62.5t61 -40.5t75 -14.5z" />
    <glyph glyph-name="g.init" horiz-adv-x="599" 
d="M415 67q71 -21 109 -67t38 -115q0 -42 -15.5 -81.5t-48.5 -70t-84 -49t-122 -18.5q-61 0 -111.5 18t-86.5 50t-55.5 77.5t-19.5 100.5q0 17 1.5 33t6.5 33h71q-6 -29 -6 -55q0 -41 14 -75.5t39.5 -59.5t63 -39t83.5 -14q50 0 86 13t59.5 34.5t35 51t11.5 62.5
q0 38 -16 65t-42.5 44.5t-60 26t-69.5 8.5q-58 0 -104 16.5t-78.5 47t-50 74.5t-17.5 98q0 53 18.5 96t51.5 74t78.5 48.5t99.5 17.5h252v-53h-91q42 -32 66.5 -79.5t24.5 -103.5q0 -72 -36 -126t-95 -83zM116 276q0 -43 14 -75t38 -54t57 -33t71 -11q41 0 74 14.5t56.5 39
t36.5 55.5t13 64q0 44 -16 76.5t-42 53.5t-58 31.5t-64 10.5q-33 0 -65 -10.5t-57.5 -32t-41.5 -53.5t-16 -76z" />
    <glyph glyph-name="g.ss01" horiz-adv-x="654" 
d="M292 -231q-48 0 -100.5 14.5t-97.5 37.5v68h8q45 -26 92 -40t92 -14q41 0 79.5 10t68.5 35.5t48 69t18 110.5v41h-6q-10 -20 -27.5 -40t-42 -36.5t-55.5 -26.5t-68 -10q-56 0 -103.5 19t-82 53.5t-54 82t-19.5 104.5t19.5 106t54 84t81.5 55t103 20q38 0 71 -9.5t59 -26
t45.5 -37t30.5 -43.5h6l12 100h50v-420q0 -147 -69.5 -227t-212.5 -80zM307 51q44 0 79.5 17t61 45t39.5 63.5t14 72.5q0 38 -14 73.5t-40 62.5t-61.5 43.5t-79.5 16.5q-40 0 -75 -14t-60.5 -40t-40.5 -62t-15 -80t15 -80.5t41 -62.5t61 -40.5t75 -14.5z" />
    <glyph glyph-name="gbreve.init" horiz-adv-x="599" 
d="M297 586q-36 0 -66.5 12t-52 34t-34 54t-12.5 72h60q0 -59 30 -88t75 -29q44 0 73 29t29 88h60q0 -82 -45.5 -127t-116.5 -45zM415 67q71 -21 109 -67t38 -115q0 -42 -15.5 -81.5t-48.5 -70t-84 -49t-122 -18.5q-61 0 -111.5 18t-86.5 50t-55.5 77.5t-19.5 100.5
q0 17 1.5 33t6.5 33h71q-6 -29 -6 -55q0 -41 14 -75.5t39.5 -59.5t63 -39t83.5 -14q50 0 86 13t59.5 34.5t35 51t11.5 62.5q0 38 -16 65t-42.5 44.5t-60 26t-69.5 8.5q-58 0 -104 16.5t-78.5 47t-50 74.5t-17.5 98q0 53 18.5 96t51.5 74t78.5 48.5t99.5 17.5h252v-53h-91
q42 -32 66.5 -79.5t24.5 -103.5q0 -72 -36 -126t-95 -83zM116 276q0 -43 14 -75t38 -54t57 -33t71 -11q41 0 74 14.5t56.5 39t36.5 55.5t13 64q0 44 -16 76.5t-42 53.5t-58 31.5t-64 10.5q-33 0 -65 -10.5t-57.5 -32t-41.5 -53.5t-16 -76z" />
    <glyph glyph-name="gbreve.ss01" horiz-adv-x="654" 
d="M307 586q-36 0 -66 12t-51.5 34t-34 54t-12.5 72h60q0 -59 29.5 -88t74.5 -29q44 0 73.5 29t29.5 88h60q0 -83 -45.5 -127.5t-117.5 -44.5zM292 -231q-48 0 -100.5 14.5t-97.5 37.5v68h8q45 -26 92 -40t92 -14q41 0 79.5 10t68.5 35.5t48 69t18 110.5v41h-6
q-10 -20 -27.5 -40t-42 -36.5t-55.5 -26.5t-68 -10q-56 0 -103.5 19t-82 53.5t-54 82t-19.5 104.5t19.5 106t54 84t81.5 55t103 20q38 0 71 -9.5t59 -26t45.5 -37t30.5 -43.5h6l12 100h50v-420q0 -147 -69.5 -227t-212.5 -80zM307 51q44 0 79.5 17t61 45t39.5 63.5t14 72.5
q0 38 -14 73.5t-40 62.5t-61.5 43.5t-79.5 16.5q-40 0 -75 -14t-60.5 -40t-40.5 -62t-15 -80t15 -80.5t41 -62.5t61 -40.5t75 -14.5z" />
    <glyph glyph-name="gdotaccent.init" horiz-adv-x="599" 
d="M297 620q-23 0 -39.5 16.5t-16.5 39.5t16.5 39.5t39.5 16.5t39.5 -16.5t16.5 -39.5t-16.5 -39.5t-39.5 -16.5zM415 67q71 -21 109 -67t38 -115q0 -42 -15.5 -81.5t-48.5 -70t-84 -49t-122 -18.5q-61 0 -111.5 18t-86.5 50t-55.5 77.5t-19.5 100.5q0 17 1.5 33t6.5 33h71
q-6 -29 -6 -55q0 -41 14 -75.5t39.5 -59.5t63 -39t83.5 -14q50 0 86 13t59.5 34.5t35 51t11.5 62.5q0 38 -16 65t-42.5 44.5t-60 26t-69.5 8.5q-58 0 -104 16.5t-78.5 47t-50 74.5t-17.5 98q0 53 18.5 96t51.5 74t78.5 48.5t99.5 17.5h252v-53h-91q42 -32 66.5 -79.5
t24.5 -103.5q0 -72 -36 -126t-95 -83zM116 276q0 -43 14 -75t38 -54t57 -33t71 -11q41 0 74 14.5t56.5 39t36.5 55.5t13 64q0 44 -16 76.5t-42 53.5t-58 31.5t-64 10.5q-33 0 -65 -10.5t-57.5 -32t-41.5 -53.5t-16 -76z" />
    <glyph glyph-name="gdotaccent.ss01" horiz-adv-x="654" 
d="M307 620q-23 0 -39.5 16.5t-16.5 39.5t16.5 39.5t39.5 16.5q24 0 40.5 -16.5t16.5 -39.5t-16.5 -39.5t-40.5 -16.5zM292 -231q-48 0 -100.5 14.5t-97.5 37.5v68h8q45 -26 92 -40t92 -14q41 0 79.5 10t68.5 35.5t48 69t18 110.5v41h-6q-10 -20 -27.5 -40t-42 -36.5
t-55.5 -26.5t-68 -10q-56 0 -103.5 19t-82 53.5t-54 82t-19.5 104.5t19.5 106t54 84t81.5 55t103 20q38 0 71 -9.5t59 -26t45.5 -37t30.5 -43.5h6l12 100h50v-420q0 -147 -69.5 -227t-212.5 -80zM307 51q44 0 79.5 17t61 45t39.5 63.5t14 72.5q0 38 -14 73.5t-40 62.5
t-61.5 43.5t-79.5 16.5q-40 0 -75 -14t-60.5 -40t-40.5 -62t-15 -80t15 -80.5t41 -62.5t61 -40.5t75 -14.5z" />
    <glyph glyph-name="h.fina" horiz-adv-x="931" 
d="M704 -246q-46 0 -88.5 14t-75.5 43.5t-53 75.5t-20 110v283q0 77 -41.5 120.5t-112.5 43.5q-39 0 -68.5 -15t-49.5 -40t-30.5 -57t-10.5 -67v-265h-74v705h72v-293h6q10 19 25.5 36.5t37 31.5t49 22.5t61.5 8.5q100 0 155.5 -58.5t55.5 -158.5v-298q0 -48 14 -81
t36.5 -53.5t51 -30t57.5 -9.5q33 0 61.5 12t48.5 34t31.5 51t11.5 64q0 34 -12 63t-32.5 50.5t-49 33.5t-61.5 12v68q48 0 89.5 -17t72.5 -47.5t48.5 -72.5t17.5 -91q0 -50 -17 -92t-46.5 -72t-70.5 -47t-89 -17z" />
    <glyph glyph-name="hbar.fina" horiz-adv-x="931" 
d="M699 210q48 0 89.5 -17t72.5 -47.5t48.5 -72.5t17.5 -91q0 -50 -17 -92t-46.5 -72t-70.5 -47t-89 -17q-46 0 -88.5 14t-75.5 43.5t-53 75.5t-20 110v283q0 77 -41.5 120.5t-112.5 43.5q-39 0 -68.5 -15t-49.5 -40t-30.5 -57t-10.5 -67v-265h-74v581h-92v49h92v75h72v-75
h132v-49h-132v-169h6q10 19 25.5 36.5t37 31.5t49 22.5t61.5 8.5q100 0 155.5 -58.5t55.5 -158.5v-298q0 -48 14 -81t36.5 -53.5t51 -30t57.5 -9.5q33 0 61.5 12t48.5 34t31.5 51t11.5 64q0 34 -12 63t-32.5 50.5t-49 33.5t-61.5 12v68z" />
    <glyph glyph-name="i.loclTRK" horiz-adv-x="234" 
d="M117 604q-23 0 -39.5 16.5t-16.5 39.5t16.5 40t39.5 17t39.5 -17t16.5 -40t-16.5 -39.5t-39.5 -16.5zM80 496h74v-496h-74v496z" />
    <glyph glyph-name="ijacute" horiz-adv-x="492" 
d="M203 753h73l-137 -195h-65zM476 753h73l-138 -195h-64zM80 496h74v-495h-74v495zM254 -228q-24 0 -41.5 2.5t-42.5 9.5v64h8q19 -7 32 -10t31 -3q35 0 55 12t29.5 33.5t11.5 50.5t2 63v502h73v-522q0 -43 -5.5 -80t-22.5 -64t-48 -42.5t-82 -15.5z" />
    <glyph glyph-name="j.init" horiz-adv-x="557" 
d="M441 604q-23 0 -39.5 16.5t-16.5 39.5q0 24 16.5 40.5t39.5 16.5t40 -17t17 -40t-17 -39.5t-40 -16.5zM241 -196q-48 0 -89 17t-71 47t-47 72t-17 92q0 49 17.5 91t48.5 72.5t73 47.5t90 17v-68q-33 0 -61.5 -12t-49 -33.5t-32.5 -50.5t-12 -63q0 -35 11.5 -64t31.5 -51
t48 -34t61 -12q29 0 58 9.5t51.5 30t36.5 53.5t14 81v450h74v-449q0 -64 -19.5 -110t-52.5 -75.5t-75.5 -43.5t-88.5 -14z" />
    <glyph glyph-name="k.fina" horiz-adv-x="925" 
d="M679 340q49 0 89 -16.5t68 -46t43.5 -70t15.5 -88.5t-16 -88.5t-45.5 -69.5t-69.5 -45t-88 -16q-66 0 -119 20t-96.5 57.5t-77.5 90.5t-61 120q23 10 46 22.5t41.5 30.5t30.5 42.5t12 57.5q0 48 -30.5 76t-82.5 28q-57 0 -103.5 -29.5t-82.5 -83.5v-332h-73v705h73v-294
h6q13 18 33.5 36t46.5 33t56.5 24t62.5 9q79 0 123.5 -44t44.5 -113q0 -66 -34 -109.5t-87 -69.5q50 -101 112.5 -154.5t153.5 -53.5q32 0 60 10.5t48 30t31.5 47t11.5 61.5q0 69 -39.5 109.5t-103.5 40.5v72z" />
    <glyph glyph-name="k.fina.ss01" horiz-adv-x="821" 
d="M570 -100q-68 0 -124 25.5t-104.5 70.5t-93 107.5t-89.5 136.5h-6v-240h-73v705h73v-421h6l238 213h88l-260 -230q41 -63 79 -117.5t78 -94.5t84.5 -63t99.5 -23q33 0 60.5 10.5t48 30t32 47t11.5 61.5q0 69 -39.5 109.5t-103.5 40.5v72q49 0 89 -16.5t68 -46t43.5 -70
t15.5 -88.5t-16 -88.5t-45.5 -69.5t-70 -45t-89.5 -16z" />
    <glyph glyph-name="k.ss01" horiz-adv-x="504" 
d="M80 705h73v-421h6l238 213h88l-260 -230l282 -267h-92l-256 240h-6v-240h-73v705z" />
    <glyph glyph-name="m.fina" horiz-adv-x="1318" 
d="M1086 210q48 0 89.5 -17t72.5 -47.5t48.5 -72.5t17.5 -91q0 -50 -17 -92t-47 -72t-70.5 -47t-88.5 -17q-46 0 -88.5 14t-75.5 43.5t-53 75.5t-20 110v282q0 77 -41.5 121t-112.5 44q-39 0 -68.5 -14t-49.5 -36t-30 -48.5t-10 -51.5v-294h-75v279q0 36 -8.5 66t-27.5 52
t-48 34.5t-70 12.5q-39 0 -68.5 -15t-49.5 -40t-30.5 -57.5t-10.5 -67.5v-264h-74v499h60l8 -91h7q10 20 26.5 38.5t39 33t51 23t62.5 8.5q74 0 120 -28.5t67 -74.5h3q10 20 28 38.5t42.5 32.5t54.5 23t64 9q50 0 89.5 -15.5t68 -43.5t43.5 -68t15 -90v-298q0 -48 14 -81
t36.5 -53.5t51 -30t57.5 -9.5q33 0 61.5 12t48.5 34t31.5 51t11.5 64q0 34 -12 63t-33 50.5t-49 33.5t-61 12v68z" />
    <glyph glyph-name="m.init" horiz-adv-x="1328" 
d="M1041 511q49 0 89 -15.5t68 -43.5t43 -68t15 -90v-294h-74v279q0 77 -41.5 121t-112.5 44q-39 0 -68.5 -14t-49.5 -36t-30.5 -48.5t-10.5 -51.5v-294h-75v279q0 36 -8.5 66t-27 52t-48 34.5t-70.5 12.5q-38 0 -67.5 -15t-49.5 -40t-30.5 -57.5t-10.5 -67.5v-264h-75v408
q0 48 -14 80.5t-36.5 53t-50.5 29.5t-57 9q-33 0 -60.5 -12t-48 -33t-32 -49t-11.5 -61t12 -61t33 -48.5t49 -32t60 -11.5v-68q-48 0 -89 17t-72 47t-48.5 70.5t-17.5 87.5q0 48 17.5 89t47.5 70.5t71 46t88 16.5q42 0 81 -12.5t70 -39t51.5 -69t24.5 -102.5l1 -17h6
q10 20 26.5 38.5t39 33t51 23t62.5 8.5q75 0 120.5 -28.5t67.5 -74.5h3q10 20 28 38.5t42.5 32.5t54.5 23t64 9z" />
    <glyph glyph-name="n.fina" horiz-adv-x="931" 
d="M704 -246q-46 0 -88.5 14t-75.5 43.5t-53 75.5t-20 110v283q0 77 -41.5 120.5t-112.5 43.5q-39 0 -68.5 -15t-49.5 -40t-30.5 -57t-10.5 -67v-265h-74v496h60l8 -88h7q10 20 26 38.5t38 33t50 23t62 8.5q100 0 155.5 -58.5t55.5 -158.5v-298q0 -48 14 -81t36.5 -53.5
t51 -30t57.5 -9.5q33 0 61 12t48 34t31.5 51t11.5 64q0 34 -12 63t-32.5 50.5t-48.5 33.5t-61 12v68q48 0 89.5 -17t72.5 -47.5t48.5 -72.5t17.5 -91q0 -50 -17 -92t-47 -72t-70.5 -47t-88.5 -17z" />
    <glyph glyph-name="n.init" horiz-adv-x="940" 
d="M407 408q0 48 -14 80.5t-36.5 53t-50.5 29.5t-57 9q-33 0 -60.5 -12t-48 -33t-32 -49t-11.5 -61t12 -61t33 -48.5t49 -32t60 -11.5v-68q-48 0 -89 17t-72 47t-48.5 70.5t-17.5 87.5q0 48 17.5 89t47.5 70.5t71 46t88 16.5q42 0 81 -12.5t70 -39t51.5 -69t24.5 -102.5
l1 -17h6q10 20 26 38.5t38 33t50.5 23t62.5 8.5q99 0 154.5 -58.5t55.5 -158.5v-294h-75v280q0 77 -41 120.5t-113 43.5q-38 0 -67.5 -15t-49.5 -40t-30.5 -57t-10.5 -67v-265h-75v408z" />
    <glyph glyph-name="nacute.fina" horiz-adv-x="931" 
d="M407 774h73l-138 -195h-64zM704 -246q-46 0 -88.5 14t-75.5 43.5t-53 75.5t-20 110v283q0 77 -41.5 120.5t-112.5 43.5q-39 0 -68.5 -15t-49.5 -40t-30.5 -57t-10.5 -67v-265h-74v496h60l8 -88h7q10 20 26 38.5t38 33t50 23t62 8.5q100 0 155.5 -58.5t55.5 -158.5v-298
q0 -48 14 -81t36.5 -53.5t51 -30t57.5 -9.5q33 0 61 12t48 34t31.5 51t11.5 64q0 34 -12 63t-32.5 50.5t-48.5 33.5t-61 12v68q48 0 89.5 -17t72.5 -47.5t48.5 -72.5t17.5 -91q0 -50 -17 -92t-47 -72t-70.5 -47t-88.5 -17z" />
    <glyph glyph-name="nacute.init" horiz-adv-x="935" 
d="M743 776h73l-138 -195h-64zM407 408q0 48 -14 80.5t-36.5 53t-50.5 29.5t-57 9q-33 0 -60.5 -12t-48 -33t-32 -49t-11.5 -61t12 -61t33 -48.5t49 -32t60 -11.5v-68q-48 0 -89 17t-72 47t-48.5 70.5t-17.5 87.5q0 48 17.5 89t47.5 70.5t71 46t88 16.5q42 0 81 -12.5
t70 -39t51.5 -69t24.5 -102.5l1 -17h6q10 20 26 38.5t38 33t50.5 23t62.5 8.5q99 0 154.5 -58.5t55.5 -158.5v-294h-75v280q0 77 -41 120.5t-113 43.5q-38 0 -67.5 -15t-49.5 -40t-30.5 -57t-10.5 -67v-265h-75v408z" />
    <glyph glyph-name="ncaron.fina" horiz-adv-x="931" 
d="M141 772h66l100 -136h6l100 136h66l-140 -192h-59zM704 -246q-46 0 -88.5 14t-75.5 43.5t-53 75.5t-20 110v283q0 77 -41.5 120.5t-112.5 43.5q-39 0 -68.5 -15t-49.5 -40t-30.5 -57t-10.5 -67v-265h-74v496h60l8 -88h7q10 20 26 38.5t38 33t50 23t62 8.5
q100 0 155.5 -58.5t55.5 -158.5v-298q0 -48 14 -81t36.5 -53.5t51 -30t57.5 -9.5q33 0 61 12t48 34t31.5 51t11.5 64q0 34 -12 63t-32.5 50.5t-48.5 33.5t-61 12v68q48 0 89.5 -17t72.5 -47.5t48.5 -72.5t17.5 -91q0 -50 -17 -92t-47 -72t-70.5 -47t-88.5 -17z" />
    <glyph glyph-name="ncaron.init" horiz-adv-x="935" 
d="M477 774h66l100 -136h7l99 136h66l-140 -192h-59zM407 408q0 48 -14 80.5t-36.5 53t-50.5 29.5t-57 9q-33 0 -60.5 -12t-48 -33t-32 -49t-11.5 -61t12 -61t33 -48.5t49 -32t60 -11.5v-68q-48 0 -89 17t-72 47t-48.5 70.5t-17.5 87.5q0 48 17.5 89t47.5 70.5t71 46
t88 16.5q42 0 81 -12.5t70 -39t51.5 -69t24.5 -102.5l1 -17h6q10 20 26 38.5t38 33t50.5 23t62.5 8.5q99 0 154.5 -58.5t55.5 -158.5v-294h-75v280q0 77 -41 120.5t-113 43.5q-38 0 -67.5 -15t-49.5 -40t-30.5 -57t-10.5 -67v-265h-75v408z" />
    <glyph glyph-name="ntilde.fina" horiz-adv-x="931" 
d="M405 602q-30 0 -51 12t-39 27t-36 27t-41 12q-31 0 -40.5 -20.5t-10.5 -47.5h-54q0 54 26.5 89.5t77.5 35.5q29 0 50 -12t39.5 -27t36.5 -27t42 -12q30 0 39 18.5t10 41.5h55q0 -55 -25.5 -86t-78.5 -31zM704 -246q-46 0 -88.5 14t-75.5 43.5t-53 75.5t-20 110v283
q0 77 -41.5 120.5t-112.5 43.5q-39 0 -68.5 -15t-49.5 -40t-30.5 -57t-10.5 -67v-265h-74v496h60l8 -88h7q10 20 26 38.5t38 33t50 23t62 8.5q100 0 155.5 -58.5t55.5 -158.5v-298q0 -48 14 -81t36.5 -53.5t51 -30t57.5 -9.5q33 0 61 12t48 34t31.5 51t11.5 64q0 34 -12 63
t-32.5 50.5t-48.5 33.5t-61 12v68q48 0 89.5 -17t72.5 -47.5t48.5 -72.5t17.5 -91q0 -50 -17 -92t-47 -72t-70.5 -47t-88.5 -17z" />
    <glyph glyph-name="ntilde.init" horiz-adv-x="935" 
d="M741 604q-30 0 -51 12t-39 27t-36 27t-41 12q-31 0 -40 -20.5t-10 -48.5h-55q0 54 26.5 90t77.5 36q30 0 51 -12t39 -27t36 -27t42 -12q30 0 39 18t10 42h55q0 -55 -25 -86t-79 -31zM407 408q0 48 -14 80.5t-36.5 53t-50.5 29.5t-57 9q-33 0 -60.5 -12t-48 -33t-32 -49
t-11.5 -61t12 -61t33 -48.5t49 -32t60 -11.5v-68q-48 0 -89 17t-72 47t-48.5 70.5t-17.5 87.5q0 48 17.5 89t47.5 70.5t71 46t88 16.5q42 0 81 -12.5t70 -39t51.5 -69t24.5 -102.5l1 -17h6q10 20 26 38.5t38 33t50.5 23t62.5 8.5q99 0 154.5 -58.5t55.5 -158.5v-294h-75v280
q0 77 -41 120.5t-113 43.5q-38 0 -67.5 -15t-49.5 -40t-30.5 -57t-10.5 -67v-265h-75v408z" />
    <glyph glyph-name="t.fina" horiz-adv-x="583" 
d="M337 246q48 0 89.5 -17t72.5 -47t48.5 -70t17.5 -87t-17 -87.5t-47 -70t-70.5 -46.5t-88.5 -17q-46 0 -88.5 14t-75.5 43.5t-53 75.5t-20 110v386h-77v63h80l14 122h58v-122h168v-63h-168v-387q0 -48 14 -81t36.5 -53.5t51 -30t57.5 -9.5q33 0 61.5 12t48.5 33t31.5 49
t11.5 60t-12 59.5t-33 48t-49 32.5t-61 12v68z" />
    <glyph glyph-name="t.ss01" horiz-adv-x="310" 
d="M298 433h-111v-433h-73v433h-98v63h101l11 122h54v-122h116v-63z" />
    <glyph glyph-name="tbar.fina" horiz-adv-x="594" 
d="M347 246q48 0 90 -17t73 -47t48.5 -70t17.5 -87t-17 -87.5t-47 -70t-71 -46.5t-89 -17q-45 0 -87.5 14t-75.5 43.5t-53 75.5t-20 110v205h-78v48h78v133h-78v63h81l14 122h57v-122h168v-63h-168v-133h168v-48h-168v-206q0 -48 14 -81t36.5 -53.5t51.5 -30t58 -9.5
q33 0 61 12t48 33t31.5 49t11.5 60t-12 59.5t-32.5 48t-49 32.5t-61.5 12v68z" />
    <glyph glyph-name="tbar.ss01" horiz-adv-x="333" 
d="M197 433v-143h111v-56h-111v-234h-73v234h-98v56h98v143h-98v63h101l12 122h54v-122h115v-63h-111z" />
    <glyph glyph-name="tcaron.fina" horiz-adv-x="583" 
d="M348 575h-60l50 200h67zM337 246q48 0 89.5 -17t72.5 -47t48.5 -70t17.5 -87t-17 -87.5t-47 -70t-70.5 -46.5t-88.5 -17q-46 0 -88.5 14t-75.5 43.5t-53 75.5t-20 110v386h-77v63h80l14 122h58v-122h168v-63h-168v-387q0 -48 14 -81t36.5 -53.5t51 -30t57.5 -9.5
q33 0 61.5 12t48.5 33t31.5 49t11.5 60t-12 59.5t-33 48t-49 32.5t-61 12v68z" />
    <glyph glyph-name="tcaron.ss01" horiz-adv-x="310" 
d="M374 774l-57 -200h-60l50 200h67zM182 496h116v-63h-111v-433h-73v433h-98v63h101l11 122h54v-122z" />
    <glyph glyph-name="u.fina" horiz-adv-x="925" 
d="M695 -246q-45 0 -86.5 13.5t-73.5 43t-51.5 75t-19.5 108.5v94h-6q-10 -19 -26 -38t-38 -33t-50 -23t-62 -9q-49 0 -88.5 15.5t-66.5 44t-41.5 68.5t-14.5 89v294h75v-279q0 -78 41.5 -121.5t112.5 -43.5q39 0 68.5 15t49.5 40t30.5 57.5t10.5 66.5v265h74v-500
q0 -48 14 -81t36.5 -53.5t51.5 -30t58 -9.5q33 0 61 12t48 34t31.5 51t11.5 64q0 34 -12 63t-32.5 50.5t-49 33.5t-61.5 12v68q48 0 89.5 -17t72.5 -47.5t48.5 -72.5t17.5 -91t-17 -91t-47 -72.5t-70.5 -47.5t-88.5 -17z" />
    <glyph glyph-name="u.ss01" horiz-adv-x="613" 
d="M282 -15q-49 0 -88.5 15.5t-66.5 44t-41.5 68.5t-14.5 89v294h75v-279q0 -78 41.5 -121.5t112.5 -43.5q39 0 68.5 15t49.5 40t30.5 57.5t10.5 66.5v265h74v-496h-60l-9 88h-6q-10 -19 -26 -38t-38 -33t-50 -23t-62 -9z" />
    <glyph glyph-name="uacute.fina" horiz-adv-x="925" 
d="M396 761h72l-137 -195h-64zM695 -246q-45 0 -86.5 13.5t-73.5 43t-51.5 75t-19.5 108.5v94h-6q-10 -19 -26 -38t-38 -33t-50 -23t-62 -9q-49 0 -88.5 15.5t-66.5 44t-41.5 68.5t-14.5 89v294h75v-279q0 -78 41.5 -121.5t112.5 -43.5q39 0 68.5 15t49.5 40t30.5 57.5
t10.5 66.5v265h74v-500q0 -48 14 -81t36.5 -53.5t51.5 -30t58 -9.5q33 0 61 12t48 34t31.5 51t11.5 64q0 34 -12 63t-32.5 50.5t-49 33.5t-61.5 12v68q48 0 89.5 -17t72.5 -47.5t48.5 -72.5t17.5 -91t-17 -91t-47 -72.5t-70.5 -47.5t-88.5 -17z" />
    <glyph glyph-name="uacute.ss01" horiz-adv-x="613" 
d="M399 761h73l-137 -195h-65zM282 -15q-49 0 -88.5 15.5t-66.5 44t-41.5 68.5t-14.5 89v294h75v-279q0 -78 41.5 -121.5t112.5 -43.5q39 0 68.5 15t49.5 40t30.5 57.5t10.5 66.5v265h74v-496h-60l-9 88h-6q-10 -19 -26 -38t-38 -33t-50 -23t-62 -9z" />
    <glyph glyph-name="ucircumflex.fina" horiz-adv-x="925" 
d="M268 759h60l139 -192h-66l-99 136h-6l-101 -136h-66zM695 -246q-45 0 -86.5 13.5t-73.5 43t-51.5 75t-19.5 108.5v94h-6q-10 -19 -26 -38t-38 -33t-50 -23t-62 -9q-49 0 -88.5 15.5t-66.5 44t-41.5 68.5t-14.5 89v294h75v-279q0 -78 41.5 -121.5t112.5 -43.5
q39 0 68.5 15t49.5 40t30.5 57.5t10.5 66.5v265h74v-500q0 -48 14 -81t36.5 -53.5t51.5 -30t58 -9.5q33 0 61 12t48 34t31.5 51t11.5 64q0 34 -12 63t-32.5 50.5t-49 33.5t-61.5 12v68q48 0 89.5 -17t72.5 -47.5t48.5 -72.5t17.5 -91t-17 -91t-47 -72.5t-70.5 -47.5
t-88.5 -17z" />
    <glyph glyph-name="ucircumflex.ss01" horiz-adv-x="613" 
d="M272 759h59l140 -192h-66l-99 136h-7l-100 -136h-66zM282 -15q-49 0 -88.5 15.5t-66.5 44t-41.5 68.5t-14.5 89v294h75v-279q0 -78 41.5 -121.5t112.5 -43.5q39 0 68.5 15t49.5 40t30.5 57.5t10.5 66.5v265h74v-496h-60l-9 88h-6q-10 -19 -26 -38t-38 -33t-50 -23t-62 -9
z" />
    <glyph glyph-name="udieresis.fina" horiz-adv-x="925" 
d="M190 604q-22 0 -37.5 15.5t-15.5 37.5q0 23 15.5 38.5t37.5 15.5q23 0 38.5 -15.5t15.5 -38.5q0 -22 -15.5 -37.5t-38.5 -15.5zM408 604q-22 0 -37.5 15.5t-15.5 37.5q0 23 15.5 38.5t37.5 15.5q23 0 38.5 -15.5t15.5 -38.5q0 -22 -15.5 -37.5t-38.5 -15.5zM695 -246
q-45 0 -86.5 13.5t-73.5 43t-51.5 75t-19.5 108.5v94h-6q-10 -19 -26 -38t-38 -33t-50 -23t-62 -9q-49 0 -88.5 15.5t-66.5 44t-41.5 68.5t-14.5 89v294h75v-279q0 -78 41.5 -121.5t112.5 -43.5q39 0 68.5 15t49.5 40t30.5 57.5t10.5 66.5v265h74v-500q0 -48 14 -81
t36.5 -53.5t51.5 -30t58 -9.5q33 0 61 12t48 34t31.5 51t11.5 64q0 34 -12 63t-32.5 50.5t-49 33.5t-61.5 12v68q48 0 89.5 -17t72.5 -47.5t48.5 -72.5t17.5 -91t-17 -91t-47 -72.5t-70.5 -47.5t-88.5 -17z" />
    <glyph glyph-name="udieresis.ss01" horiz-adv-x="613" 
d="M194 604q-22 0 -37.5 15.5t-15.5 37.5q0 23 15.5 38.5t37.5 15.5q23 0 38.5 -15.5t15.5 -38.5q0 -22 -15.5 -37.5t-38.5 -15.5zM412 604q-22 0 -38 15.5t-16 37.5q0 23 16 38.5t38 15.5t37.5 -15.5t15.5 -38.5q0 -22 -15.5 -37.5t-37.5 -15.5zM282 -15q-49 0 -88.5 15.5
t-66.5 44t-41.5 68.5t-14.5 89v294h75v-279q0 -78 41.5 -121.5t112.5 -43.5q39 0 68.5 15t49.5 40t30.5 57.5t10.5 66.5v265h74v-496h-60l-9 88h-6q-10 -19 -26 -38t-38 -33t-50 -23t-62 -9z" />
    <glyph glyph-name="ugrave.fina" horiz-adv-x="925" 
d="M135 761h72l129 -195h-64zM695 -246q-45 0 -86.5 13.5t-73.5 43t-51.5 75t-19.5 108.5v94h-6q-10 -19 -26 -38t-38 -33t-50 -23t-62 -9q-49 0 -88.5 15.5t-66.5 44t-41.5 68.5t-14.5 89v294h75v-279q0 -78 41.5 -121.5t112.5 -43.5q39 0 68.5 15t49.5 40t30.5 57.5
t10.5 66.5v265h74v-500q0 -48 14 -81t36.5 -53.5t51.5 -30t58 -9.5q33 0 61 12t48 34t31.5 51t11.5 64q0 34 -12 63t-32.5 50.5t-49 33.5t-61.5 12v68q48 0 89.5 -17t72.5 -47.5t48.5 -72.5t17.5 -91t-17 -91t-47 -72.5t-70.5 -47.5t-88.5 -17z" />
    <glyph glyph-name="ugrave.ss01" horiz-adv-x="613" 
d="M139 761h72l129 -195h-64zM282 -15q-49 0 -88.5 15.5t-66.5 44t-41.5 68.5t-14.5 89v294h75v-279q0 -78 41.5 -121.5t112.5 -43.5q39 0 68.5 15t49.5 40t30.5 57.5t10.5 66.5v265h74v-496h-60l-9 88h-6q-10 -19 -26 -38t-38 -33t-50 -23t-62 -9z" />
    <glyph glyph-name="uhungarumlaut.fina" horiz-adv-x="925" 
d="M259 762h74l-109 -194h-61zM461 762h73l-109 -194h-60zM695 -246q-45 0 -86.5 13.5t-73.5 43t-51.5 75t-19.5 108.5v94h-6q-10 -19 -26 -38t-38 -33t-50 -23t-62 -9q-49 0 -88.5 15.5t-66.5 44t-41.5 68.5t-14.5 89v294h75v-279q0 -78 41.5 -121.5t112.5 -43.5
q39 0 68.5 15t49.5 40t30.5 57.5t10.5 66.5v265h74v-500q0 -48 14 -81t36.5 -53.5t51.5 -30t58 -9.5q33 0 61 12t48 34t31.5 51t11.5 64q0 34 -12 63t-32.5 50.5t-49 33.5t-61.5 12v68q48 0 89.5 -17t72.5 -47.5t48.5 -72.5t17.5 -91t-17 -91t-47 -72.5t-70.5 -47.5
t-88.5 -17z" />
    <glyph glyph-name="uhungarumlaut.ss01" horiz-adv-x="613" 
d="M263 762h73l-109 -194h-60zM464 762h74l-109 -194h-61zM282 -15q-49 0 -88.5 15.5t-66.5 44t-41.5 68.5t-14.5 89v294h75v-279q0 -78 41.5 -121.5t112.5 -43.5q39 0 68.5 15t49.5 40t30.5 57.5t10.5 66.5v265h74v-496h-60l-9 88h-6q-10 -19 -26 -38t-38 -33t-50 -23
t-62 -9z" />
    <glyph glyph-name="umacron.fina" horiz-adv-x="925" 
d="M121 667h355v-55h-355v55zM695 -246q-45 0 -86.5 13.5t-73.5 43t-51.5 75t-19.5 108.5v94h-6q-10 -19 -26 -38t-38 -33t-50 -23t-62 -9q-49 0 -88.5 15.5t-66.5 44t-41.5 68.5t-14.5 89v294h75v-279q0 -78 41.5 -121.5t112.5 -43.5q39 0 68.5 15t49.5 40t30.5 57.5
t10.5 66.5v265h74v-500q0 -48 14 -81t36.5 -53.5t51.5 -30t58 -9.5q33 0 61 12t48 34t31.5 51t11.5 64q0 34 -12 63t-32.5 50.5t-49 33.5t-61.5 12v68q48 0 89.5 -17t72.5 -47.5t48.5 -72.5t17.5 -91t-17 -91t-47 -72.5t-70.5 -47.5t-88.5 -17z" />
    <glyph glyph-name="umacron.ss01" horiz-adv-x="613" 
d="M125 667h355v-55h-355v55zM282 -15q-49 0 -88.5 15.5t-66.5 44t-41.5 68.5t-14.5 89v294h75v-279q0 -78 41.5 -121.5t112.5 -43.5q39 0 68.5 15t49.5 40t30.5 57.5t10.5 66.5v265h74v-496h-60l-9 88h-6q-10 -19 -26 -38t-38 -33t-50 -23t-62 -9z" />
    <glyph glyph-name="uni0123.init" horiz-adv-x="599" 
d="M326 563h-66l57 200h59zM415 67q71 -21 109 -67t38 -115q0 -42 -15.5 -81.5t-48.5 -70t-84 -49t-122 -18.5q-61 0 -111.5 18t-86.5 50t-55.5 77.5t-19.5 100.5q0 17 1.5 33t6.5 33h71q-6 -29 -6 -55q0 -41 14 -75.5t39.5 -59.5t63 -39t83.5 -14q50 0 86 13t59.5 34.5
t35 51t11.5 62.5q0 38 -16 65t-42.5 44.5t-60 26t-69.5 8.5q-58 0 -104 16.5t-78.5 47t-50 74.5t-17.5 98q0 53 18.5 96t51.5 74t78.5 48.5t99.5 17.5h252v-53h-91q42 -32 66.5 -79.5t24.5 -103.5q0 -72 -36 -126t-95 -83zM116 276q0 -43 14 -75t38 -54t57 -33t71 -11
q41 0 74 14.5t56.5 39t36.5 55.5t13 64q0 44 -16 76.5t-42 53.5t-58 31.5t-64 10.5q-33 0 -65 -10.5t-57.5 -32t-41.5 -53.5t-16 -76z" />
    <glyph glyph-name="uni0123.ss01" horiz-adv-x="654" 
d="M337 563h-67l57 200h60zM292 -231q-48 0 -100.5 14.5t-97.5 37.5v68h8q45 -26 92 -40t92 -14q41 0 79.5 10t68.5 35.5t48 69t18 110.5v41h-6q-10 -20 -27.5 -40t-42 -36.5t-55.5 -26.5t-68 -10q-56 0 -103.5 19t-82 53.5t-54 82t-19.5 104.5t19.5 106t54 84t81.5 55
t103 20q38 0 71 -9.5t59 -26t45.5 -37t30.5 -43.5h6l12 100h50v-420q0 -147 -69.5 -227t-212.5 -80zM307 51q44 0 79.5 17t61 45t39.5 63.5t14 72.5q0 38 -14 73.5t-40 62.5t-61.5 43.5t-79.5 16.5q-40 0 -75 -14t-60.5 -40t-40.5 -62t-15 -80t15 -80.5t41 -62.5t61 -40.5
t75 -14.5z" />
    <glyph glyph-name="uni0136.fina" horiz-adv-x="848" 
d="M606 -44q-48 0 -87 13.5t-74 39t-67.5 61t-66.5 78.5l-136 168h-5v-316h-77v689h77v-304h6l350 304h95l-381 -335l134 -165q32 -39 60 -69t55 -51t55.5 -31.5t61.5 -10.5q64 0 103.5 39.5t39.5 102.5q0 64 -39 103.5t-102 39.5v71q49 0 88.5 -16.5t67 -45t42.5 -67.5
t15 -85t-15 -85t-43 -67.5t-68 -44.5t-89 -16zM261 -51h67l-57 -200h-60z" />
    <glyph glyph-name="uni0137.fina" horiz-adv-x="925" 
d="M679 340q49 0 89 -16.5t68 -46t43.5 -70t15.5 -88.5t-16 -88.5t-45.5 -69.5t-69.5 -45t-88 -16q-66 0 -119 20t-96.5 57.5t-77.5 90.5t-61 120q23 10 46 22.5t41.5 30.5t30.5 42.5t12 57.5q0 48 -30.5 76t-82.5 28q-57 0 -103.5 -29.5t-82.5 -83.5v-332h-73v705h73v-294
h6q13 18 33.5 36t46.5 33t56.5 24t62.5 9q79 0 123.5 -44t44.5 -113q0 -66 -34 -109.5t-87 -69.5q50 -101 112.5 -154.5t153.5 -53.5q32 0 60 10.5t48 30t31.5 47t11.5 61.5q0 69 -39.5 109.5t-103.5 40.5v72zM246 -51h67l-57 -200h-60z" />
    <glyph glyph-name="uni0137.ss01" horiz-adv-x="504" 
d="M80 705h73v-421h6l238 213h88l-260 -230l282 -267h-92l-256 240h-6v-240h-73v705zM225 -51h67l-57 -200h-60z" />
    <glyph glyph-name="uni0145.init" horiz-adv-x="1079" 
d="M253 -140q-48 0 -90 17.5t-73 48.5t-49 73.5t-18 92.5t18 92.5t49.5 73t74 48t91.5 17.5v-70q-33 0 -61.5 -12t-49.5 -34t-33 -51t-12 -64q0 -34 11.5 -63.5t32 -51.5t48.5 -34t62 -12q29 0 57.5 9.5t51 30t36.5 54t14 81.5v583h46l446 -548h5v548h76v-689h-46l-446 543
h-5v-437q0 -64 -20 -111t-53 -77t-75.5 -44t-87.5 -14zM674 -51h66l-57 -200h-59z" />
    <glyph glyph-name="uni0146.fina" horiz-adv-x="931" 
d="M704 -246q-46 0 -88.5 14t-75.5 43.5t-53 75.5t-20 110v283q0 77 -41.5 120.5t-112.5 43.5q-39 0 -68.5 -15t-49.5 -40t-30.5 -57t-10.5 -67v-265h-74v496h60l8 -88h7q10 20 26 38.5t38 33t50 23t62 8.5q100 0 155.5 -58.5t55.5 -158.5v-298q0 -48 14 -81t36.5 -53.5
t51 -30t57.5 -9.5q33 0 61 12t48 34t31.5 51t11.5 64q0 34 -12 63t-32.5 50.5t-48.5 33.5t-61 12v68q48 0 89.5 -17t72.5 -47.5t48.5 -72.5t17.5 -91q0 -50 -17 -92t-47 -72t-70.5 -47t-88.5 -17zM284 -51h66l-57 -200h-59z" />
    <glyph glyph-name="uni0146.init" horiz-adv-x="935" 
d="M407 408q0 48 -14 80.5t-36.5 53t-50.5 29.5t-57 9q-33 0 -60.5 -12t-48 -33t-32 -49t-11.5 -61t12 -61t33 -48.5t49 -32t60 -11.5v-68q-48 0 -89 17t-72 47t-48.5 70.5t-17.5 87.5q0 48 17.5 89t47.5 70.5t71 46t88 16.5q42 0 81 -12.5t70 -39t51.5 -69t24.5 -102.5
l1 -17h6q10 20 26 38.5t38 33t50.5 23t62.5 8.5q99 0 154.5 -58.5t55.5 -158.5v-294h-75v280q0 77 -41 120.5t-113 43.5q-38 0 -67.5 -15t-49.5 -40t-30.5 -57t-10.5 -67v-265h-75v408zM606 -51h66l-57 -200h-59z" />
    <glyph glyph-name="uni0156.fina" horiz-adv-x="923" 
d="M683 373q49 0 88.5 -16.5t67.5 -45t43 -67.5t15 -85t-15.5 -85.5t-43.5 -68t-68 -44.5t-89 -16q-50 0 -91 15t-77 44.5t-69.5 74t-67.5 102.5l-62 105h-145v-286h-76v690h254q106 0 166.5 -54t60.5 -147q0 -40 -13.5 -73.5t-37.5 -58.5t-57 -40.5t-72 -20.5l54 -89
q30 -51 57 -87t54 -59t56.5 -34t64.5 -11q65 0 104.5 40t39.5 103q0 64 -39 103.5t-102 39.5v71zM345 348q69 0 111 38.5t42 100.5q0 64 -42 100t-112 36h-175v-275h176zM322 -51h67l-57 -200h-60z" />
    <glyph glyph-name="uni0162.init" horiz-adv-x="882" 
d="M634 0l-16 -55l16.5 -3t35.5 -12.5t35 -29t16 -52.5q0 -52 -35.5 -79t-95.5 -27q-22 0 -39 3t-29 7q-15 4 -26 10l14 46q3 -2 21.5 -9t52.5 -7q35 0 56 15t21 46q0 21 -12 33.5t-28.5 18.5t-34 7.5t-28.5 1.5l25 86h-13v617h-292q-48 0 -81 -14t-53.5 -37t-29.5 -51.5
t-9 -57.5q0 -34 12 -62t33 -48.5t49 -32t61 -11.5q32 0 60 12t48.5 33t32.5 49.5t12 61.5h73q0 -49 -17.5 -91t-48 -72.5t-72.5 -47.5t-90 -17t-90 17t-72.5 47t-48 71t-17.5 89q0 45 14.5 87t44.5 74.5t76.5 52.5t110.5 20h593v-72h-222v-617h-13z" />
    <glyph glyph-name="uni0163.fina" horiz-adv-x="583" 
d="M565 25q0 -44 -15 -82.5t-42 -67.5t-63.5 -47.5t-79.5 -22.5l-15 -51l16.5 -2.5t35.5 -12.5t35 -29.5t16 -52.5q0 -52 -35 -79t-95 -27q-22 0 -39 3t-30 7q-14 4 -25 10l14 47q2 -2 20.5 -9t52.5 -7q35 0 56.5 15t21.5 45q0 21 -12 33.5t-28.5 19t-34 8t-29.5 1.5l25 81
q-42 4 -80 20.5t-67 46t-46 73t-17 102.5v386h-77v63h80l14 122h58v-122h168v-63h-168v-387q0 -48 14 -81t36.5 -53.5t51 -30t57.5 -9.5q33 0 61.5 12t48.5 33t31.5 49t11.5 60t-12 59.5t-33 48t-49 32.5t-61 12v68q48 0 89.5 -17t72.5 -47t48.5 -70t17.5 -87z" />
    <glyph glyph-name="uni0163.ss01" horiz-adv-x="310" 
d="M176 0l-17 -55l16.5 -2.5t35.5 -12.5t35 -29.5t16 -52.5q0 -52 -35 -78.5t-95 -26.5q-22 0 -39 3t-30 7q-14 4 -25 10l14 46q3 -2 21 -9t52 -7q35 0 56.5 15t21.5 45q0 21 -12 33.5t-28.5 19t-34 8t-29.5 1.5l26 85h-11v433h-98v63h101l11 122h54v-122h116v-63h-111v-433
h-11z" />
    <glyph glyph-name="uni021A.init" horiz-adv-x="882" 
d="M570 617h-292q-48 0 -81 -14t-53.5 -37t-29.5 -51.5t-9 -57.5q0 -34 12 -62t33 -48.5t49 -32t61 -11.5q32 0 60 12t48.5 33t32.5 49.5t12 61.5h73q0 -49 -17.5 -91t-48 -72.5t-72.5 -47.5t-90 -17t-90 17t-72.5 47t-48 71t-17.5 89q0 45 14.5 87t44.5 74.5t76.5 52.5
t110.5 20h593v-72h-222v-617h-77v617zM576 -51h66l-57 -200h-59z" />
    <glyph glyph-name="uni021B.fina" horiz-adv-x="583" 
d="M337 246q48 0 89.5 -17t72.5 -47t48.5 -70t17.5 -87t-17 -87.5t-47 -70t-70.5 -46.5t-88.5 -17q-46 0 -88.5 14t-75.5 43.5t-53 75.5t-20 110v386h-77v63h80l14 122h58v-122h168v-63h-168v-387q0 -48 14 -81t36.5 -53.5t51 -30t57.5 -9.5q33 0 61.5 12t48.5 33t31.5 49
t11.5 60t-12 59.5t-33 48t-49 32.5t-61 12v68zM308 -242h67l-57 -200h-60z" />
    <glyph glyph-name="uni021B.ss01" horiz-adv-x="310" 
d="M298 433h-111v-433h-73v433h-98v63h101l11 122h54v-122h116v-63zM117 -51h67l-57 -199h-60z" />
    <glyph glyph-name="uni1EF9.init" horiz-adv-x="706" 
d="M537 589q-30 0 -51 12t-39.5 27t-36.5 27t-41 12q-31 0 -40 -20.5t-10 -48.5h-54q0 54 26.5 90t77.5 36q29 0 50 -12t39.5 -27t36.5 -27t41 -12q30 0 39.5 18t9.5 42h55q0 -55 -25 -86t-78 -31zM233 -234q-54 0 -95.5 18.5t-70.5 49t-44 70t-15 81.5q0 48 14.5 86
t39 65.5t56 45t65.5 24.5l26 -66q-25 -3 -48 -15t-40.5 -31.5t-28 -46t-10.5 -59.5q0 -28 9.5 -55.5t28.5 -49t47.5 -35t65.5 -13.5q62 0 100.5 36t66.5 120l-212 505h81l170 -425h6l167 425h79l-214 -515q-24 -57 -48.5 -97.5t-53 -66.5t-63.5 -38.5t-79 -12.5z" />
    <glyph glyph-name="uni1EF9.ss01" horiz-adv-x="530" 
d="M360 589q-30 0 -51 12t-39 27t-36 27t-41 12q-31 0 -40.5 -20.5t-10.5 -48.5h-54q0 54 26.5 90t77.5 36q29 0 50 -12t39.5 -27t36.5 -27t42 -12q30 0 39 18t10 42h55q0 -55 -25.5 -86t-78.5 -31zM229 -9l-214 505h80l169 -423h6l165 423h80l-212 -508l-81 -192l-71 -1z
" />
    <glyph glyph-name="uogonek.fina" horiz-adv-x="925" 
d="M728 -244q-13 -6 -29.5 -15t-30 -23.5t-23 -34.5t-9.5 -47q0 -35 20.5 -54.5t52.5 -19.5q20 0 38 5v-51q-26 -8 -52 -8q-52 0 -87.5 31.5t-35.5 90.5q0 49 23 80t51 48q-37 6 -70 23.5t-57.5 46.5t-39.5 70t-15 96v94h-6q-10 -19 -26 -38t-38 -33t-50 -23t-62 -9
q-49 0 -88.5 15.5t-66.5 44t-41.5 68.5t-14.5 89v294h75v-279q0 -78 41.5 -121.5t112.5 -43.5q39 0 68.5 15t49.5 40t30.5 57.5t10.5 66.5v265h74v-500q0 -48 14 -81t36.5 -53.5t51.5 -30t58 -9.5q33 0 61 12t48 34t31.5 51t11.5 64q0 34 -12 63t-32.5 50.5t-49 33.5
t-61.5 12v68q48 0 89.5 -17t72.5 -47.5t48.5 -72.5t17.5 -91q0 -45 -14 -84t-39.5 -68.5t-60.5 -48.5t-76 -25z" />
    <glyph glyph-name="uogonek.ss01" horiz-adv-x="613" 
d="M503 -199q20 0 38 5v-51q-26 -8 -52 -8q-51 0 -87 31.5t-36 90.5q0 31 10 55t26 41.5t34.5 29t35.5 18.5l-8 75h-6q-10 -19 -26 -38t-38 -33t-50 -23t-62 -9q-49 0 -88.5 15.5t-66.5 44t-41.5 68.5t-14.5 89v294h75v-279q0 -78 41.5 -121.5t112.5 -43.5q39 0 68.5 15
t49.5 40t30.5 57.5t10.5 66.5v265h74v-496q-13 -5 -30.5 -14t-33.5 -23.5t-27.5 -36t-11.5 -51.5q0 -35 20.5 -54.5t52.5 -19.5z" />
    <glyph glyph-name="uring.fina" horiz-adv-x="925" 
d="M300 564q-45 0 -75 29.5t-30 71.5t30 71.5t75 29.5t74.5 -29.5t29.5 -71.5t-29.5 -71.5t-74.5 -29.5zM300 608q23 0 39.5 16.5t16.5 40.5q0 25 -16.5 40.5t-39.5 15.5t-40 -15.5t-17 -40.5t16.5 -41t40.5 -16zM695 -246q-45 0 -86.5 13.5t-73.5 43t-51.5 75t-19.5 108.5
v94h-6q-10 -19 -26 -38t-38 -33t-50 -23t-62 -9q-49 0 -88.5 15.5t-66.5 44t-41.5 68.5t-14.5 89v294h75v-279q0 -78 41.5 -121.5t112.5 -43.5q39 0 68.5 15t49.5 40t30.5 57.5t10.5 66.5v265h74v-500q0 -48 14 -81t36.5 -53.5t51.5 -30t58 -9.5q33 0 61 12t48 34t31.5 51
t11.5 64q0 34 -12 63t-32.5 50.5t-49 33.5t-61.5 12v68q48 0 89.5 -17t72.5 -47.5t48.5 -72.5t17.5 -91t-17 -91t-47 -72.5t-70.5 -47.5t-88.5 -17z" />
    <glyph glyph-name="uring.ss01" horiz-adv-x="613" 
d="M304 564q-45 0 -75 29.5t-30 71.5t30 71.5t75 29.5t74.5 -29.5t29.5 -71.5t-29.5 -71.5t-74.5 -29.5zM304 608q23 0 39 16.5t16 40.5q0 25 -16 40.5t-39 15.5t-40 -15.5t-17 -40.5t16.5 -41t40.5 -16zM282 -15q-49 0 -88.5 15.5t-66.5 44t-41.5 68.5t-14.5 89v294h75
v-279q0 -78 41.5 -121.5t112.5 -43.5q39 0 68.5 15t49.5 40t30.5 57.5t10.5 66.5v265h74v-496h-60l-9 88h-6q-10 -19 -26 -38t-38 -33t-50 -23t-62 -9z" />
    <glyph glyph-name="utilde.fina" horiz-adv-x="925" 
d="M394 589q-30 0 -51 12t-39.5 27t-36.5 27t-41 12q-31 0 -40 -20.5t-10 -48.5h-54q0 54 26.5 90t77.5 36q29 0 50 -12t39.5 -27t36.5 -27t41 -12q31 0 40 18t10 42h54q0 -55 -25 -86t-78 -31zM695 -246q-45 0 -86.5 13.5t-73.5 43t-51.5 75t-19.5 108.5v94h-6
q-10 -19 -26 -38t-38 -33t-50 -23t-62 -9q-49 0 -88.5 15.5t-66.5 44t-41.5 68.5t-14.5 89v294h75v-279q0 -78 41.5 -121.5t112.5 -43.5q39 0 68.5 15t49.5 40t30.5 57.5t10.5 66.5v265h74v-500q0 -48 14 -81t36.5 -53.5t51.5 -30t58 -9.5q33 0 61 12t48 34t31.5 51t11.5 64
q0 34 -12 63t-32.5 50.5t-49 33.5t-61.5 12v68q48 0 89.5 -17t72.5 -47.5t48.5 -72.5t17.5 -91t-17 -91t-47 -72.5t-70.5 -47.5t-88.5 -17z" />
    <glyph glyph-name="utilde.ss01" horiz-adv-x="613" 
d="M397 589q-30 0 -51 12t-39 27t-36 27t-41 12q-31 0 -40 -20.5t-10 -48.5h-54q0 54 26 90t78 36q29 0 50 -12t39 -27t36 -27t42 -12q30 0 39.5 18t9.5 42h55q0 -55 -25 -86t-79 -31zM282 -15q-49 0 -88.5 15.5t-66.5 44t-41.5 68.5t-14.5 89v294h75v-279
q0 -78 41.5 -121.5t112.5 -43.5q39 0 68.5 15t49.5 40t30.5 57.5t10.5 66.5v265h74v-496h-60l-9 88h-6q-10 -19 -26 -38t-38 -33t-50 -23t-62 -9z" />
    <glyph glyph-name="y.init" horiz-adv-x="706" 
d="M233 -234q-54 0 -95.5 18.5t-70.5 49t-44 70t-15 81.5q0 48 14.5 86t39 65.5t56 45t65.5 24.5l26 -66q-25 -3 -48 -15t-40.5 -31.5t-28 -46t-10.5 -59.5q0 -28 9.5 -55.5t28.5 -49t47.5 -35t65.5 -13.5q62 0 100.5 36t66.5 120l-212 505h81l170 -425h6l167 425h79
l-214 -515q-24 -57 -48.5 -97.5t-53 -66.5t-63.5 -38.5t-79 -12.5z" />
    <glyph glyph-name="y.ss01" horiz-adv-x="530" 
d="M229 -9l-214 505h80l169 -423h6l165 423h80l-212 -508l-81 -192l-71 -1z" />
    <glyph glyph-name="yacute.init" horiz-adv-x="706" 
d="M539 761h72l-137 -195h-65zM233 -234q-54 0 -95.5 18.5t-70.5 49t-44 70t-15 81.5q0 48 14.5 86t39 65.5t56 45t65.5 24.5l26 -66q-25 -3 -48 -15t-40.5 -31.5t-28 -46t-10.5 -59.5q0 -28 9.5 -55.5t28.5 -49t47.5 -35t65.5 -13.5q62 0 100.5 36t66.5 120l-212 505h81
l170 -425h6l167 425h79l-214 -515q-24 -57 -48.5 -97.5t-53 -66.5t-63.5 -38.5t-79 -12.5z" />
    <glyph glyph-name="yacute.ss01" horiz-adv-x="530" 
d="M362 761h73l-138 -195h-64zM229 -9l-214 505h80l169 -423h6l165 423h80l-212 -508l-81 -192l-71 -1z" />
    <glyph glyph-name="ycircumflex.init" horiz-adv-x="706" 
d="M411 759h60l139 -192h-66l-99 136h-6l-101 -136h-66zM233 -234q-54 0 -95.5 18.5t-70.5 49t-44 70t-15 81.5q0 48 14.5 86t39 65.5t56 45t65.5 24.5l26 -66q-25 -3 -48 -15t-40.5 -31.5t-28 -46t-10.5 -59.5q0 -28 9.5 -55.5t28.5 -49t47.5 -35t65.5 -13.5q62 0 100.5 36
t66.5 120l-212 505h81l170 -425h6l167 425h79l-214 -515q-24 -57 -48.5 -97.5t-53 -66.5t-63.5 -38.5t-79 -12.5z" />
    <glyph glyph-name="ycircumflex.ss01" horiz-adv-x="530" 
d="M234 759h60l140 -192h-66l-100 136h-6l-101 -136h-66zM229 -9l-214 505h80l169 -423h6l165 423h80l-212 -508l-81 -192l-71 -1z" />
    <glyph glyph-name="ydieresis.init" horiz-adv-x="706" 
d="M333 604q-22 0 -37.5 15.5t-15.5 37.5q0 23 15.5 38.5t37.5 15.5q23 0 38.5 -15.5t15.5 -38.5q0 -22 -15.5 -37.5t-38.5 -15.5zM551 604q-22 0 -37.5 15.5t-15.5 37.5q0 23 15.5 38.5t37.5 15.5q23 0 38.5 -15.5t15.5 -38.5q0 -22 -15.5 -37.5t-38.5 -15.5zM233 -234
q-54 0 -95.5 18.5t-70.5 49t-44 70t-15 81.5q0 48 14.5 86t39 65.5t56 45t65.5 24.5l26 -66q-25 -3 -48 -15t-40.5 -31.5t-28 -46t-10.5 -59.5q0 -28 9.5 -55.5t28.5 -49t47.5 -35t65.5 -13.5q62 0 100.5 36t66.5 120l-212 505h81l170 -425h6l167 425h79l-214 -515
q-24 -57 -48.5 -97.5t-53 -66.5t-63.5 -38.5t-79 -12.5z" />
    <glyph glyph-name="ydieresis.ss01" horiz-adv-x="530" 
d="M157 604q-22 0 -37.5 15.5t-15.5 37.5q0 23 15.5 38.5t37.5 15.5q23 0 38.5 -15.5t15.5 -38.5q0 -22 -15.5 -37.5t-38.5 -15.5zM374 604q-22 0 -37.5 15.5t-15.5 37.5q0 23 15.5 38.5t37.5 15.5q23 0 38.5 -15.5t15.5 -38.5q0 -22 -15.5 -37.5t-38.5 -15.5zM229 -9
l-214 505h80l169 -423h6l165 423h80l-212 -508l-81 -192l-71 -1z" />
    <glyph glyph-name="ygrave.init" horiz-adv-x="706" 
d="M278 761h72l129 -195h-64zM233 -234q-54 0 -95.5 18.5t-70.5 49t-44 70t-15 81.5q0 48 14.5 86t39 65.5t56 45t65.5 24.5l26 -66q-25 -3 -48 -15t-40.5 -31.5t-28 -46t-10.5 -59.5q0 -28 9.5 -55.5t28.5 -49t47.5 -35t65.5 -13.5q62 0 100.5 36t66.5 120l-212 505h81
l170 -425h6l167 425h79l-214 -515q-24 -57 -48.5 -97.5t-53 -66.5t-63.5 -38.5t-79 -12.5z" />
    <glyph glyph-name="ygrave.ss01" horiz-adv-x="530" 
d="M101 761h73l129 -195h-65zM229 -9l-214 505h80l169 -423h6l165 423h80l-212 -508l-81 -192l-71 -1z" />
    </font>
</defs>
</svg>
